G04 #@! TF.FileFunction,Copper,L2,Bot,Signal*
%FSLAX46Y46*%
G04 Gerber Fmt 4.6, Leading zero omitted, Abs format (unit mm)*
G04 Created by KiCad (PCBNEW 4.0.7) date 05/24/18 15:50:37*
%MOMM*%
%LPD*%
G01*
G04 APERTURE LIST*
%ADD10C,0.100000*%
%ADD11C,2.000000*%
%ADD12R,1.500000X1.250000*%
%ADD13R,1.250000X1.500000*%
%ADD14C,1.800000*%
%ADD15R,1.500000X1.300000*%
%ADD16C,0.700000*%
%ADD17C,0.650000*%
%ADD18C,0.250000*%
G04 APERTURE END LIST*
D10*
D11*
X81325000Y-105405000D03*
X81325000Y-100905000D03*
X87825000Y-105405000D03*
X87825000Y-100905000D03*
D12*
X102750000Y-86254000D03*
X105250000Y-86254000D03*
X102750000Y-75750000D03*
X105250000Y-75750000D03*
D13*
X92500000Y-74750000D03*
X92500000Y-72250000D03*
D12*
X102750000Y-84000000D03*
X105250000Y-84000000D03*
X90750000Y-85000000D03*
X88250000Y-85000000D03*
D13*
X98500000Y-86750000D03*
X98500000Y-89250000D03*
D12*
X102750000Y-78000000D03*
X105250000Y-78000000D03*
D13*
X96500000Y-86750000D03*
X96500000Y-89250000D03*
D14*
X75565000Y-70485000D03*
X73025000Y-70485000D03*
X78105000Y-70485000D03*
X80645000Y-70485000D03*
X124460000Y-111125000D03*
X124460000Y-113665000D03*
X121920000Y-111125000D03*
X121920000Y-113665000D03*
X119380000Y-111125000D03*
X119380000Y-113665000D03*
X116840000Y-111125000D03*
X116840000Y-113665000D03*
X114300000Y-111125000D03*
X114300000Y-113665000D03*
X111760000Y-111125000D03*
X111760000Y-113665000D03*
X109220000Y-111125000D03*
X109220000Y-113665000D03*
X106680000Y-111125000D03*
X106680000Y-113665000D03*
X104140000Y-111125000D03*
X104140000Y-113665000D03*
X101600000Y-111125000D03*
X101600000Y-113665000D03*
X88900000Y-60960000D03*
X86360000Y-60960000D03*
X83820000Y-60960000D03*
X83820000Y-58420000D03*
X86360000Y-58420000D03*
X88900000Y-58420000D03*
X81280000Y-58420000D03*
X81280000Y-60960000D03*
X78740000Y-60960000D03*
X78740000Y-58420000D03*
X91440000Y-58420000D03*
X91440000Y-60960000D03*
X93980000Y-60960000D03*
X93980000Y-58420000D03*
X101600000Y-58420000D03*
X99060000Y-58420000D03*
X96520000Y-58420000D03*
X96520000Y-60960000D03*
X99060000Y-60960000D03*
X101600000Y-60960000D03*
X95885000Y-92075000D03*
X99060000Y-92075000D03*
X84455000Y-88900000D03*
X84455000Y-85725000D03*
X56515000Y-93980000D03*
X59055000Y-93980000D03*
X59055000Y-104140000D03*
X56515000Y-104140000D03*
X59055000Y-101600000D03*
X56515000Y-101600000D03*
X59055000Y-99060000D03*
X56515000Y-99060000D03*
X59055000Y-96520000D03*
X56515000Y-96520000D03*
X131445000Y-79375000D03*
X131445000Y-76835000D03*
X131445000Y-74295000D03*
X133985000Y-74295000D03*
X133985000Y-76835000D03*
X133985000Y-79375000D03*
X133985000Y-86995000D03*
X133985000Y-84455000D03*
X133985000Y-81915000D03*
X131445000Y-81915000D03*
X131445000Y-84455000D03*
X131445000Y-86995000D03*
X56515000Y-71755000D03*
X59055000Y-71755000D03*
X59055000Y-81915000D03*
X56515000Y-81915000D03*
X59055000Y-79375000D03*
X56515000Y-79375000D03*
X59055000Y-76835000D03*
X56515000Y-76835000D03*
X59055000Y-74295000D03*
X56515000Y-74295000D03*
X69850000Y-113665000D03*
X69850000Y-111125000D03*
X80010000Y-111125000D03*
X80010000Y-113665000D03*
X77470000Y-111125000D03*
X77470000Y-113665000D03*
X74930000Y-111125000D03*
X74930000Y-113665000D03*
X72390000Y-111125000D03*
X72390000Y-113665000D03*
X77470000Y-78105000D03*
X74930000Y-78105000D03*
X72390000Y-78105000D03*
X121285000Y-82550000D03*
X118745000Y-82550000D03*
X116205000Y-82550000D03*
D15*
X88150000Y-82500000D03*
X90850000Y-82500000D03*
D11*
X131500000Y-65405000D03*
X127000000Y-65405000D03*
X131500000Y-58905000D03*
X127000000Y-58905000D03*
X116260000Y-65405000D03*
X111760000Y-65405000D03*
X116260000Y-58905000D03*
X111760000Y-58905000D03*
D14*
X131445000Y-103251000D03*
D16*
X108077000Y-87249000D03*
X118618000Y-89535000D03*
X69723000Y-62738000D03*
X115570000Y-89535000D03*
X125984000Y-88392000D03*
X122936000Y-92456000D03*
X130810000Y-95885000D03*
X127635000Y-95885000D03*
X73000000Y-91000000D03*
X134620000Y-60960000D03*
X119380000Y-60960000D03*
X77470000Y-92075000D03*
X90170000Y-97155000D03*
X127000000Y-107315000D03*
X119253000Y-105918000D03*
X99060000Y-105410000D03*
X95885000Y-105410000D03*
X92500000Y-83500000D03*
X98000000Y-85000000D03*
X104013000Y-85153500D03*
X104000000Y-77000000D03*
X94000000Y-76500000D03*
X118745000Y-116840000D03*
X130175000Y-109220000D03*
X69850000Y-60960000D03*
X72390000Y-54610000D03*
X102489000Y-74041000D03*
X93500000Y-93500000D03*
X92500000Y-76500000D03*
X101000000Y-83500000D03*
X101000000Y-77000000D03*
X92500000Y-84500000D03*
X99000000Y-85000000D03*
X101000000Y-78000000D03*
X102870000Y-115824000D03*
X87376000Y-64770000D03*
X90551000Y-63881000D03*
X97790000Y-63119000D03*
X97028000Y-66802000D03*
X66500000Y-78500000D03*
X70000000Y-75000000D03*
X62500000Y-77500000D03*
X61722000Y-75565000D03*
X65000000Y-78000000D03*
X69000000Y-74000000D03*
X70500000Y-100500000D03*
X92500000Y-82500000D03*
D17*
X130175000Y-113665000D02*
X127000000Y-116840000D01*
X127000000Y-116840000D02*
X118745000Y-116840000D01*
X118745000Y-116840000D02*
X116840000Y-114935000D01*
X130175000Y-109220000D02*
X130175000Y-113665000D01*
X116840000Y-114935000D02*
X116840000Y-113665000D01*
X70485000Y-60325000D02*
X69850000Y-60960000D01*
X70485000Y-56515000D02*
X70485000Y-60325000D01*
X72390000Y-54610000D02*
X70485000Y-56515000D01*
X102750000Y-75750000D02*
X102750000Y-74302000D01*
X102750000Y-74302000D02*
X102489000Y-74041000D01*
X90750000Y-85000000D02*
X90750000Y-90750000D01*
X90750000Y-90750000D02*
X93500000Y-93500000D01*
D18*
X102750000Y-86254000D02*
X102750000Y-84000000D01*
X92500000Y-76500000D02*
X92500000Y-74750000D01*
D17*
X99060000Y-60960000D02*
X101600000Y-60960000D01*
X96520000Y-60960000D02*
X99060000Y-60960000D01*
X91440000Y-60960000D02*
X93980000Y-60960000D01*
X93980000Y-60960000D02*
X96520000Y-60960000D01*
D18*
X112395000Y-64770000D02*
X112395000Y-64605000D01*
D17*
X112395000Y-64605000D02*
X114135000Y-62865000D01*
X124460000Y-62865000D02*
X126365000Y-64770000D01*
X114135000Y-62865000D02*
X124460000Y-62865000D01*
D18*
X103000000Y-83500000D02*
X102000000Y-83500000D01*
X101000000Y-83500000D02*
X103000000Y-83500000D01*
X98500000Y-86750000D02*
X96500000Y-86750000D01*
X98500000Y-85500000D02*
X98500000Y-86750000D01*
X99000000Y-85000000D02*
X98500000Y-85500000D01*
X102000000Y-83500000D02*
X102500000Y-84000000D01*
X102500000Y-84000000D02*
X102750000Y-84000000D01*
X101000000Y-77000000D02*
X101750000Y-76250000D01*
X101750000Y-76250000D02*
X102250000Y-76250000D01*
X102250000Y-76250000D02*
X102750000Y-75750000D01*
X102000000Y-76250000D02*
X102250000Y-76250000D01*
X102250000Y-76250000D02*
X102750000Y-75750000D01*
X92000000Y-85000000D02*
X90750000Y-85000000D01*
X92500000Y-84500000D02*
X92000000Y-85000000D01*
X101000000Y-78000000D02*
X102750000Y-78000000D01*
X102870000Y-115824000D02*
X113411000Y-115824000D01*
X114300000Y-114935000D02*
X114300000Y-113665000D01*
X113411000Y-115824000D02*
X114300000Y-114935000D01*
X85090000Y-59690000D02*
X83820000Y-58420000D01*
X85090000Y-62484000D02*
X85090000Y-59690000D01*
X87376000Y-64770000D02*
X85090000Y-62484000D01*
X90170000Y-59690000D02*
X88900000Y-58420000D01*
X90170000Y-63500000D02*
X90170000Y-59690000D01*
X90551000Y-63881000D02*
X90170000Y-63500000D01*
X97790000Y-66040000D02*
X97790000Y-63119000D01*
X97028000Y-66802000D02*
X97790000Y-66040000D01*
X70000000Y-75000000D02*
X66500000Y-78500000D01*
X62500000Y-77500000D02*
X62500000Y-95615000D01*
X62500000Y-95615000D02*
X59055000Y-99060000D01*
X59115000Y-99000000D02*
X59055000Y-99060000D01*
X61722000Y-94488000D02*
X59690000Y-96520000D01*
X61722000Y-93980000D02*
X61722000Y-94488000D01*
X61722000Y-86106000D02*
X61722000Y-93980000D01*
X61722000Y-79121000D02*
X61722000Y-86106000D01*
X61722000Y-75565000D02*
X61722000Y-79121000D01*
X59690000Y-96520000D02*
X59055000Y-96520000D01*
X59075000Y-96500000D02*
X59055000Y-96520000D01*
X69000000Y-74000000D02*
X65000000Y-78000000D01*
X59180000Y-79500000D02*
X59055000Y-79375000D01*
X75000000Y-109500000D02*
X75000000Y-111055000D01*
X70500000Y-105000000D02*
X75000000Y-109500000D01*
X70500000Y-104500000D02*
X70500000Y-105000000D01*
X70500000Y-104000000D02*
X70500000Y-104500000D01*
X70500000Y-103500000D02*
X70500000Y-104000000D01*
X70500000Y-100500000D02*
X70500000Y-103500000D01*
X75000000Y-111055000D02*
X74930000Y-111125000D01*
X74930000Y-110430000D02*
X74930000Y-111125000D01*
X92500000Y-82500000D02*
X90850000Y-82500000D01*
G36*
X132375000Y-57500000D02*
X132384187Y-57547037D01*
X132411612Y-57588388D01*
X134911612Y-60088388D01*
X134951368Y-60115152D01*
X135000000Y-60125000D01*
X139575000Y-60125000D01*
X139575000Y-110875000D01*
X135000000Y-110875000D01*
X134952963Y-110884187D01*
X134911612Y-110911612D01*
X132411612Y-113411612D01*
X132384848Y-113451368D01*
X132375000Y-113500000D01*
X132375000Y-117985000D01*
X60625000Y-117985000D01*
X60625000Y-115977481D01*
X102094866Y-115977481D01*
X102212604Y-116262429D01*
X102430425Y-116480630D01*
X102715167Y-116598865D01*
X103023481Y-116599134D01*
X103308429Y-116481396D01*
X103416012Y-116374000D01*
X113411000Y-116374000D01*
X113621476Y-116332134D01*
X113799909Y-116212909D01*
X114688909Y-115323909D01*
X114808134Y-115145476D01*
X114850000Y-114935000D01*
X114850000Y-114871396D01*
X115049572Y-114788935D01*
X115422625Y-114416532D01*
X115570113Y-114061341D01*
X115716065Y-114414572D01*
X116088468Y-114787625D01*
X116090000Y-114788261D01*
X116090000Y-114935000D01*
X116147090Y-115222013D01*
X116309670Y-115465330D01*
X118062843Y-117218503D01*
X118087604Y-117278429D01*
X118305425Y-117496630D01*
X118590167Y-117614865D01*
X118898481Y-117615134D01*
X118959310Y-117590000D01*
X127000000Y-117590000D01*
X127287013Y-117532910D01*
X127530330Y-117370330D01*
X130705330Y-114195330D01*
X130867910Y-113952013D01*
X130925000Y-113665000D01*
X130925000Y-109434715D01*
X130949865Y-109374833D01*
X130950134Y-109066519D01*
X130832396Y-108781571D01*
X130614575Y-108563370D01*
X130329833Y-108445135D01*
X130021519Y-108444866D01*
X129736571Y-108562604D01*
X129518370Y-108780425D01*
X129400135Y-109065167D01*
X129399866Y-109373481D01*
X129425000Y-109434310D01*
X129425000Y-113354340D01*
X126689340Y-116090000D01*
X119055660Y-116090000D01*
X117672155Y-114706495D01*
X117962625Y-114416532D01*
X118110113Y-114061341D01*
X118256065Y-114414572D01*
X118628468Y-114787625D01*
X119115285Y-114989769D01*
X119642402Y-114990229D01*
X120129572Y-114788935D01*
X120356259Y-114562642D01*
X121057714Y-114562642D01*
X121146288Y-114772455D01*
X121628988Y-114984241D01*
X122155992Y-114995186D01*
X122647068Y-114803622D01*
X122693712Y-114772455D01*
X122782286Y-114562642D01*
X121920000Y-113700355D01*
X121057714Y-114562642D01*
X120356259Y-114562642D01*
X120502625Y-114416532D01*
X120651274Y-114058545D01*
X120781378Y-114392068D01*
X120812545Y-114438712D01*
X121022358Y-114527286D01*
X121884645Y-113665000D01*
X121955355Y-113665000D01*
X122817642Y-114527286D01*
X123027455Y-114438712D01*
X123191527Y-114064762D01*
X123336065Y-114414572D01*
X123708468Y-114787625D01*
X124195285Y-114989769D01*
X124722402Y-114990229D01*
X125209572Y-114788935D01*
X125582625Y-114416532D01*
X125784769Y-113929715D01*
X125785229Y-113402598D01*
X125583935Y-112915428D01*
X125211532Y-112542375D01*
X124853545Y-112393726D01*
X125187068Y-112263622D01*
X125233712Y-112232455D01*
X125322286Y-112022642D01*
X124460000Y-111160355D01*
X123597714Y-112022642D01*
X123686288Y-112232455D01*
X124060238Y-112396527D01*
X123710428Y-112541065D01*
X123337375Y-112913468D01*
X123188726Y-113271455D01*
X123058622Y-112937932D01*
X123027455Y-112891288D01*
X122817642Y-112802714D01*
X121955355Y-113665000D01*
X121884645Y-113665000D01*
X121022358Y-112802714D01*
X120812545Y-112891288D01*
X120648473Y-113265238D01*
X120503935Y-112915428D01*
X120131532Y-112542375D01*
X119773545Y-112393726D01*
X120107068Y-112263622D01*
X120153712Y-112232455D01*
X120242286Y-112022642D01*
X121057714Y-112022642D01*
X121146288Y-112232455D01*
X121522859Y-112397677D01*
X121192932Y-112526378D01*
X121146288Y-112557545D01*
X121057714Y-112767358D01*
X121920000Y-113629645D01*
X122782286Y-112767358D01*
X122693712Y-112557545D01*
X122317141Y-112392323D01*
X122647068Y-112263622D01*
X122693712Y-112232455D01*
X122782286Y-112022642D01*
X121920000Y-111160355D01*
X121057714Y-112022642D01*
X120242286Y-112022642D01*
X119380000Y-111160355D01*
X118517714Y-112022642D01*
X118606288Y-112232455D01*
X118980238Y-112396527D01*
X118630428Y-112541065D01*
X118257375Y-112913468D01*
X118109887Y-113268659D01*
X117963935Y-112915428D01*
X117591532Y-112542375D01*
X117233545Y-112393726D01*
X117567068Y-112263622D01*
X117613712Y-112232455D01*
X117702286Y-112022642D01*
X116840000Y-111160355D01*
X115977714Y-112022642D01*
X116066288Y-112232455D01*
X116440238Y-112396527D01*
X116090428Y-112541065D01*
X115717375Y-112913468D01*
X115569887Y-113268659D01*
X115423935Y-112915428D01*
X115051532Y-112542375D01*
X114693545Y-112393726D01*
X115027068Y-112263622D01*
X115073712Y-112232455D01*
X115162286Y-112022642D01*
X114300000Y-111160355D01*
X113437714Y-112022642D01*
X113526288Y-112232455D01*
X113900238Y-112396527D01*
X113550428Y-112541065D01*
X113177375Y-112913468D01*
X113029887Y-113268659D01*
X112883935Y-112915428D01*
X112511532Y-112542375D01*
X112153545Y-112393726D01*
X112487068Y-112263622D01*
X112533712Y-112232455D01*
X112622286Y-112022642D01*
X111760000Y-111160355D01*
X110897714Y-112022642D01*
X110986288Y-112232455D01*
X111360238Y-112396527D01*
X111010428Y-112541065D01*
X110637375Y-112913468D01*
X110488726Y-113271455D01*
X110358622Y-112937932D01*
X110327455Y-112891288D01*
X110117642Y-112802714D01*
X109255355Y-113665000D01*
X110117642Y-114527286D01*
X110327455Y-114438712D01*
X110491527Y-114064762D01*
X110636065Y-114414572D01*
X111008468Y-114787625D01*
X111495285Y-114989769D01*
X112022402Y-114990229D01*
X112509572Y-114788935D01*
X112882625Y-114416532D01*
X113030113Y-114061341D01*
X113176065Y-114414572D01*
X113548468Y-114787625D01*
X113634029Y-114823153D01*
X113183182Y-115274000D01*
X103416019Y-115274000D01*
X103309575Y-115167370D01*
X103024833Y-115049135D01*
X102716519Y-115048866D01*
X102431571Y-115166604D01*
X102213370Y-115384425D01*
X102095135Y-115669167D01*
X102094866Y-115977481D01*
X60625000Y-115977481D01*
X60625000Y-114562642D01*
X68987714Y-114562642D01*
X69076288Y-114772455D01*
X69558988Y-114984241D01*
X70085992Y-114995186D01*
X70577068Y-114803622D01*
X70623712Y-114772455D01*
X70712286Y-114562642D01*
X71527714Y-114562642D01*
X71616288Y-114772455D01*
X72098988Y-114984241D01*
X72625992Y-114995186D01*
X73117068Y-114803622D01*
X73163712Y-114772455D01*
X73252286Y-114562642D01*
X74067714Y-114562642D01*
X74156288Y-114772455D01*
X74638988Y-114984241D01*
X75165992Y-114995186D01*
X75657068Y-114803622D01*
X75703712Y-114772455D01*
X75792286Y-114562642D01*
X76607714Y-114562642D01*
X76696288Y-114772455D01*
X77178988Y-114984241D01*
X77705992Y-114995186D01*
X78197068Y-114803622D01*
X78243712Y-114772455D01*
X78332286Y-114562642D01*
X79147714Y-114562642D01*
X79236288Y-114772455D01*
X79718988Y-114984241D01*
X80245992Y-114995186D01*
X80737068Y-114803622D01*
X80783712Y-114772455D01*
X80872286Y-114562642D01*
X80010000Y-113700355D01*
X79147714Y-114562642D01*
X78332286Y-114562642D01*
X77470000Y-113700355D01*
X76607714Y-114562642D01*
X75792286Y-114562642D01*
X74930000Y-113700355D01*
X74067714Y-114562642D01*
X73252286Y-114562642D01*
X72390000Y-113700355D01*
X71527714Y-114562642D01*
X70712286Y-114562642D01*
X69850000Y-113700355D01*
X68987714Y-114562642D01*
X60625000Y-114562642D01*
X60625000Y-113900992D01*
X68519814Y-113900992D01*
X68711378Y-114392068D01*
X68742545Y-114438712D01*
X68952358Y-114527286D01*
X69814645Y-113665000D01*
X69885355Y-113665000D01*
X70747642Y-114527286D01*
X70957455Y-114438712D01*
X71122677Y-114062141D01*
X71251378Y-114392068D01*
X71282545Y-114438712D01*
X71492358Y-114527286D01*
X72354645Y-113665000D01*
X72425355Y-113665000D01*
X73287642Y-114527286D01*
X73497455Y-114438712D01*
X73662677Y-114062141D01*
X73791378Y-114392068D01*
X73822545Y-114438712D01*
X74032358Y-114527286D01*
X74894645Y-113665000D01*
X74965355Y-113665000D01*
X75827642Y-114527286D01*
X76037455Y-114438712D01*
X76202677Y-114062141D01*
X76331378Y-114392068D01*
X76362545Y-114438712D01*
X76572358Y-114527286D01*
X77434645Y-113665000D01*
X77505355Y-113665000D01*
X78367642Y-114527286D01*
X78577455Y-114438712D01*
X78742677Y-114062141D01*
X78871378Y-114392068D01*
X78902545Y-114438712D01*
X79112358Y-114527286D01*
X79974645Y-113665000D01*
X80045355Y-113665000D01*
X80907642Y-114527286D01*
X81117455Y-114438712D01*
X81329241Y-113956012D01*
X81329835Y-113927402D01*
X100274771Y-113927402D01*
X100476065Y-114414572D01*
X100848468Y-114787625D01*
X101335285Y-114989769D01*
X101862402Y-114990229D01*
X102349572Y-114788935D01*
X102722625Y-114416532D01*
X102870113Y-114061341D01*
X103016065Y-114414572D01*
X103388468Y-114787625D01*
X103875285Y-114989769D01*
X104402402Y-114990229D01*
X104889572Y-114788935D01*
X105262625Y-114416532D01*
X105410113Y-114061341D01*
X105556065Y-114414572D01*
X105928468Y-114787625D01*
X106415285Y-114989769D01*
X106942402Y-114990229D01*
X107429572Y-114788935D01*
X107656259Y-114562642D01*
X108357714Y-114562642D01*
X108446288Y-114772455D01*
X108928988Y-114984241D01*
X109455992Y-114995186D01*
X109947068Y-114803622D01*
X109993712Y-114772455D01*
X110082286Y-114562642D01*
X109220000Y-113700355D01*
X108357714Y-114562642D01*
X107656259Y-114562642D01*
X107802625Y-114416532D01*
X107951274Y-114058545D01*
X108081378Y-114392068D01*
X108112545Y-114438712D01*
X108322358Y-114527286D01*
X109184645Y-113665000D01*
X108322358Y-112802714D01*
X108112545Y-112891288D01*
X107948473Y-113265238D01*
X107803935Y-112915428D01*
X107431532Y-112542375D01*
X107073545Y-112393726D01*
X107407068Y-112263622D01*
X107453712Y-112232455D01*
X107542286Y-112022642D01*
X108357714Y-112022642D01*
X108446288Y-112232455D01*
X108822859Y-112397677D01*
X108492932Y-112526378D01*
X108446288Y-112557545D01*
X108357714Y-112767358D01*
X109220000Y-113629645D01*
X110082286Y-112767358D01*
X109993712Y-112557545D01*
X109617141Y-112392323D01*
X109947068Y-112263622D01*
X109993712Y-112232455D01*
X110082286Y-112022642D01*
X109220000Y-111160355D01*
X108357714Y-112022642D01*
X107542286Y-112022642D01*
X106680000Y-111160355D01*
X105817714Y-112022642D01*
X105906288Y-112232455D01*
X106280238Y-112396527D01*
X105930428Y-112541065D01*
X105557375Y-112913468D01*
X105409887Y-113268659D01*
X105263935Y-112915428D01*
X104891532Y-112542375D01*
X104533545Y-112393726D01*
X104867068Y-112263622D01*
X104913712Y-112232455D01*
X105002286Y-112022642D01*
X104140000Y-111160355D01*
X103277714Y-112022642D01*
X103366288Y-112232455D01*
X103740238Y-112396527D01*
X103390428Y-112541065D01*
X103017375Y-112913468D01*
X102869887Y-113268659D01*
X102723935Y-112915428D01*
X102351532Y-112542375D01*
X101993545Y-112393726D01*
X102327068Y-112263622D01*
X102373712Y-112232455D01*
X102462286Y-112022642D01*
X101600000Y-111160355D01*
X100737714Y-112022642D01*
X100826288Y-112232455D01*
X101200238Y-112396527D01*
X100850428Y-112541065D01*
X100477375Y-112913468D01*
X100275231Y-113400285D01*
X100274771Y-113927402D01*
X81329835Y-113927402D01*
X81340186Y-113429008D01*
X81148622Y-112937932D01*
X81117455Y-112891288D01*
X80907642Y-112802714D01*
X80045355Y-113665000D01*
X79974645Y-113665000D01*
X79112358Y-112802714D01*
X78902545Y-112891288D01*
X78737323Y-113267859D01*
X78608622Y-112937932D01*
X78577455Y-112891288D01*
X78367642Y-112802714D01*
X77505355Y-113665000D01*
X77434645Y-113665000D01*
X76572358Y-112802714D01*
X76362545Y-112891288D01*
X76197323Y-113267859D01*
X76068622Y-112937932D01*
X76037455Y-112891288D01*
X75827642Y-112802714D01*
X74965355Y-113665000D01*
X74894645Y-113665000D01*
X74032358Y-112802714D01*
X73822545Y-112891288D01*
X73657323Y-113267859D01*
X73528622Y-112937932D01*
X73497455Y-112891288D01*
X73287642Y-112802714D01*
X72425355Y-113665000D01*
X72354645Y-113665000D01*
X71492358Y-112802714D01*
X71282545Y-112891288D01*
X71117323Y-113267859D01*
X70988622Y-112937932D01*
X70957455Y-112891288D01*
X70747642Y-112802714D01*
X69885355Y-113665000D01*
X69814645Y-113665000D01*
X68952358Y-112802714D01*
X68742545Y-112891288D01*
X68530759Y-113373988D01*
X68519814Y-113900992D01*
X60625000Y-113900992D01*
X60625000Y-113500000D01*
X60615813Y-113452963D01*
X60588388Y-113411612D01*
X59199418Y-112022642D01*
X68987714Y-112022642D01*
X69076288Y-112232455D01*
X69452859Y-112397677D01*
X69122932Y-112526378D01*
X69076288Y-112557545D01*
X68987714Y-112767358D01*
X69850000Y-113629645D01*
X70712286Y-112767358D01*
X70623712Y-112557545D01*
X70247141Y-112392323D01*
X70577068Y-112263622D01*
X70623712Y-112232455D01*
X70712286Y-112022642D01*
X69850000Y-111160355D01*
X68987714Y-112022642D01*
X59199418Y-112022642D01*
X58537768Y-111360992D01*
X68519814Y-111360992D01*
X68711378Y-111852068D01*
X68742545Y-111898712D01*
X68952358Y-111987286D01*
X69814645Y-111125000D01*
X68952358Y-110262714D01*
X68742545Y-110351288D01*
X68530759Y-110833988D01*
X68519814Y-111360992D01*
X58537768Y-111360992D01*
X58088388Y-110911612D01*
X58048632Y-110884848D01*
X58000000Y-110875000D01*
X53465000Y-110875000D01*
X53465000Y-110227358D01*
X68987714Y-110227358D01*
X69850000Y-111089645D01*
X70712286Y-110227358D01*
X70623712Y-110017545D01*
X70141012Y-109805759D01*
X69614008Y-109794814D01*
X69122932Y-109986378D01*
X69076288Y-110017545D01*
X68987714Y-110227358D01*
X53465000Y-110227358D01*
X53465000Y-105037642D01*
X55652714Y-105037642D01*
X55741288Y-105247455D01*
X56223988Y-105459241D01*
X56750992Y-105470186D01*
X57242068Y-105278622D01*
X57288712Y-105247455D01*
X57377286Y-105037642D01*
X56515000Y-104175355D01*
X55652714Y-105037642D01*
X53465000Y-105037642D01*
X53465000Y-104375992D01*
X55184814Y-104375992D01*
X55376378Y-104867068D01*
X55407545Y-104913712D01*
X55617358Y-105002286D01*
X56479645Y-104140000D01*
X55617358Y-103277714D01*
X55407545Y-103366288D01*
X55195759Y-103848988D01*
X55184814Y-104375992D01*
X53465000Y-104375992D01*
X53465000Y-102497642D01*
X55652714Y-102497642D01*
X55741288Y-102707455D01*
X56117859Y-102872677D01*
X55787932Y-103001378D01*
X55741288Y-103032545D01*
X55652714Y-103242358D01*
X56515000Y-104104645D01*
X57377286Y-103242358D01*
X57288712Y-103032545D01*
X56912141Y-102867323D01*
X57242068Y-102738622D01*
X57288712Y-102707455D01*
X57377286Y-102497642D01*
X56515000Y-101635355D01*
X55652714Y-102497642D01*
X53465000Y-102497642D01*
X53465000Y-101835992D01*
X55184814Y-101835992D01*
X55376378Y-102327068D01*
X55407545Y-102373712D01*
X55617358Y-102462286D01*
X56479645Y-101600000D01*
X55617358Y-100737714D01*
X55407545Y-100826288D01*
X55195759Y-101308988D01*
X55184814Y-101835992D01*
X53465000Y-101835992D01*
X53465000Y-99957642D01*
X55652714Y-99957642D01*
X55741288Y-100167455D01*
X56117859Y-100332677D01*
X55787932Y-100461378D01*
X55741288Y-100492545D01*
X55652714Y-100702358D01*
X56515000Y-101564645D01*
X57377286Y-100702358D01*
X57288712Y-100492545D01*
X56912141Y-100327323D01*
X57242068Y-100198622D01*
X57288712Y-100167455D01*
X57377286Y-99957642D01*
X56515000Y-99095355D01*
X55652714Y-99957642D01*
X53465000Y-99957642D01*
X53465000Y-99295992D01*
X55184814Y-99295992D01*
X55376378Y-99787068D01*
X55407545Y-99833712D01*
X55617358Y-99922286D01*
X56479645Y-99060000D01*
X55617358Y-98197714D01*
X55407545Y-98286288D01*
X55195759Y-98768988D01*
X55184814Y-99295992D01*
X53465000Y-99295992D01*
X53465000Y-97417642D01*
X55652714Y-97417642D01*
X55741288Y-97627455D01*
X56117859Y-97792677D01*
X55787932Y-97921378D01*
X55741288Y-97952545D01*
X55652714Y-98162358D01*
X56515000Y-99024645D01*
X57377286Y-98162358D01*
X57288712Y-97952545D01*
X56912141Y-97787323D01*
X57242068Y-97658622D01*
X57288712Y-97627455D01*
X57377286Y-97417642D01*
X56515000Y-96555355D01*
X55652714Y-97417642D01*
X53465000Y-97417642D01*
X53465000Y-96755992D01*
X55184814Y-96755992D01*
X55376378Y-97247068D01*
X55407545Y-97293712D01*
X55617358Y-97382286D01*
X56479645Y-96520000D01*
X55617358Y-95657714D01*
X55407545Y-95746288D01*
X55195759Y-96228988D01*
X55184814Y-96755992D01*
X53465000Y-96755992D01*
X53465000Y-94877642D01*
X55652714Y-94877642D01*
X55741288Y-95087455D01*
X56117859Y-95252677D01*
X55787932Y-95381378D01*
X55741288Y-95412545D01*
X55652714Y-95622358D01*
X56515000Y-96484645D01*
X57377286Y-95622358D01*
X57288712Y-95412545D01*
X56912141Y-95247323D01*
X57242068Y-95118622D01*
X57288712Y-95087455D01*
X57377286Y-94877642D01*
X56515000Y-94015355D01*
X55652714Y-94877642D01*
X53465000Y-94877642D01*
X53465000Y-94215992D01*
X55184814Y-94215992D01*
X55376378Y-94707068D01*
X55407545Y-94753712D01*
X55617358Y-94842286D01*
X56479645Y-93980000D01*
X56550355Y-93980000D01*
X57412642Y-94842286D01*
X57622455Y-94753712D01*
X57786527Y-94379762D01*
X57931065Y-94729572D01*
X58303468Y-95102625D01*
X58658659Y-95250113D01*
X58305428Y-95396065D01*
X57932375Y-95768468D01*
X57783726Y-96126455D01*
X57653622Y-95792932D01*
X57622455Y-95746288D01*
X57412642Y-95657714D01*
X56550355Y-96520000D01*
X57412642Y-97382286D01*
X57622455Y-97293712D01*
X57786527Y-96919762D01*
X57931065Y-97269572D01*
X58303468Y-97642625D01*
X58658659Y-97790113D01*
X58305428Y-97936065D01*
X57932375Y-98308468D01*
X57783726Y-98666455D01*
X57653622Y-98332932D01*
X57622455Y-98286288D01*
X57412642Y-98197714D01*
X56550355Y-99060000D01*
X57412642Y-99922286D01*
X57622455Y-99833712D01*
X57786527Y-99459762D01*
X57931065Y-99809572D01*
X58303468Y-100182625D01*
X58658659Y-100330113D01*
X58305428Y-100476065D01*
X57932375Y-100848468D01*
X57783726Y-101206455D01*
X57653622Y-100872932D01*
X57622455Y-100826288D01*
X57412642Y-100737714D01*
X56550355Y-101600000D01*
X57412642Y-102462286D01*
X57622455Y-102373712D01*
X57786527Y-101999762D01*
X57931065Y-102349572D01*
X58303468Y-102722625D01*
X58658659Y-102870113D01*
X58305428Y-103016065D01*
X57932375Y-103388468D01*
X57783726Y-103746455D01*
X57653622Y-103412932D01*
X57622455Y-103366288D01*
X57412642Y-103277714D01*
X56550355Y-104140000D01*
X57412642Y-105002286D01*
X57622455Y-104913712D01*
X57786527Y-104539762D01*
X57931065Y-104889572D01*
X58303468Y-105262625D01*
X58790285Y-105464769D01*
X59317402Y-105465229D01*
X59804572Y-105263935D01*
X60177625Y-104891532D01*
X60379769Y-104404715D01*
X60380229Y-103877598D01*
X60178935Y-103390428D01*
X59806532Y-103017375D01*
X59451341Y-102869887D01*
X59804572Y-102723935D01*
X60177625Y-102351532D01*
X60379769Y-101864715D01*
X60380229Y-101337598D01*
X60178935Y-100850428D01*
X59982332Y-100653481D01*
X69724866Y-100653481D01*
X69842604Y-100938429D01*
X69950000Y-101046012D01*
X69950000Y-105000000D01*
X69991866Y-105210476D01*
X70111091Y-105388909D01*
X74450000Y-109727818D01*
X74450000Y-109889680D01*
X74180428Y-110001065D01*
X73807375Y-110373468D01*
X73659887Y-110728659D01*
X73513935Y-110375428D01*
X73141532Y-110002375D01*
X72654715Y-109800231D01*
X72127598Y-109799771D01*
X71640428Y-110001065D01*
X71267375Y-110373468D01*
X71118726Y-110731455D01*
X70988622Y-110397932D01*
X70957455Y-110351288D01*
X70747642Y-110262714D01*
X69885355Y-111125000D01*
X70747642Y-111987286D01*
X70957455Y-111898712D01*
X71121527Y-111524762D01*
X71266065Y-111874572D01*
X71638468Y-112247625D01*
X71996455Y-112396274D01*
X71662932Y-112526378D01*
X71616288Y-112557545D01*
X71527714Y-112767358D01*
X72390000Y-113629645D01*
X73252286Y-112767358D01*
X73163712Y-112557545D01*
X72789762Y-112393473D01*
X73139572Y-112248935D01*
X73512625Y-111876532D01*
X73660113Y-111521341D01*
X73806065Y-111874572D01*
X74178468Y-112247625D01*
X74536455Y-112396274D01*
X74202932Y-112526378D01*
X74156288Y-112557545D01*
X74067714Y-112767358D01*
X74930000Y-113629645D01*
X75792286Y-112767358D01*
X75703712Y-112557545D01*
X75329762Y-112393473D01*
X75679572Y-112248935D01*
X76052625Y-111876532D01*
X76200113Y-111521341D01*
X76346065Y-111874572D01*
X76718468Y-112247625D01*
X77076455Y-112396274D01*
X76742932Y-112526378D01*
X76696288Y-112557545D01*
X76607714Y-112767358D01*
X77470000Y-113629645D01*
X78332286Y-112767358D01*
X78243712Y-112557545D01*
X77869762Y-112393473D01*
X78219572Y-112248935D01*
X78592625Y-111876532D01*
X78740113Y-111521341D01*
X78886065Y-111874572D01*
X79258468Y-112247625D01*
X79616455Y-112396274D01*
X79282932Y-112526378D01*
X79236288Y-112557545D01*
X79147714Y-112767358D01*
X80010000Y-113629645D01*
X80872286Y-112767358D01*
X80783712Y-112557545D01*
X80409762Y-112393473D01*
X80759572Y-112248935D01*
X81132625Y-111876532D01*
X81334769Y-111389715D01*
X81334794Y-111360992D01*
X100269814Y-111360992D01*
X100461378Y-111852068D01*
X100492545Y-111898712D01*
X100702358Y-111987286D01*
X101564645Y-111125000D01*
X101635355Y-111125000D01*
X102497642Y-111987286D01*
X102707455Y-111898712D01*
X102872677Y-111522141D01*
X103001378Y-111852068D01*
X103032545Y-111898712D01*
X103242358Y-111987286D01*
X104104645Y-111125000D01*
X104175355Y-111125000D01*
X105037642Y-111987286D01*
X105247455Y-111898712D01*
X105412677Y-111522141D01*
X105541378Y-111852068D01*
X105572545Y-111898712D01*
X105782358Y-111987286D01*
X106644645Y-111125000D01*
X106715355Y-111125000D01*
X107577642Y-111987286D01*
X107787455Y-111898712D01*
X107952677Y-111522141D01*
X108081378Y-111852068D01*
X108112545Y-111898712D01*
X108322358Y-111987286D01*
X109184645Y-111125000D01*
X109255355Y-111125000D01*
X110117642Y-111987286D01*
X110327455Y-111898712D01*
X110492677Y-111522141D01*
X110621378Y-111852068D01*
X110652545Y-111898712D01*
X110862358Y-111987286D01*
X111724645Y-111125000D01*
X111795355Y-111125000D01*
X112657642Y-111987286D01*
X112867455Y-111898712D01*
X113032677Y-111522141D01*
X113161378Y-111852068D01*
X113192545Y-111898712D01*
X113402358Y-111987286D01*
X114264645Y-111125000D01*
X114335355Y-111125000D01*
X115197642Y-111987286D01*
X115407455Y-111898712D01*
X115572677Y-111522141D01*
X115701378Y-111852068D01*
X115732545Y-111898712D01*
X115942358Y-111987286D01*
X116804645Y-111125000D01*
X116875355Y-111125000D01*
X117737642Y-111987286D01*
X117947455Y-111898712D01*
X118112677Y-111522141D01*
X118241378Y-111852068D01*
X118272545Y-111898712D01*
X118482358Y-111987286D01*
X119344645Y-111125000D01*
X119415355Y-111125000D01*
X120277642Y-111987286D01*
X120487455Y-111898712D01*
X120652677Y-111522141D01*
X120781378Y-111852068D01*
X120812545Y-111898712D01*
X121022358Y-111987286D01*
X121884645Y-111125000D01*
X121955355Y-111125000D01*
X122817642Y-111987286D01*
X123027455Y-111898712D01*
X123192677Y-111522141D01*
X123321378Y-111852068D01*
X123352545Y-111898712D01*
X123562358Y-111987286D01*
X124424645Y-111125000D01*
X124495355Y-111125000D01*
X125357642Y-111987286D01*
X125567455Y-111898712D01*
X125779241Y-111416012D01*
X125790186Y-110889008D01*
X125598622Y-110397932D01*
X125567455Y-110351288D01*
X125357642Y-110262714D01*
X124495355Y-111125000D01*
X124424645Y-111125000D01*
X123562358Y-110262714D01*
X123352545Y-110351288D01*
X123187323Y-110727859D01*
X123058622Y-110397932D01*
X123027455Y-110351288D01*
X122817642Y-110262714D01*
X121955355Y-111125000D01*
X121884645Y-111125000D01*
X121022358Y-110262714D01*
X120812545Y-110351288D01*
X120647323Y-110727859D01*
X120518622Y-110397932D01*
X120487455Y-110351288D01*
X120277642Y-110262714D01*
X119415355Y-111125000D01*
X119344645Y-111125000D01*
X118482358Y-110262714D01*
X118272545Y-110351288D01*
X118107323Y-110727859D01*
X117978622Y-110397932D01*
X117947455Y-110351288D01*
X117737642Y-110262714D01*
X116875355Y-111125000D01*
X116804645Y-111125000D01*
X115942358Y-110262714D01*
X115732545Y-110351288D01*
X115567323Y-110727859D01*
X115438622Y-110397932D01*
X115407455Y-110351288D01*
X115197642Y-110262714D01*
X114335355Y-111125000D01*
X114264645Y-111125000D01*
X113402358Y-110262714D01*
X113192545Y-110351288D01*
X113027323Y-110727859D01*
X112898622Y-110397932D01*
X112867455Y-110351288D01*
X112657642Y-110262714D01*
X111795355Y-111125000D01*
X111724645Y-111125000D01*
X110862358Y-110262714D01*
X110652545Y-110351288D01*
X110487323Y-110727859D01*
X110358622Y-110397932D01*
X110327455Y-110351288D01*
X110117642Y-110262714D01*
X109255355Y-111125000D01*
X109184645Y-111125000D01*
X108322358Y-110262714D01*
X108112545Y-110351288D01*
X107947323Y-110727859D01*
X107818622Y-110397932D01*
X107787455Y-110351288D01*
X107577642Y-110262714D01*
X106715355Y-111125000D01*
X106644645Y-111125000D01*
X105782358Y-110262714D01*
X105572545Y-110351288D01*
X105407323Y-110727859D01*
X105278622Y-110397932D01*
X105247455Y-110351288D01*
X105037642Y-110262714D01*
X104175355Y-111125000D01*
X104104645Y-111125000D01*
X103242358Y-110262714D01*
X103032545Y-110351288D01*
X102867323Y-110727859D01*
X102738622Y-110397932D01*
X102707455Y-110351288D01*
X102497642Y-110262714D01*
X101635355Y-111125000D01*
X101564645Y-111125000D01*
X100702358Y-110262714D01*
X100492545Y-110351288D01*
X100280759Y-110833988D01*
X100269814Y-111360992D01*
X81334794Y-111360992D01*
X81335229Y-110862598D01*
X81133935Y-110375428D01*
X80986123Y-110227358D01*
X100737714Y-110227358D01*
X101600000Y-111089645D01*
X102462286Y-110227358D01*
X103277714Y-110227358D01*
X104140000Y-111089645D01*
X105002286Y-110227358D01*
X105817714Y-110227358D01*
X106680000Y-111089645D01*
X107542286Y-110227358D01*
X108357714Y-110227358D01*
X109220000Y-111089645D01*
X110082286Y-110227358D01*
X110897714Y-110227358D01*
X111760000Y-111089645D01*
X112622286Y-110227358D01*
X113437714Y-110227358D01*
X114300000Y-111089645D01*
X115162286Y-110227358D01*
X115977714Y-110227358D01*
X116840000Y-111089645D01*
X117702286Y-110227358D01*
X118517714Y-110227358D01*
X119380000Y-111089645D01*
X120242286Y-110227358D01*
X121057714Y-110227358D01*
X121920000Y-111089645D01*
X122782286Y-110227358D01*
X123597714Y-110227358D01*
X124460000Y-111089645D01*
X125322286Y-110227358D01*
X125233712Y-110017545D01*
X124751012Y-109805759D01*
X124224008Y-109794814D01*
X123732932Y-109986378D01*
X123686288Y-110017545D01*
X123597714Y-110227358D01*
X122782286Y-110227358D01*
X122693712Y-110017545D01*
X122211012Y-109805759D01*
X121684008Y-109794814D01*
X121192932Y-109986378D01*
X121146288Y-110017545D01*
X121057714Y-110227358D01*
X120242286Y-110227358D01*
X120153712Y-110017545D01*
X119671012Y-109805759D01*
X119144008Y-109794814D01*
X118652932Y-109986378D01*
X118606288Y-110017545D01*
X118517714Y-110227358D01*
X117702286Y-110227358D01*
X117613712Y-110017545D01*
X117131012Y-109805759D01*
X116604008Y-109794814D01*
X116112932Y-109986378D01*
X116066288Y-110017545D01*
X115977714Y-110227358D01*
X115162286Y-110227358D01*
X115073712Y-110017545D01*
X114591012Y-109805759D01*
X114064008Y-109794814D01*
X113572932Y-109986378D01*
X113526288Y-110017545D01*
X113437714Y-110227358D01*
X112622286Y-110227358D01*
X112533712Y-110017545D01*
X112051012Y-109805759D01*
X111524008Y-109794814D01*
X111032932Y-109986378D01*
X110986288Y-110017545D01*
X110897714Y-110227358D01*
X110082286Y-110227358D01*
X109993712Y-110017545D01*
X109511012Y-109805759D01*
X108984008Y-109794814D01*
X108492932Y-109986378D01*
X108446288Y-110017545D01*
X108357714Y-110227358D01*
X107542286Y-110227358D01*
X107453712Y-110017545D01*
X106971012Y-109805759D01*
X106444008Y-109794814D01*
X105952932Y-109986378D01*
X105906288Y-110017545D01*
X105817714Y-110227358D01*
X105002286Y-110227358D01*
X104913712Y-110017545D01*
X104431012Y-109805759D01*
X103904008Y-109794814D01*
X103412932Y-109986378D01*
X103366288Y-110017545D01*
X103277714Y-110227358D01*
X102462286Y-110227358D01*
X102373712Y-110017545D01*
X101891012Y-109805759D01*
X101364008Y-109794814D01*
X100872932Y-109986378D01*
X100826288Y-110017545D01*
X100737714Y-110227358D01*
X80986123Y-110227358D01*
X80761532Y-110002375D01*
X80274715Y-109800231D01*
X79747598Y-109799771D01*
X79260428Y-110001065D01*
X78887375Y-110373468D01*
X78739887Y-110728659D01*
X78593935Y-110375428D01*
X78221532Y-110002375D01*
X77734715Y-109800231D01*
X77207598Y-109799771D01*
X76720428Y-110001065D01*
X76347375Y-110373468D01*
X76199887Y-110728659D01*
X76053935Y-110375428D01*
X75681532Y-110002375D01*
X75550000Y-109947758D01*
X75550000Y-109500000D01*
X75508134Y-109289524D01*
X75388909Y-109111091D01*
X72652569Y-106374751D01*
X80390604Y-106374751D01*
X80491349Y-106594955D01*
X81010183Y-106823400D01*
X81576945Y-106835907D01*
X82105351Y-106630571D01*
X82158651Y-106594955D01*
X82259396Y-106374751D01*
X86890604Y-106374751D01*
X86991349Y-106594955D01*
X87510183Y-106823400D01*
X88076945Y-106835907D01*
X88605351Y-106630571D01*
X88658651Y-106594955D01*
X88759396Y-106374751D01*
X87825000Y-105440355D01*
X86890604Y-106374751D01*
X82259396Y-106374751D01*
X81325000Y-105440355D01*
X80390604Y-106374751D01*
X72652569Y-106374751D01*
X71934763Y-105656945D01*
X79894093Y-105656945D01*
X80099429Y-106185351D01*
X80135045Y-106238651D01*
X80355249Y-106339396D01*
X81289645Y-105405000D01*
X81360355Y-105405000D01*
X82294751Y-106339396D01*
X82514955Y-106238651D01*
X82743400Y-105719817D01*
X82744787Y-105656945D01*
X86394093Y-105656945D01*
X86599429Y-106185351D01*
X86635045Y-106238651D01*
X86855249Y-106339396D01*
X87789645Y-105405000D01*
X87860355Y-105405000D01*
X88794751Y-106339396D01*
X89014955Y-106238651D01*
X89243400Y-105719817D01*
X89255907Y-105153055D01*
X89050571Y-104624649D01*
X89014955Y-104571349D01*
X88794751Y-104470604D01*
X87860355Y-105405000D01*
X87789645Y-105405000D01*
X86855249Y-104470604D01*
X86635045Y-104571349D01*
X86406600Y-105090183D01*
X86394093Y-105656945D01*
X82744787Y-105656945D01*
X82755907Y-105153055D01*
X82550571Y-104624649D01*
X82514955Y-104571349D01*
X82294751Y-104470604D01*
X81360355Y-105405000D01*
X81289645Y-105405000D01*
X80355249Y-104470604D01*
X80135045Y-104571349D01*
X79906600Y-105090183D01*
X79894093Y-105656945D01*
X71934763Y-105656945D01*
X71050000Y-104772182D01*
X71050000Y-104435249D01*
X80390604Y-104435249D01*
X81325000Y-105369645D01*
X82259396Y-104435249D01*
X86890604Y-104435249D01*
X87825000Y-105369645D01*
X88759396Y-104435249D01*
X88658651Y-104215045D01*
X88139817Y-103986600D01*
X87573055Y-103974093D01*
X87044649Y-104179429D01*
X86991349Y-104215045D01*
X86890604Y-104435249D01*
X82259396Y-104435249D01*
X82158651Y-104215045D01*
X81639817Y-103986600D01*
X81073055Y-103974093D01*
X80544649Y-104179429D01*
X80491349Y-104215045D01*
X80390604Y-104435249D01*
X71050000Y-104435249D01*
X71050000Y-103513402D01*
X130119771Y-103513402D01*
X130321065Y-104000572D01*
X130693468Y-104373625D01*
X131180285Y-104575769D01*
X131707402Y-104576229D01*
X132194572Y-104374935D01*
X132567625Y-104002532D01*
X132769769Y-103515715D01*
X132770229Y-102988598D01*
X132568935Y-102501428D01*
X132196532Y-102128375D01*
X131709715Y-101926231D01*
X131182598Y-101925771D01*
X130695428Y-102127065D01*
X130322375Y-102499468D01*
X130120231Y-102986285D01*
X130119771Y-103513402D01*
X71050000Y-103513402D01*
X71050000Y-101187206D01*
X79899754Y-101187206D01*
X80116240Y-101711143D01*
X80516749Y-102112351D01*
X81040307Y-102329752D01*
X81607206Y-102330246D01*
X82131143Y-102113760D01*
X82532351Y-101713251D01*
X82749752Y-101189693D01*
X82749754Y-101187206D01*
X86399754Y-101187206D01*
X86616240Y-101711143D01*
X87016749Y-102112351D01*
X87540307Y-102329752D01*
X88107206Y-102330246D01*
X88631143Y-102113760D01*
X89032351Y-101713251D01*
X89249752Y-101189693D01*
X89250246Y-100622794D01*
X89033760Y-100098857D01*
X88633251Y-99697649D01*
X88109693Y-99480248D01*
X87542794Y-99479754D01*
X87018857Y-99696240D01*
X86617649Y-100096749D01*
X86400248Y-100620307D01*
X86399754Y-101187206D01*
X82749754Y-101187206D01*
X82750246Y-100622794D01*
X82533760Y-100098857D01*
X82133251Y-99697649D01*
X81609693Y-99480248D01*
X81042794Y-99479754D01*
X80518857Y-99696240D01*
X80117649Y-100096749D01*
X79900248Y-100620307D01*
X79899754Y-101187206D01*
X71050000Y-101187206D01*
X71050000Y-101046019D01*
X71156630Y-100939575D01*
X71274865Y-100654833D01*
X71275134Y-100346519D01*
X71157396Y-100061571D01*
X70939575Y-99843370D01*
X70654833Y-99725135D01*
X70346519Y-99724866D01*
X70061571Y-99842604D01*
X69843370Y-100060425D01*
X69725135Y-100345167D01*
X69724866Y-100653481D01*
X59982332Y-100653481D01*
X59806532Y-100477375D01*
X59451341Y-100329887D01*
X59804572Y-100183935D01*
X60177625Y-99811532D01*
X60379769Y-99324715D01*
X60380229Y-98797598D01*
X60296898Y-98595920D01*
X62888909Y-96003909D01*
X63008134Y-95825476D01*
X63050001Y-95615000D01*
X63050000Y-95614995D01*
X63050000Y-89162402D01*
X83129771Y-89162402D01*
X83331065Y-89649572D01*
X83703468Y-90022625D01*
X84190285Y-90224769D01*
X84717402Y-90225229D01*
X85204572Y-90023935D01*
X85577625Y-89651532D01*
X85779769Y-89164715D01*
X85780229Y-88637598D01*
X85578935Y-88150428D01*
X85206532Y-87777375D01*
X84719715Y-87575231D01*
X84192598Y-87574771D01*
X83705428Y-87776065D01*
X83332375Y-88148468D01*
X83130231Y-88635285D01*
X83129771Y-89162402D01*
X63050000Y-89162402D01*
X63050000Y-85987402D01*
X83129771Y-85987402D01*
X83331065Y-86474572D01*
X83703468Y-86847625D01*
X84190285Y-87049769D01*
X84717402Y-87050229D01*
X85204572Y-86848935D01*
X85577625Y-86476532D01*
X85779769Y-85989715D01*
X85780229Y-85462598D01*
X85643320Y-85131250D01*
X87075000Y-85131250D01*
X87075000Y-85709538D01*
X87139702Y-85865743D01*
X87259257Y-85985298D01*
X87415462Y-86050000D01*
X88118750Y-86050000D01*
X88225000Y-85943750D01*
X88225000Y-85025000D01*
X88275000Y-85025000D01*
X88275000Y-85943750D01*
X88381250Y-86050000D01*
X89084538Y-86050000D01*
X89240743Y-85985298D01*
X89360298Y-85865743D01*
X89425000Y-85709538D01*
X89425000Y-85131250D01*
X89318750Y-85025000D01*
X88275000Y-85025000D01*
X88225000Y-85025000D01*
X87181250Y-85025000D01*
X87075000Y-85131250D01*
X85643320Y-85131250D01*
X85578935Y-84975428D01*
X85206532Y-84602375D01*
X84719715Y-84400231D01*
X84192598Y-84399771D01*
X83705428Y-84601065D01*
X83332375Y-84973468D01*
X83130231Y-85460285D01*
X83129771Y-85987402D01*
X63050000Y-85987402D01*
X63050000Y-84290462D01*
X87075000Y-84290462D01*
X87075000Y-84868750D01*
X87181250Y-84975000D01*
X88225000Y-84975000D01*
X88225000Y-84056250D01*
X88275000Y-84056250D01*
X88275000Y-84975000D01*
X89318750Y-84975000D01*
X89425000Y-84868750D01*
X89425000Y-84375000D01*
X89566674Y-84375000D01*
X89566674Y-85625000D01*
X89596309Y-85782496D01*
X89689389Y-85927146D01*
X89831412Y-86024186D01*
X90000000Y-86058326D01*
X90000000Y-90750000D01*
X90057090Y-91037013D01*
X90219670Y-91280330D01*
X92817843Y-93878503D01*
X92842604Y-93938429D01*
X93060425Y-94156630D01*
X93345167Y-94274865D01*
X93653481Y-94275134D01*
X93938429Y-94157396D01*
X94156630Y-93939575D01*
X94274865Y-93654833D01*
X94275134Y-93346519D01*
X94157396Y-93061571D01*
X93939575Y-92843370D01*
X93878790Y-92818130D01*
X93398062Y-92337402D01*
X94559771Y-92337402D01*
X94761065Y-92824572D01*
X95133468Y-93197625D01*
X95620285Y-93399769D01*
X96147402Y-93400229D01*
X96634572Y-93198935D01*
X97007625Y-92826532D01*
X97209769Y-92339715D01*
X97209771Y-92337402D01*
X97734771Y-92337402D01*
X97936065Y-92824572D01*
X98308468Y-93197625D01*
X98795285Y-93399769D01*
X99322402Y-93400229D01*
X99809572Y-93198935D01*
X100182625Y-92826532D01*
X100384769Y-92339715D01*
X100385229Y-91812598D01*
X100183935Y-91325428D01*
X99811532Y-90952375D01*
X99324715Y-90750231D01*
X98797598Y-90749771D01*
X98310428Y-90951065D01*
X97937375Y-91323468D01*
X97735231Y-91810285D01*
X97734771Y-92337402D01*
X97209771Y-92337402D01*
X97210229Y-91812598D01*
X97008935Y-91325428D01*
X96636532Y-90952375D01*
X96149715Y-90750231D01*
X95622598Y-90749771D01*
X95135428Y-90951065D01*
X94762375Y-91323468D01*
X94560231Y-91810285D01*
X94559771Y-92337402D01*
X93398062Y-92337402D01*
X91500000Y-90439340D01*
X91500000Y-89381250D01*
X95450000Y-89381250D01*
X95450000Y-90084538D01*
X95514702Y-90240743D01*
X95634257Y-90360298D01*
X95790462Y-90425000D01*
X96368750Y-90425000D01*
X96475000Y-90318750D01*
X96475000Y-89275000D01*
X96525000Y-89275000D01*
X96525000Y-90318750D01*
X96631250Y-90425000D01*
X97209538Y-90425000D01*
X97365743Y-90360298D01*
X97485298Y-90240743D01*
X97500000Y-90205249D01*
X97514702Y-90240743D01*
X97634257Y-90360298D01*
X97790462Y-90425000D01*
X98368750Y-90425000D01*
X98475000Y-90318750D01*
X98475000Y-89275000D01*
X98525000Y-89275000D01*
X98525000Y-90318750D01*
X98631250Y-90425000D01*
X99209538Y-90425000D01*
X99365743Y-90360298D01*
X99485298Y-90240743D01*
X99550000Y-90084538D01*
X99550000Y-89381250D01*
X99443750Y-89275000D01*
X98525000Y-89275000D01*
X98475000Y-89275000D01*
X97556250Y-89275000D01*
X97500000Y-89331250D01*
X97443750Y-89275000D01*
X96525000Y-89275000D01*
X96475000Y-89275000D01*
X95556250Y-89275000D01*
X95450000Y-89381250D01*
X91500000Y-89381250D01*
X91500000Y-88415462D01*
X95450000Y-88415462D01*
X95450000Y-89118750D01*
X95556250Y-89225000D01*
X96475000Y-89225000D01*
X96475000Y-88181250D01*
X96525000Y-88181250D01*
X96525000Y-89225000D01*
X97443750Y-89225000D01*
X97500000Y-89168750D01*
X97556250Y-89225000D01*
X98475000Y-89225000D01*
X98475000Y-88181250D01*
X98525000Y-88181250D01*
X98525000Y-89225000D01*
X99443750Y-89225000D01*
X99550000Y-89118750D01*
X99550000Y-88415462D01*
X99485298Y-88259257D01*
X99365743Y-88139702D01*
X99209538Y-88075000D01*
X98631250Y-88075000D01*
X98525000Y-88181250D01*
X98475000Y-88181250D01*
X98368750Y-88075000D01*
X97790462Y-88075000D01*
X97634257Y-88139702D01*
X97514702Y-88259257D01*
X97500000Y-88294751D01*
X97485298Y-88259257D01*
X97365743Y-88139702D01*
X97209538Y-88075000D01*
X96631250Y-88075000D01*
X96525000Y-88181250D01*
X96475000Y-88181250D01*
X96368750Y-88075000D01*
X95790462Y-88075000D01*
X95634257Y-88139702D01*
X95514702Y-88259257D01*
X95450000Y-88415462D01*
X91500000Y-88415462D01*
X91500000Y-86058326D01*
X91657496Y-86028691D01*
X91702082Y-86000000D01*
X95441674Y-86000000D01*
X95441674Y-87500000D01*
X95471309Y-87657496D01*
X95564389Y-87802146D01*
X95706412Y-87899186D01*
X95875000Y-87933326D01*
X97125000Y-87933326D01*
X97282496Y-87903691D01*
X97427146Y-87810611D01*
X97500630Y-87703063D01*
X97564389Y-87802146D01*
X97706412Y-87899186D01*
X97875000Y-87933326D01*
X99125000Y-87933326D01*
X99282496Y-87903691D01*
X99299666Y-87892642D01*
X130582714Y-87892642D01*
X130671288Y-88102455D01*
X131153988Y-88314241D01*
X131680992Y-88325186D01*
X132172068Y-88133622D01*
X132218712Y-88102455D01*
X132307286Y-87892642D01*
X131445000Y-87030355D01*
X130582714Y-87892642D01*
X99299666Y-87892642D01*
X99427146Y-87810611D01*
X99524186Y-87668588D01*
X99558326Y-87500000D01*
X99558326Y-86000000D01*
X99528691Y-85842504D01*
X99435611Y-85697854D01*
X99399774Y-85673368D01*
X99438429Y-85657396D01*
X99656630Y-85439575D01*
X99774865Y-85154833D01*
X99775134Y-84846519D01*
X99657396Y-84561571D01*
X99439575Y-84343370D01*
X99154833Y-84225135D01*
X98846519Y-84224866D01*
X98561571Y-84342604D01*
X98343370Y-84560425D01*
X98225135Y-84845167D01*
X98225002Y-84997180D01*
X98111091Y-85111091D01*
X97991866Y-85289524D01*
X97950000Y-85500000D01*
X97950000Y-85566674D01*
X97875000Y-85566674D01*
X97717504Y-85596309D01*
X97572854Y-85689389D01*
X97499370Y-85796937D01*
X97435611Y-85697854D01*
X97293588Y-85600814D01*
X97125000Y-85566674D01*
X95875000Y-85566674D01*
X95717504Y-85596309D01*
X95572854Y-85689389D01*
X95475814Y-85831412D01*
X95441674Y-86000000D01*
X91702082Y-86000000D01*
X91802146Y-85935611D01*
X91899186Y-85793588D01*
X91933326Y-85625000D01*
X91933326Y-85550000D01*
X92000000Y-85550000D01*
X92210476Y-85508134D01*
X92388909Y-85388909D01*
X92502815Y-85275003D01*
X92653481Y-85275134D01*
X92938429Y-85157396D01*
X93156630Y-84939575D01*
X93274865Y-84654833D01*
X93275134Y-84346519D01*
X93157396Y-84061571D01*
X92939575Y-83843370D01*
X92654833Y-83725135D01*
X92346519Y-83724866D01*
X92061571Y-83842604D01*
X91843370Y-84060425D01*
X91827385Y-84098921D01*
X91810611Y-84072854D01*
X91668588Y-83975814D01*
X91500000Y-83941674D01*
X90000000Y-83941674D01*
X89842504Y-83971309D01*
X89697854Y-84064389D01*
X89600814Y-84206412D01*
X89566674Y-84375000D01*
X89425000Y-84375000D01*
X89425000Y-84290462D01*
X89360298Y-84134257D01*
X89240743Y-84014702D01*
X89084538Y-83950000D01*
X88381250Y-83950000D01*
X88275000Y-84056250D01*
X88225000Y-84056250D01*
X88118750Y-83950000D01*
X87415462Y-83950000D01*
X87259257Y-84014702D01*
X87139702Y-84134257D01*
X87075000Y-84290462D01*
X63050000Y-84290462D01*
X63050000Y-83653481D01*
X100224866Y-83653481D01*
X100342604Y-83938429D01*
X100560425Y-84156630D01*
X100845167Y-84274865D01*
X101153481Y-84275134D01*
X101438429Y-84157396D01*
X101546012Y-84050000D01*
X101566674Y-84050000D01*
X101566674Y-84625000D01*
X101596309Y-84782496D01*
X101689389Y-84927146D01*
X101831412Y-85024186D01*
X102000000Y-85058326D01*
X102200000Y-85058326D01*
X102200000Y-85195674D01*
X102000000Y-85195674D01*
X101842504Y-85225309D01*
X101697854Y-85318389D01*
X101600814Y-85460412D01*
X101566674Y-85629000D01*
X101566674Y-86879000D01*
X101596309Y-87036496D01*
X101689389Y-87181146D01*
X101831412Y-87278186D01*
X102000000Y-87312326D01*
X103500000Y-87312326D01*
X103657496Y-87282691D01*
X103802146Y-87189611D01*
X103899186Y-87047588D01*
X103933326Y-86879000D01*
X103933326Y-86385250D01*
X104075000Y-86385250D01*
X104075000Y-86963538D01*
X104139702Y-87119743D01*
X104259257Y-87239298D01*
X104415462Y-87304000D01*
X105118750Y-87304000D01*
X105225000Y-87197750D01*
X105225000Y-86279000D01*
X105275000Y-86279000D01*
X105275000Y-87197750D01*
X105381250Y-87304000D01*
X106084538Y-87304000D01*
X106240743Y-87239298D01*
X106249049Y-87230992D01*
X130114814Y-87230992D01*
X130306378Y-87722068D01*
X130337545Y-87768712D01*
X130547358Y-87857286D01*
X131409645Y-86995000D01*
X130547358Y-86132714D01*
X130337545Y-86221288D01*
X130125759Y-86703988D01*
X130114814Y-87230992D01*
X106249049Y-87230992D01*
X106360298Y-87119743D01*
X106425000Y-86963538D01*
X106425000Y-86385250D01*
X106318750Y-86279000D01*
X105275000Y-86279000D01*
X105225000Y-86279000D01*
X104181250Y-86279000D01*
X104075000Y-86385250D01*
X103933326Y-86385250D01*
X103933326Y-85629000D01*
X103917420Y-85544462D01*
X104075000Y-85544462D01*
X104075000Y-86122750D01*
X104181250Y-86229000D01*
X105225000Y-86229000D01*
X105225000Y-85310250D01*
X105275000Y-85310250D01*
X105275000Y-86229000D01*
X106318750Y-86229000D01*
X106425000Y-86122750D01*
X106425000Y-85544462D01*
X106360298Y-85388257D01*
X106324683Y-85352642D01*
X130582714Y-85352642D01*
X130671288Y-85562455D01*
X131047859Y-85727677D01*
X130717932Y-85856378D01*
X130671288Y-85887545D01*
X130582714Y-86097358D01*
X131445000Y-86959645D01*
X132307286Y-86097358D01*
X132218712Y-85887545D01*
X131842141Y-85722323D01*
X132172068Y-85593622D01*
X132218712Y-85562455D01*
X132307286Y-85352642D01*
X131445000Y-84490355D01*
X130582714Y-85352642D01*
X106324683Y-85352642D01*
X106240743Y-85268702D01*
X106084538Y-85204000D01*
X105381250Y-85204000D01*
X105275000Y-85310250D01*
X105225000Y-85310250D01*
X105118750Y-85204000D01*
X104415462Y-85204000D01*
X104259257Y-85268702D01*
X104139702Y-85388257D01*
X104075000Y-85544462D01*
X103917420Y-85544462D01*
X103903691Y-85471504D01*
X103810611Y-85326854D01*
X103668588Y-85229814D01*
X103500000Y-85195674D01*
X103300000Y-85195674D01*
X103300000Y-85058326D01*
X103500000Y-85058326D01*
X103657496Y-85028691D01*
X103802146Y-84935611D01*
X103899186Y-84793588D01*
X103933326Y-84625000D01*
X103933326Y-84131250D01*
X104075000Y-84131250D01*
X104075000Y-84709538D01*
X104139702Y-84865743D01*
X104259257Y-84985298D01*
X104415462Y-85050000D01*
X105118750Y-85050000D01*
X105225000Y-84943750D01*
X105225000Y-84025000D01*
X105275000Y-84025000D01*
X105275000Y-84943750D01*
X105381250Y-85050000D01*
X106084538Y-85050000D01*
X106240743Y-84985298D01*
X106360298Y-84865743D01*
X106425000Y-84709538D01*
X106425000Y-84690992D01*
X130114814Y-84690992D01*
X130306378Y-85182068D01*
X130337545Y-85228712D01*
X130547358Y-85317286D01*
X131409645Y-84455000D01*
X130547358Y-83592714D01*
X130337545Y-83681288D01*
X130125759Y-84163988D01*
X130114814Y-84690992D01*
X106425000Y-84690992D01*
X106425000Y-84131250D01*
X106318750Y-84025000D01*
X105275000Y-84025000D01*
X105225000Y-84025000D01*
X104181250Y-84025000D01*
X104075000Y-84131250D01*
X103933326Y-84131250D01*
X103933326Y-83375000D01*
X103917420Y-83290462D01*
X104075000Y-83290462D01*
X104075000Y-83868750D01*
X104181250Y-83975000D01*
X105225000Y-83975000D01*
X105225000Y-83056250D01*
X105275000Y-83056250D01*
X105275000Y-83975000D01*
X106318750Y-83975000D01*
X106425000Y-83868750D01*
X106425000Y-83290462D01*
X106360298Y-83134257D01*
X106240743Y-83014702D01*
X106084538Y-82950000D01*
X105381250Y-82950000D01*
X105275000Y-83056250D01*
X105225000Y-83056250D01*
X105118750Y-82950000D01*
X104415462Y-82950000D01*
X104259257Y-83014702D01*
X104139702Y-83134257D01*
X104075000Y-83290462D01*
X103917420Y-83290462D01*
X103903691Y-83217504D01*
X103810611Y-83072854D01*
X103668588Y-82975814D01*
X103500000Y-82941674D01*
X102000000Y-82941674D01*
X101955751Y-82950000D01*
X101546019Y-82950000D01*
X101439575Y-82843370D01*
X101364996Y-82812402D01*
X114879771Y-82812402D01*
X115081065Y-83299572D01*
X115453468Y-83672625D01*
X115940285Y-83874769D01*
X116467402Y-83875229D01*
X116954572Y-83673935D01*
X117327625Y-83301532D01*
X117475113Y-82946341D01*
X117621065Y-83299572D01*
X117993468Y-83672625D01*
X118480285Y-83874769D01*
X119007402Y-83875229D01*
X119494572Y-83673935D01*
X119721259Y-83447642D01*
X120422714Y-83447642D01*
X120511288Y-83657455D01*
X120993988Y-83869241D01*
X121520992Y-83880186D01*
X122012068Y-83688622D01*
X122058712Y-83657455D01*
X122147286Y-83447642D01*
X121285000Y-82585355D01*
X120422714Y-83447642D01*
X119721259Y-83447642D01*
X119867625Y-83301532D01*
X120016274Y-82943545D01*
X120146378Y-83277068D01*
X120177545Y-83323712D01*
X120387358Y-83412286D01*
X121249645Y-82550000D01*
X121320355Y-82550000D01*
X122182642Y-83412286D01*
X122392455Y-83323712D01*
X122604241Y-82841012D01*
X122604830Y-82812642D01*
X130582714Y-82812642D01*
X130671288Y-83022455D01*
X131047859Y-83187677D01*
X130717932Y-83316378D01*
X130671288Y-83347545D01*
X130582714Y-83557358D01*
X131445000Y-84419645D01*
X132307286Y-83557358D01*
X132218712Y-83347545D01*
X131842141Y-83182323D01*
X132172068Y-83053622D01*
X132218712Y-83022455D01*
X132307286Y-82812642D01*
X131445000Y-81950355D01*
X130582714Y-82812642D01*
X122604830Y-82812642D01*
X122615186Y-82314008D01*
X122551596Y-82150992D01*
X130114814Y-82150992D01*
X130306378Y-82642068D01*
X130337545Y-82688712D01*
X130547358Y-82777286D01*
X131409645Y-81915000D01*
X130547358Y-81052714D01*
X130337545Y-81141288D01*
X130125759Y-81623988D01*
X130114814Y-82150992D01*
X122551596Y-82150992D01*
X122423622Y-81822932D01*
X122392455Y-81776288D01*
X122182642Y-81687714D01*
X121320355Y-82550000D01*
X121249645Y-82550000D01*
X120387358Y-81687714D01*
X120177545Y-81776288D01*
X120013473Y-82150238D01*
X119868935Y-81800428D01*
X119721123Y-81652358D01*
X120422714Y-81652358D01*
X121285000Y-82514645D01*
X122147286Y-81652358D01*
X122058712Y-81442545D01*
X121576012Y-81230759D01*
X121049008Y-81219814D01*
X120557932Y-81411378D01*
X120511288Y-81442545D01*
X120422714Y-81652358D01*
X119721123Y-81652358D01*
X119496532Y-81427375D01*
X119009715Y-81225231D01*
X118482598Y-81224771D01*
X117995428Y-81426065D01*
X117622375Y-81798468D01*
X117474887Y-82153659D01*
X117328935Y-81800428D01*
X116956532Y-81427375D01*
X116469715Y-81225231D01*
X115942598Y-81224771D01*
X115455428Y-81426065D01*
X115082375Y-81798468D01*
X114880231Y-82285285D01*
X114879771Y-82812402D01*
X101364996Y-82812402D01*
X101154833Y-82725135D01*
X100846519Y-82724866D01*
X100561571Y-82842604D01*
X100343370Y-83060425D01*
X100225135Y-83345167D01*
X100224866Y-83653481D01*
X63050000Y-83653481D01*
X63050000Y-82631250D01*
X86975000Y-82631250D01*
X86975000Y-83234538D01*
X87039702Y-83390743D01*
X87159257Y-83510298D01*
X87315462Y-83575000D01*
X88018750Y-83575000D01*
X88125000Y-83468750D01*
X88125000Y-82525000D01*
X88175000Y-82525000D01*
X88175000Y-83468750D01*
X88281250Y-83575000D01*
X88984538Y-83575000D01*
X89140743Y-83510298D01*
X89260298Y-83390743D01*
X89325000Y-83234538D01*
X89325000Y-82631250D01*
X89218750Y-82525000D01*
X88175000Y-82525000D01*
X88125000Y-82525000D01*
X87081250Y-82525000D01*
X86975000Y-82631250D01*
X63050000Y-82631250D01*
X63050000Y-81765462D01*
X86975000Y-81765462D01*
X86975000Y-82368750D01*
X87081250Y-82475000D01*
X88125000Y-82475000D01*
X88125000Y-81531250D01*
X88175000Y-81531250D01*
X88175000Y-82475000D01*
X89218750Y-82475000D01*
X89325000Y-82368750D01*
X89325000Y-81850000D01*
X89666674Y-81850000D01*
X89666674Y-83150000D01*
X89696309Y-83307496D01*
X89789389Y-83452146D01*
X89931412Y-83549186D01*
X90100000Y-83583326D01*
X91600000Y-83583326D01*
X91757496Y-83553691D01*
X91902146Y-83460611D01*
X91999186Y-83318588D01*
X92033326Y-83150000D01*
X92033326Y-83129484D01*
X92060425Y-83156630D01*
X92345167Y-83274865D01*
X92653481Y-83275134D01*
X92938429Y-83157396D01*
X93156630Y-82939575D01*
X93274865Y-82654833D01*
X93275134Y-82346519D01*
X93157396Y-82061571D01*
X92939575Y-81843370D01*
X92654833Y-81725135D01*
X92346519Y-81724866D01*
X92061571Y-81842604D01*
X92033326Y-81870800D01*
X92033326Y-81850000D01*
X92003691Y-81692504D01*
X91910611Y-81547854D01*
X91768588Y-81450814D01*
X91600000Y-81416674D01*
X90100000Y-81416674D01*
X89942504Y-81446309D01*
X89797854Y-81539389D01*
X89700814Y-81681412D01*
X89666674Y-81850000D01*
X89325000Y-81850000D01*
X89325000Y-81765462D01*
X89260298Y-81609257D01*
X89140743Y-81489702D01*
X88984538Y-81425000D01*
X88281250Y-81425000D01*
X88175000Y-81531250D01*
X88125000Y-81531250D01*
X88018750Y-81425000D01*
X87315462Y-81425000D01*
X87159257Y-81489702D01*
X87039702Y-81609257D01*
X86975000Y-81765462D01*
X63050000Y-81765462D01*
X63050000Y-80272642D01*
X130582714Y-80272642D01*
X130671288Y-80482455D01*
X131047859Y-80647677D01*
X130717932Y-80776378D01*
X130671288Y-80807545D01*
X130582714Y-81017358D01*
X131445000Y-81879645D01*
X132307286Y-81017358D01*
X132218712Y-80807545D01*
X131842141Y-80642323D01*
X132172068Y-80513622D01*
X132218712Y-80482455D01*
X132307286Y-80272642D01*
X131445000Y-79410355D01*
X130582714Y-80272642D01*
X63050000Y-80272642D01*
X63050000Y-79610992D01*
X130114814Y-79610992D01*
X130306378Y-80102068D01*
X130337545Y-80148712D01*
X130547358Y-80237286D01*
X131409645Y-79375000D01*
X130547358Y-78512714D01*
X130337545Y-78601288D01*
X130125759Y-79083988D01*
X130114814Y-79610992D01*
X63050000Y-79610992D01*
X63050000Y-78153481D01*
X64224866Y-78153481D01*
X64342604Y-78438429D01*
X64560425Y-78656630D01*
X64845167Y-78774865D01*
X65153481Y-78775134D01*
X65438429Y-78657396D01*
X65656630Y-78439575D01*
X65774865Y-78154833D01*
X65774998Y-78002820D01*
X69002815Y-74775003D01*
X69153481Y-74775134D01*
X69275078Y-74724891D01*
X69225135Y-74845167D01*
X69225002Y-74997181D01*
X66497185Y-77724997D01*
X66346519Y-77724866D01*
X66061571Y-77842604D01*
X65843370Y-78060425D01*
X65725135Y-78345167D01*
X65724866Y-78653481D01*
X65842604Y-78938429D01*
X66060425Y-79156630D01*
X66345167Y-79274865D01*
X66653481Y-79275134D01*
X66938429Y-79157396D01*
X67156630Y-78939575D01*
X67274865Y-78654833D01*
X67274998Y-78502820D01*
X67410416Y-78367402D01*
X71064771Y-78367402D01*
X71266065Y-78854572D01*
X71638468Y-79227625D01*
X72125285Y-79429769D01*
X72652402Y-79430229D01*
X73139572Y-79228935D01*
X73512625Y-78856532D01*
X73660113Y-78501341D01*
X73806065Y-78854572D01*
X74178468Y-79227625D01*
X74665285Y-79429769D01*
X75192402Y-79430229D01*
X75679572Y-79228935D01*
X76052625Y-78856532D01*
X76200113Y-78501341D01*
X76346065Y-78854572D01*
X76718468Y-79227625D01*
X77205285Y-79429769D01*
X77732402Y-79430229D01*
X78219572Y-79228935D01*
X78592625Y-78856532D01*
X78794769Y-78369715D01*
X78795229Y-77842598D01*
X78593935Y-77355428D01*
X78221532Y-76982375D01*
X77734715Y-76780231D01*
X77207598Y-76779771D01*
X76720428Y-76981065D01*
X76347375Y-77353468D01*
X76199887Y-77708659D01*
X76053935Y-77355428D01*
X75681532Y-76982375D01*
X75194715Y-76780231D01*
X74667598Y-76779771D01*
X74180428Y-76981065D01*
X73807375Y-77353468D01*
X73659887Y-77708659D01*
X73513935Y-77355428D01*
X73141532Y-76982375D01*
X72654715Y-76780231D01*
X72127598Y-76779771D01*
X71640428Y-76981065D01*
X71267375Y-77353468D01*
X71065231Y-77840285D01*
X71064771Y-78367402D01*
X67410416Y-78367402D01*
X70002815Y-75775003D01*
X70153481Y-75775134D01*
X70438429Y-75657396D01*
X70656630Y-75439575D01*
X70774865Y-75154833D01*
X70775134Y-74846519D01*
X70657396Y-74561571D01*
X70439575Y-74343370D01*
X70154833Y-74225135D01*
X69846519Y-74224866D01*
X69724922Y-74275109D01*
X69774865Y-74154833D01*
X69775000Y-74000000D01*
X91441674Y-74000000D01*
X91441674Y-75500000D01*
X91471309Y-75657496D01*
X91564389Y-75802146D01*
X91706412Y-75899186D01*
X91875000Y-75933326D01*
X91950000Y-75933326D01*
X91950000Y-75953981D01*
X91843370Y-76060425D01*
X91725135Y-76345167D01*
X91724866Y-76653481D01*
X91842604Y-76938429D01*
X92060425Y-77156630D01*
X92345167Y-77274865D01*
X92653481Y-77275134D01*
X92938429Y-77157396D01*
X92942350Y-77153481D01*
X100224866Y-77153481D01*
X100342604Y-77438429D01*
X100403984Y-77499916D01*
X100343370Y-77560425D01*
X100225135Y-77845167D01*
X100224866Y-78153481D01*
X100342604Y-78438429D01*
X100560425Y-78656630D01*
X100845167Y-78774865D01*
X101153481Y-78775134D01*
X101438429Y-78657396D01*
X101546012Y-78550000D01*
X101566674Y-78550000D01*
X101566674Y-78625000D01*
X101596309Y-78782496D01*
X101689389Y-78927146D01*
X101831412Y-79024186D01*
X102000000Y-79058326D01*
X103500000Y-79058326D01*
X103657496Y-79028691D01*
X103802146Y-78935611D01*
X103899186Y-78793588D01*
X103933326Y-78625000D01*
X103933326Y-78131250D01*
X104075000Y-78131250D01*
X104075000Y-78709538D01*
X104139702Y-78865743D01*
X104259257Y-78985298D01*
X104415462Y-79050000D01*
X105118750Y-79050000D01*
X105225000Y-78943750D01*
X105225000Y-78025000D01*
X105275000Y-78025000D01*
X105275000Y-78943750D01*
X105381250Y-79050000D01*
X106084538Y-79050000D01*
X106240743Y-78985298D01*
X106360298Y-78865743D01*
X106425000Y-78709538D01*
X106425000Y-78131250D01*
X106318750Y-78025000D01*
X105275000Y-78025000D01*
X105225000Y-78025000D01*
X104181250Y-78025000D01*
X104075000Y-78131250D01*
X103933326Y-78131250D01*
X103933326Y-77375000D01*
X103917420Y-77290462D01*
X104075000Y-77290462D01*
X104075000Y-77868750D01*
X104181250Y-77975000D01*
X105225000Y-77975000D01*
X105225000Y-77056250D01*
X105275000Y-77056250D01*
X105275000Y-77975000D01*
X106318750Y-77975000D01*
X106425000Y-77868750D01*
X106425000Y-77732642D01*
X130582714Y-77732642D01*
X130671288Y-77942455D01*
X131047859Y-78107677D01*
X130717932Y-78236378D01*
X130671288Y-78267545D01*
X130582714Y-78477358D01*
X131445000Y-79339645D01*
X132307286Y-78477358D01*
X132218712Y-78267545D01*
X131842141Y-78102323D01*
X132172068Y-77973622D01*
X132218712Y-77942455D01*
X132307286Y-77732642D01*
X131445000Y-76870355D01*
X130582714Y-77732642D01*
X106425000Y-77732642D01*
X106425000Y-77290462D01*
X106360298Y-77134257D01*
X106297033Y-77070992D01*
X130114814Y-77070992D01*
X130306378Y-77562068D01*
X130337545Y-77608712D01*
X130547358Y-77697286D01*
X131409645Y-76835000D01*
X130547358Y-75972714D01*
X130337545Y-76061288D01*
X130125759Y-76543988D01*
X130114814Y-77070992D01*
X106297033Y-77070992D01*
X106240743Y-77014702D01*
X106084538Y-76950000D01*
X105381250Y-76950000D01*
X105275000Y-77056250D01*
X105225000Y-77056250D01*
X105118750Y-76950000D01*
X104415462Y-76950000D01*
X104259257Y-77014702D01*
X104139702Y-77134257D01*
X104075000Y-77290462D01*
X103917420Y-77290462D01*
X103903691Y-77217504D01*
X103810611Y-77072854D01*
X103668588Y-76975814D01*
X103500000Y-76941674D01*
X102000000Y-76941674D01*
X101842504Y-76971309D01*
X101774987Y-77014755D01*
X101774998Y-77002820D01*
X101974630Y-76803188D01*
X102000000Y-76808326D01*
X103500000Y-76808326D01*
X103657496Y-76778691D01*
X103802146Y-76685611D01*
X103899186Y-76543588D01*
X103933326Y-76375000D01*
X103933326Y-75881250D01*
X104075000Y-75881250D01*
X104075000Y-76459538D01*
X104139702Y-76615743D01*
X104259257Y-76735298D01*
X104415462Y-76800000D01*
X105118750Y-76800000D01*
X105225000Y-76693750D01*
X105225000Y-75775000D01*
X105275000Y-75775000D01*
X105275000Y-76693750D01*
X105381250Y-76800000D01*
X106084538Y-76800000D01*
X106240743Y-76735298D01*
X106360298Y-76615743D01*
X106425000Y-76459538D01*
X106425000Y-75881250D01*
X106318750Y-75775000D01*
X105275000Y-75775000D01*
X105225000Y-75775000D01*
X104181250Y-75775000D01*
X104075000Y-75881250D01*
X103933326Y-75881250D01*
X103933326Y-75125000D01*
X103917420Y-75040462D01*
X104075000Y-75040462D01*
X104075000Y-75618750D01*
X104181250Y-75725000D01*
X105225000Y-75725000D01*
X105225000Y-74806250D01*
X105275000Y-74806250D01*
X105275000Y-75725000D01*
X106318750Y-75725000D01*
X106425000Y-75618750D01*
X106425000Y-75192642D01*
X130582714Y-75192642D01*
X130671288Y-75402455D01*
X131047859Y-75567677D01*
X130717932Y-75696378D01*
X130671288Y-75727545D01*
X130582714Y-75937358D01*
X131445000Y-76799645D01*
X132307286Y-75937358D01*
X132218712Y-75727545D01*
X131842141Y-75562323D01*
X132172068Y-75433622D01*
X132218712Y-75402455D01*
X132307286Y-75192642D01*
X131445000Y-74330355D01*
X130582714Y-75192642D01*
X106425000Y-75192642D01*
X106425000Y-75040462D01*
X106360298Y-74884257D01*
X106240743Y-74764702D01*
X106084538Y-74700000D01*
X105381250Y-74700000D01*
X105275000Y-74806250D01*
X105225000Y-74806250D01*
X105118750Y-74700000D01*
X104415462Y-74700000D01*
X104259257Y-74764702D01*
X104139702Y-74884257D01*
X104075000Y-75040462D01*
X103917420Y-75040462D01*
X103903691Y-74967504D01*
X103810611Y-74822854D01*
X103668588Y-74725814D01*
X103500000Y-74691674D01*
X103500000Y-74530992D01*
X130114814Y-74530992D01*
X130306378Y-75022068D01*
X130337545Y-75068712D01*
X130547358Y-75157286D01*
X131409645Y-74295000D01*
X131480355Y-74295000D01*
X132342642Y-75157286D01*
X132552455Y-75068712D01*
X132716527Y-74694762D01*
X132861065Y-75044572D01*
X133233468Y-75417625D01*
X133588659Y-75565113D01*
X133235428Y-75711065D01*
X132862375Y-76083468D01*
X132713726Y-76441455D01*
X132583622Y-76107932D01*
X132552455Y-76061288D01*
X132342642Y-75972714D01*
X131480355Y-76835000D01*
X132342642Y-77697286D01*
X132552455Y-77608712D01*
X132716527Y-77234762D01*
X132861065Y-77584572D01*
X133233468Y-77957625D01*
X133588659Y-78105113D01*
X133235428Y-78251065D01*
X132862375Y-78623468D01*
X132713726Y-78981455D01*
X132583622Y-78647932D01*
X132552455Y-78601288D01*
X132342642Y-78512714D01*
X131480355Y-79375000D01*
X132342642Y-80237286D01*
X132552455Y-80148712D01*
X132716527Y-79774762D01*
X132861065Y-80124572D01*
X133233468Y-80497625D01*
X133588659Y-80645113D01*
X133235428Y-80791065D01*
X132862375Y-81163468D01*
X132713726Y-81521455D01*
X132583622Y-81187932D01*
X132552455Y-81141288D01*
X132342642Y-81052714D01*
X131480355Y-81915000D01*
X132342642Y-82777286D01*
X132552455Y-82688712D01*
X132716527Y-82314762D01*
X132861065Y-82664572D01*
X133233468Y-83037625D01*
X133588659Y-83185113D01*
X133235428Y-83331065D01*
X132862375Y-83703468D01*
X132713726Y-84061455D01*
X132583622Y-83727932D01*
X132552455Y-83681288D01*
X132342642Y-83592714D01*
X131480355Y-84455000D01*
X132342642Y-85317286D01*
X132552455Y-85228712D01*
X132716527Y-84854762D01*
X132861065Y-85204572D01*
X133233468Y-85577625D01*
X133588659Y-85725113D01*
X133235428Y-85871065D01*
X132862375Y-86243468D01*
X132713726Y-86601455D01*
X132583622Y-86267932D01*
X132552455Y-86221288D01*
X132342642Y-86132714D01*
X131480355Y-86995000D01*
X132342642Y-87857286D01*
X132552455Y-87768712D01*
X132716527Y-87394762D01*
X132861065Y-87744572D01*
X133233468Y-88117625D01*
X133720285Y-88319769D01*
X134247402Y-88320229D01*
X134734572Y-88118935D01*
X135107625Y-87746532D01*
X135309769Y-87259715D01*
X135310229Y-86732598D01*
X135108935Y-86245428D01*
X134736532Y-85872375D01*
X134381341Y-85724887D01*
X134734572Y-85578935D01*
X135107625Y-85206532D01*
X135309769Y-84719715D01*
X135310229Y-84192598D01*
X135108935Y-83705428D01*
X134736532Y-83332375D01*
X134381341Y-83184887D01*
X134734572Y-83038935D01*
X135107625Y-82666532D01*
X135309769Y-82179715D01*
X135310229Y-81652598D01*
X135108935Y-81165428D01*
X134736532Y-80792375D01*
X134381341Y-80644887D01*
X134734572Y-80498935D01*
X135107625Y-80126532D01*
X135309769Y-79639715D01*
X135310229Y-79112598D01*
X135108935Y-78625428D01*
X134736532Y-78252375D01*
X134381341Y-78104887D01*
X134734572Y-77958935D01*
X135107625Y-77586532D01*
X135309769Y-77099715D01*
X135310229Y-76572598D01*
X135108935Y-76085428D01*
X134736532Y-75712375D01*
X134381341Y-75564887D01*
X134734572Y-75418935D01*
X135107625Y-75046532D01*
X135309769Y-74559715D01*
X135310229Y-74032598D01*
X135108935Y-73545428D01*
X134736532Y-73172375D01*
X134249715Y-72970231D01*
X133722598Y-72969771D01*
X133235428Y-73171065D01*
X132862375Y-73543468D01*
X132713726Y-73901455D01*
X132583622Y-73567932D01*
X132552455Y-73521288D01*
X132342642Y-73432714D01*
X131480355Y-74295000D01*
X131409645Y-74295000D01*
X130547358Y-73432714D01*
X130337545Y-73521288D01*
X130125759Y-74003988D01*
X130114814Y-74530992D01*
X103500000Y-74530992D01*
X103500000Y-74302000D01*
X103442910Y-74014987D01*
X103280330Y-73771670D01*
X103171157Y-73662497D01*
X103146396Y-73602571D01*
X102941541Y-73397358D01*
X130582714Y-73397358D01*
X131445000Y-74259645D01*
X132307286Y-73397358D01*
X132218712Y-73187545D01*
X131736012Y-72975759D01*
X131209008Y-72964814D01*
X130717932Y-73156378D01*
X130671288Y-73187545D01*
X130582714Y-73397358D01*
X102941541Y-73397358D01*
X102928575Y-73384370D01*
X102643833Y-73266135D01*
X102335519Y-73265866D01*
X102050571Y-73383604D01*
X101832370Y-73601425D01*
X101714135Y-73886167D01*
X101713866Y-74194481D01*
X101831604Y-74479429D01*
X102000000Y-74648119D01*
X102000000Y-74691674D01*
X101842504Y-74721309D01*
X101697854Y-74814389D01*
X101600814Y-74956412D01*
X101566674Y-75125000D01*
X101566674Y-75736466D01*
X101539524Y-75741866D01*
X101361091Y-75861091D01*
X100997185Y-76224997D01*
X100846519Y-76224866D01*
X100561571Y-76342604D01*
X100343370Y-76560425D01*
X100225135Y-76845167D01*
X100224866Y-77153481D01*
X92942350Y-77153481D01*
X93156630Y-76939575D01*
X93274865Y-76654833D01*
X93275134Y-76346519D01*
X93157396Y-76061571D01*
X93050000Y-75953988D01*
X93050000Y-75933326D01*
X93125000Y-75933326D01*
X93282496Y-75903691D01*
X93427146Y-75810611D01*
X93524186Y-75668588D01*
X93558326Y-75500000D01*
X93558326Y-74000000D01*
X93528691Y-73842504D01*
X93435611Y-73697854D01*
X93293588Y-73600814D01*
X93125000Y-73566674D01*
X91875000Y-73566674D01*
X91717504Y-73596309D01*
X91572854Y-73689389D01*
X91475814Y-73831412D01*
X91441674Y-74000000D01*
X69775000Y-74000000D01*
X69775134Y-73846519D01*
X69657396Y-73561571D01*
X69439575Y-73343370D01*
X69154833Y-73225135D01*
X68846519Y-73224866D01*
X68561571Y-73342604D01*
X68343370Y-73560425D01*
X68225135Y-73845167D01*
X68225002Y-73997180D01*
X64997185Y-77224997D01*
X64846519Y-77224866D01*
X64561571Y-77342604D01*
X64343370Y-77560425D01*
X64225135Y-77845167D01*
X64224866Y-78153481D01*
X63050000Y-78153481D01*
X63050000Y-78046019D01*
X63156630Y-77939575D01*
X63274865Y-77654833D01*
X63275134Y-77346519D01*
X63157396Y-77061571D01*
X62939575Y-76843370D01*
X62654833Y-76725135D01*
X62346519Y-76724866D01*
X62272000Y-76755657D01*
X62272000Y-76111019D01*
X62378630Y-76004575D01*
X62496865Y-75719833D01*
X62497134Y-75411519D01*
X62379396Y-75126571D01*
X62161575Y-74908370D01*
X61876833Y-74790135D01*
X61568519Y-74789866D01*
X61283571Y-74907604D01*
X61065370Y-75125425D01*
X60947135Y-75410167D01*
X60946866Y-75718481D01*
X61064604Y-76003429D01*
X61172000Y-76111012D01*
X61172000Y-94260182D01*
X59920570Y-95511612D01*
X59806532Y-95397375D01*
X59451341Y-95249887D01*
X59804572Y-95103935D01*
X60177625Y-94731532D01*
X60379769Y-94244715D01*
X60380229Y-93717598D01*
X60178935Y-93230428D01*
X59806532Y-92857375D01*
X59319715Y-92655231D01*
X58792598Y-92654771D01*
X58305428Y-92856065D01*
X57932375Y-93228468D01*
X57783726Y-93586455D01*
X57653622Y-93252932D01*
X57622455Y-93206288D01*
X57412642Y-93117714D01*
X56550355Y-93980000D01*
X56479645Y-93980000D01*
X55617358Y-93117714D01*
X55407545Y-93206288D01*
X55195759Y-93688988D01*
X55184814Y-94215992D01*
X53465000Y-94215992D01*
X53465000Y-93082358D01*
X55652714Y-93082358D01*
X56515000Y-93944645D01*
X57377286Y-93082358D01*
X57288712Y-92872545D01*
X56806012Y-92660759D01*
X56279008Y-92649814D01*
X55787932Y-92841378D01*
X55741288Y-92872545D01*
X55652714Y-93082358D01*
X53465000Y-93082358D01*
X53465000Y-82812642D01*
X55652714Y-82812642D01*
X55741288Y-83022455D01*
X56223988Y-83234241D01*
X56750992Y-83245186D01*
X57242068Y-83053622D01*
X57288712Y-83022455D01*
X57377286Y-82812642D01*
X56515000Y-81950355D01*
X55652714Y-82812642D01*
X53465000Y-82812642D01*
X53465000Y-82150992D01*
X55184814Y-82150992D01*
X55376378Y-82642068D01*
X55407545Y-82688712D01*
X55617358Y-82777286D01*
X56479645Y-81915000D01*
X55617358Y-81052714D01*
X55407545Y-81141288D01*
X55195759Y-81623988D01*
X55184814Y-82150992D01*
X53465000Y-82150992D01*
X53465000Y-80272642D01*
X55652714Y-80272642D01*
X55741288Y-80482455D01*
X56117859Y-80647677D01*
X55787932Y-80776378D01*
X55741288Y-80807545D01*
X55652714Y-81017358D01*
X56515000Y-81879645D01*
X57377286Y-81017358D01*
X57288712Y-80807545D01*
X56912141Y-80642323D01*
X57242068Y-80513622D01*
X57288712Y-80482455D01*
X57377286Y-80272642D01*
X56515000Y-79410355D01*
X55652714Y-80272642D01*
X53465000Y-80272642D01*
X53465000Y-79610992D01*
X55184814Y-79610992D01*
X55376378Y-80102068D01*
X55407545Y-80148712D01*
X55617358Y-80237286D01*
X56479645Y-79375000D01*
X55617358Y-78512714D01*
X55407545Y-78601288D01*
X55195759Y-79083988D01*
X55184814Y-79610992D01*
X53465000Y-79610992D01*
X53465000Y-77732642D01*
X55652714Y-77732642D01*
X55741288Y-77942455D01*
X56117859Y-78107677D01*
X55787932Y-78236378D01*
X55741288Y-78267545D01*
X55652714Y-78477358D01*
X56515000Y-79339645D01*
X57377286Y-78477358D01*
X57288712Y-78267545D01*
X56912141Y-78102323D01*
X57242068Y-77973622D01*
X57288712Y-77942455D01*
X57377286Y-77732642D01*
X56515000Y-76870355D01*
X55652714Y-77732642D01*
X53465000Y-77732642D01*
X53465000Y-77070992D01*
X55184814Y-77070992D01*
X55376378Y-77562068D01*
X55407545Y-77608712D01*
X55617358Y-77697286D01*
X56479645Y-76835000D01*
X55617358Y-75972714D01*
X55407545Y-76061288D01*
X55195759Y-76543988D01*
X55184814Y-77070992D01*
X53465000Y-77070992D01*
X53465000Y-75192642D01*
X55652714Y-75192642D01*
X55741288Y-75402455D01*
X56117859Y-75567677D01*
X55787932Y-75696378D01*
X55741288Y-75727545D01*
X55652714Y-75937358D01*
X56515000Y-76799645D01*
X57377286Y-75937358D01*
X57288712Y-75727545D01*
X56912141Y-75562323D01*
X57242068Y-75433622D01*
X57288712Y-75402455D01*
X57377286Y-75192642D01*
X56515000Y-74330355D01*
X55652714Y-75192642D01*
X53465000Y-75192642D01*
X53465000Y-74530992D01*
X55184814Y-74530992D01*
X55376378Y-75022068D01*
X55407545Y-75068712D01*
X55617358Y-75157286D01*
X56479645Y-74295000D01*
X55617358Y-73432714D01*
X55407545Y-73521288D01*
X55195759Y-74003988D01*
X55184814Y-74530992D01*
X53465000Y-74530992D01*
X53465000Y-72652642D01*
X55652714Y-72652642D01*
X55741288Y-72862455D01*
X56117859Y-73027677D01*
X55787932Y-73156378D01*
X55741288Y-73187545D01*
X55652714Y-73397358D01*
X56515000Y-74259645D01*
X57377286Y-73397358D01*
X57288712Y-73187545D01*
X56912141Y-73022323D01*
X57242068Y-72893622D01*
X57288712Y-72862455D01*
X57377286Y-72652642D01*
X56515000Y-71790355D01*
X55652714Y-72652642D01*
X53465000Y-72652642D01*
X53465000Y-71990992D01*
X55184814Y-71990992D01*
X55376378Y-72482068D01*
X55407545Y-72528712D01*
X55617358Y-72617286D01*
X56479645Y-71755000D01*
X56550355Y-71755000D01*
X57412642Y-72617286D01*
X57622455Y-72528712D01*
X57786527Y-72154762D01*
X57931065Y-72504572D01*
X58303468Y-72877625D01*
X58658659Y-73025113D01*
X58305428Y-73171065D01*
X57932375Y-73543468D01*
X57783726Y-73901455D01*
X57653622Y-73567932D01*
X57622455Y-73521288D01*
X57412642Y-73432714D01*
X56550355Y-74295000D01*
X57412642Y-75157286D01*
X57622455Y-75068712D01*
X57786527Y-74694762D01*
X57931065Y-75044572D01*
X58303468Y-75417625D01*
X58658659Y-75565113D01*
X58305428Y-75711065D01*
X57932375Y-76083468D01*
X57783726Y-76441455D01*
X57653622Y-76107932D01*
X57622455Y-76061288D01*
X57412642Y-75972714D01*
X56550355Y-76835000D01*
X57412642Y-77697286D01*
X57622455Y-77608712D01*
X57786527Y-77234762D01*
X57931065Y-77584572D01*
X58303468Y-77957625D01*
X58658659Y-78105113D01*
X58305428Y-78251065D01*
X57932375Y-78623468D01*
X57783726Y-78981455D01*
X57653622Y-78647932D01*
X57622455Y-78601288D01*
X57412642Y-78512714D01*
X56550355Y-79375000D01*
X57412642Y-80237286D01*
X57622455Y-80148712D01*
X57786527Y-79774762D01*
X57931065Y-80124572D01*
X58303468Y-80497625D01*
X58658659Y-80645113D01*
X58305428Y-80791065D01*
X57932375Y-81163468D01*
X57783726Y-81521455D01*
X57653622Y-81187932D01*
X57622455Y-81141288D01*
X57412642Y-81052714D01*
X56550355Y-81915000D01*
X57412642Y-82777286D01*
X57622455Y-82688712D01*
X57786527Y-82314762D01*
X57931065Y-82664572D01*
X58303468Y-83037625D01*
X58790285Y-83239769D01*
X59317402Y-83240229D01*
X59804572Y-83038935D01*
X60177625Y-82666532D01*
X60379769Y-82179715D01*
X60380229Y-81652598D01*
X60178935Y-81165428D01*
X59806532Y-80792375D01*
X59451341Y-80644887D01*
X59804572Y-80498935D01*
X60177625Y-80126532D01*
X60379769Y-79639715D01*
X60380229Y-79112598D01*
X60178935Y-78625428D01*
X59806532Y-78252375D01*
X59451341Y-78104887D01*
X59804572Y-77958935D01*
X60177625Y-77586532D01*
X60379769Y-77099715D01*
X60380229Y-76572598D01*
X60178935Y-76085428D01*
X59806532Y-75712375D01*
X59451341Y-75564887D01*
X59804572Y-75418935D01*
X60177625Y-75046532D01*
X60379769Y-74559715D01*
X60380229Y-74032598D01*
X60178935Y-73545428D01*
X59806532Y-73172375D01*
X59451341Y-73024887D01*
X59804572Y-72878935D01*
X60177625Y-72506532D01*
X60229646Y-72381250D01*
X91450000Y-72381250D01*
X91450000Y-73084538D01*
X91514702Y-73240743D01*
X91634257Y-73360298D01*
X91790462Y-73425000D01*
X92368750Y-73425000D01*
X92475000Y-73318750D01*
X92475000Y-72275000D01*
X92525000Y-72275000D01*
X92525000Y-73318750D01*
X92631250Y-73425000D01*
X93209538Y-73425000D01*
X93365743Y-73360298D01*
X93485298Y-73240743D01*
X93550000Y-73084538D01*
X93550000Y-72381250D01*
X93443750Y-72275000D01*
X92525000Y-72275000D01*
X92475000Y-72275000D01*
X91556250Y-72275000D01*
X91450000Y-72381250D01*
X60229646Y-72381250D01*
X60379769Y-72019715D01*
X60380229Y-71492598D01*
X60334797Y-71382642D01*
X72162714Y-71382642D01*
X72251288Y-71592455D01*
X72733988Y-71804241D01*
X73260992Y-71815186D01*
X73752068Y-71623622D01*
X73798712Y-71592455D01*
X73887286Y-71382642D01*
X73025000Y-70520355D01*
X72162714Y-71382642D01*
X60334797Y-71382642D01*
X60178935Y-71005428D01*
X59894995Y-70720992D01*
X71694814Y-70720992D01*
X71886378Y-71212068D01*
X71917545Y-71258712D01*
X72127358Y-71347286D01*
X72989645Y-70485000D01*
X73060355Y-70485000D01*
X73922642Y-71347286D01*
X74132455Y-71258712D01*
X74296527Y-70884762D01*
X74441065Y-71234572D01*
X74813468Y-71607625D01*
X75300285Y-71809769D01*
X75827402Y-71810229D01*
X76314572Y-71608935D01*
X76687625Y-71236532D01*
X76835113Y-70881341D01*
X76981065Y-71234572D01*
X77353468Y-71607625D01*
X77840285Y-71809769D01*
X78367402Y-71810229D01*
X78854572Y-71608935D01*
X79227625Y-71236532D01*
X79375113Y-70881341D01*
X79521065Y-71234572D01*
X79893468Y-71607625D01*
X80380285Y-71809769D01*
X80907402Y-71810229D01*
X81394572Y-71608935D01*
X81588382Y-71415462D01*
X91450000Y-71415462D01*
X91450000Y-72118750D01*
X91556250Y-72225000D01*
X92475000Y-72225000D01*
X92475000Y-71181250D01*
X92525000Y-71181250D01*
X92525000Y-72225000D01*
X93443750Y-72225000D01*
X93550000Y-72118750D01*
X93550000Y-71415462D01*
X93485298Y-71259257D01*
X93365743Y-71139702D01*
X93209538Y-71075000D01*
X92631250Y-71075000D01*
X92525000Y-71181250D01*
X92475000Y-71181250D01*
X92368750Y-71075000D01*
X91790462Y-71075000D01*
X91634257Y-71139702D01*
X91514702Y-71259257D01*
X91450000Y-71415462D01*
X81588382Y-71415462D01*
X81767625Y-71236532D01*
X81969769Y-70749715D01*
X81970229Y-70222598D01*
X81768935Y-69735428D01*
X81396532Y-69362375D01*
X80909715Y-69160231D01*
X80382598Y-69159771D01*
X79895428Y-69361065D01*
X79522375Y-69733468D01*
X79374887Y-70088659D01*
X79228935Y-69735428D01*
X78856532Y-69362375D01*
X78369715Y-69160231D01*
X77842598Y-69159771D01*
X77355428Y-69361065D01*
X76982375Y-69733468D01*
X76834887Y-70088659D01*
X76688935Y-69735428D01*
X76316532Y-69362375D01*
X75829715Y-69160231D01*
X75302598Y-69159771D01*
X74815428Y-69361065D01*
X74442375Y-69733468D01*
X74293726Y-70091455D01*
X74163622Y-69757932D01*
X74132455Y-69711288D01*
X73922642Y-69622714D01*
X73060355Y-70485000D01*
X72989645Y-70485000D01*
X72127358Y-69622714D01*
X71917545Y-69711288D01*
X71705759Y-70193988D01*
X71694814Y-70720992D01*
X59894995Y-70720992D01*
X59806532Y-70632375D01*
X59319715Y-70430231D01*
X58792598Y-70429771D01*
X58305428Y-70631065D01*
X57932375Y-71003468D01*
X57783726Y-71361455D01*
X57653622Y-71027932D01*
X57622455Y-70981288D01*
X57412642Y-70892714D01*
X56550355Y-71755000D01*
X56479645Y-71755000D01*
X55617358Y-70892714D01*
X55407545Y-70981288D01*
X55195759Y-71463988D01*
X55184814Y-71990992D01*
X53465000Y-71990992D01*
X53465000Y-70857358D01*
X55652714Y-70857358D01*
X56515000Y-71719645D01*
X57377286Y-70857358D01*
X57288712Y-70647545D01*
X56806012Y-70435759D01*
X56279008Y-70424814D01*
X55787932Y-70616378D01*
X55741288Y-70647545D01*
X55652714Y-70857358D01*
X53465000Y-70857358D01*
X53465000Y-69587358D01*
X72162714Y-69587358D01*
X73025000Y-70449645D01*
X73887286Y-69587358D01*
X73798712Y-69377545D01*
X73316012Y-69165759D01*
X72789008Y-69154814D01*
X72297932Y-69346378D01*
X72251288Y-69377545D01*
X72162714Y-69587358D01*
X53465000Y-69587358D01*
X53465000Y-66955481D01*
X96252866Y-66955481D01*
X96370604Y-67240429D01*
X96588425Y-67458630D01*
X96873167Y-67576865D01*
X97181481Y-67577134D01*
X97466429Y-67459396D01*
X97684630Y-67241575D01*
X97802865Y-66956833D01*
X97802998Y-66804820D01*
X98178909Y-66428909D01*
X98298134Y-66250476D01*
X98340001Y-66040000D01*
X98340000Y-66039995D01*
X98340000Y-65687206D01*
X110334754Y-65687206D01*
X110551240Y-66211143D01*
X110951749Y-66612351D01*
X111475307Y-66829752D01*
X112042206Y-66830246D01*
X112566143Y-66613760D01*
X112967351Y-66213251D01*
X113184752Y-65689693D01*
X113184754Y-65687206D01*
X114834754Y-65687206D01*
X115051240Y-66211143D01*
X115451749Y-66612351D01*
X115975307Y-66829752D01*
X116542206Y-66830246D01*
X117066143Y-66613760D01*
X117467351Y-66213251D01*
X117684752Y-65689693D01*
X117685246Y-65122794D01*
X117468760Y-64598857D01*
X117068251Y-64197649D01*
X116544693Y-63980248D01*
X115977794Y-63979754D01*
X115453857Y-64196240D01*
X115052649Y-64596749D01*
X114835248Y-65120307D01*
X114834754Y-65687206D01*
X113184754Y-65687206D01*
X113185246Y-65122794D01*
X113112917Y-64947743D01*
X114445660Y-63615000D01*
X124149340Y-63615000D01*
X125598544Y-65064204D01*
X125575248Y-65120307D01*
X125574754Y-65687206D01*
X125791240Y-66211143D01*
X126191749Y-66612351D01*
X126715307Y-66829752D01*
X127282206Y-66830246D01*
X127806143Y-66613760D01*
X128207351Y-66213251D01*
X128424752Y-65689693D01*
X128424754Y-65687206D01*
X130074754Y-65687206D01*
X130291240Y-66211143D01*
X130691749Y-66612351D01*
X131215307Y-66829752D01*
X131782206Y-66830246D01*
X132306143Y-66613760D01*
X132707351Y-66213251D01*
X132924752Y-65689693D01*
X132925246Y-65122794D01*
X132708760Y-64598857D01*
X132308251Y-64197649D01*
X131784693Y-63980248D01*
X131217794Y-63979754D01*
X130693857Y-64196240D01*
X130292649Y-64596749D01*
X130075248Y-65120307D01*
X130074754Y-65687206D01*
X128424754Y-65687206D01*
X128425246Y-65122794D01*
X128208760Y-64598857D01*
X127808251Y-64197649D01*
X127284693Y-63980248D01*
X126717794Y-63979754D01*
X126659500Y-64003840D01*
X124990330Y-62334670D01*
X124747013Y-62172090D01*
X124460000Y-62115000D01*
X114135000Y-62115000D01*
X113847987Y-62172090D01*
X113671245Y-62290186D01*
X113604670Y-62334670D01*
X111959167Y-63980173D01*
X111477794Y-63979754D01*
X110953857Y-64196240D01*
X110552649Y-64596749D01*
X110335248Y-65120307D01*
X110334754Y-65687206D01*
X98340000Y-65687206D01*
X98340000Y-63665019D01*
X98446630Y-63558575D01*
X98564865Y-63273833D01*
X98565134Y-62965519D01*
X98447396Y-62680571D01*
X98229575Y-62462370D01*
X97944833Y-62344135D01*
X97636519Y-62343866D01*
X97351571Y-62461604D01*
X97133370Y-62679425D01*
X97015135Y-62964167D01*
X97014866Y-63272481D01*
X97132604Y-63557429D01*
X97240000Y-63665012D01*
X97240000Y-65812182D01*
X97025185Y-66026997D01*
X96874519Y-66026866D01*
X96589571Y-66144604D01*
X96371370Y-66362425D01*
X96253135Y-66647167D01*
X96252866Y-66955481D01*
X53465000Y-66955481D01*
X53465000Y-61857642D01*
X77877714Y-61857642D01*
X77966288Y-62067455D01*
X78448988Y-62279241D01*
X78975992Y-62290186D01*
X79467068Y-62098622D01*
X79513712Y-62067455D01*
X79602286Y-61857642D01*
X80417714Y-61857642D01*
X80506288Y-62067455D01*
X80988988Y-62279241D01*
X81515992Y-62290186D01*
X82007068Y-62098622D01*
X82053712Y-62067455D01*
X82142286Y-61857642D01*
X81280000Y-60995355D01*
X80417714Y-61857642D01*
X79602286Y-61857642D01*
X78740000Y-60995355D01*
X77877714Y-61857642D01*
X53465000Y-61857642D01*
X53465000Y-61113481D01*
X69074866Y-61113481D01*
X69192604Y-61398429D01*
X69410425Y-61616630D01*
X69695167Y-61734865D01*
X70003481Y-61735134D01*
X70288429Y-61617396D01*
X70506630Y-61399575D01*
X70531870Y-61338790D01*
X70674668Y-61195992D01*
X77409814Y-61195992D01*
X77601378Y-61687068D01*
X77632545Y-61733712D01*
X77842358Y-61822286D01*
X78704645Y-60960000D01*
X78775355Y-60960000D01*
X79637642Y-61822286D01*
X79847455Y-61733712D01*
X80012677Y-61357141D01*
X80141378Y-61687068D01*
X80172545Y-61733712D01*
X80382358Y-61822286D01*
X81244645Y-60960000D01*
X81315355Y-60960000D01*
X82177642Y-61822286D01*
X82387455Y-61733712D01*
X82552677Y-61357141D01*
X82681378Y-61687068D01*
X82712545Y-61733712D01*
X82922358Y-61822286D01*
X83784645Y-60960000D01*
X82922358Y-60097714D01*
X82712545Y-60186288D01*
X82547323Y-60562859D01*
X82418622Y-60232932D01*
X82387455Y-60186288D01*
X82177642Y-60097714D01*
X81315355Y-60960000D01*
X81244645Y-60960000D01*
X80382358Y-60097714D01*
X80172545Y-60186288D01*
X80007323Y-60562859D01*
X79878622Y-60232932D01*
X79847455Y-60186288D01*
X79637642Y-60097714D01*
X78775355Y-60960000D01*
X78704645Y-60960000D01*
X77842358Y-60097714D01*
X77632545Y-60186288D01*
X77420759Y-60668988D01*
X77409814Y-61195992D01*
X70674668Y-61195992D01*
X71015330Y-60855330D01*
X71177910Y-60612013D01*
X71235000Y-60325000D01*
X71235000Y-58682402D01*
X77414771Y-58682402D01*
X77616065Y-59169572D01*
X77988468Y-59542625D01*
X78346455Y-59691274D01*
X78012932Y-59821378D01*
X77966288Y-59852545D01*
X77877714Y-60062358D01*
X78740000Y-60924645D01*
X79602286Y-60062358D01*
X79513712Y-59852545D01*
X79139762Y-59688473D01*
X79489572Y-59543935D01*
X79862625Y-59171532D01*
X80010113Y-58816341D01*
X80156065Y-59169572D01*
X80528468Y-59542625D01*
X80886455Y-59691274D01*
X80552932Y-59821378D01*
X80506288Y-59852545D01*
X80417714Y-60062358D01*
X81280000Y-60924645D01*
X82142286Y-60062358D01*
X82053712Y-59852545D01*
X81679762Y-59688473D01*
X82029572Y-59543935D01*
X82402625Y-59171532D01*
X82550113Y-58816341D01*
X82696065Y-59169572D01*
X83068468Y-59542625D01*
X83426455Y-59691274D01*
X83092932Y-59821378D01*
X83046288Y-59852545D01*
X82957714Y-60062358D01*
X83820000Y-60924645D01*
X83834142Y-60910502D01*
X83869498Y-60945858D01*
X83855355Y-60960000D01*
X83869498Y-60974142D01*
X83834142Y-61009498D01*
X83820000Y-60995355D01*
X82957714Y-61857642D01*
X83046288Y-62067455D01*
X83528988Y-62279241D01*
X84055992Y-62290186D01*
X84540000Y-62101379D01*
X84540000Y-62484000D01*
X84581866Y-62694476D01*
X84701091Y-62872909D01*
X86600997Y-64772815D01*
X86600866Y-64923481D01*
X86718604Y-65208429D01*
X86936425Y-65426630D01*
X87221167Y-65544865D01*
X87529481Y-65545134D01*
X87814429Y-65427396D01*
X88032630Y-65209575D01*
X88150865Y-64924833D01*
X88151134Y-64616519D01*
X88033396Y-64331571D01*
X87815575Y-64113370D01*
X87530833Y-63995135D01*
X87378820Y-63995002D01*
X85640000Y-62256182D01*
X85640000Y-62091021D01*
X86068988Y-62279241D01*
X86595992Y-62290186D01*
X87087068Y-62098622D01*
X87133712Y-62067455D01*
X87222286Y-61857642D01*
X86360000Y-60995355D01*
X86345858Y-61009498D01*
X86310502Y-60974142D01*
X86324645Y-60960000D01*
X86395355Y-60960000D01*
X87257642Y-61822286D01*
X87467455Y-61733712D01*
X87632677Y-61357141D01*
X87761378Y-61687068D01*
X87792545Y-61733712D01*
X88002358Y-61822286D01*
X88864645Y-60960000D01*
X88002358Y-60097714D01*
X87792545Y-60186288D01*
X87627323Y-60562859D01*
X87498622Y-60232932D01*
X87467455Y-60186288D01*
X87257642Y-60097714D01*
X86395355Y-60960000D01*
X86324645Y-60960000D01*
X86310502Y-60945858D01*
X86345858Y-60910502D01*
X86360000Y-60924645D01*
X87222286Y-60062358D01*
X87133712Y-59852545D01*
X86759762Y-59688473D01*
X87109572Y-59543935D01*
X87482625Y-59171532D01*
X87630113Y-58816341D01*
X87776065Y-59169572D01*
X88148468Y-59542625D01*
X88506455Y-59691274D01*
X88172932Y-59821378D01*
X88126288Y-59852545D01*
X88037714Y-60062358D01*
X88900000Y-60924645D01*
X88914142Y-60910502D01*
X88949498Y-60945858D01*
X88935355Y-60960000D01*
X88949498Y-60974142D01*
X88914142Y-61009498D01*
X88900000Y-60995355D01*
X88037714Y-61857642D01*
X88126288Y-62067455D01*
X88608988Y-62279241D01*
X89135992Y-62290186D01*
X89620000Y-62101379D01*
X89620000Y-63500000D01*
X89661866Y-63710476D01*
X89776000Y-63881289D01*
X89775866Y-64034481D01*
X89893604Y-64319429D01*
X90111425Y-64537630D01*
X90396167Y-64655865D01*
X90704481Y-64656134D01*
X90989429Y-64538396D01*
X91207630Y-64320575D01*
X91325865Y-64035833D01*
X91326134Y-63727519D01*
X91208396Y-63442571D01*
X90990575Y-63224370D01*
X90720000Y-63112018D01*
X90720000Y-62095718D01*
X91175285Y-62284769D01*
X91702402Y-62285229D01*
X92189572Y-62083935D01*
X92562625Y-61711532D01*
X92563261Y-61710000D01*
X92856492Y-61710000D01*
X93228468Y-62082625D01*
X93715285Y-62284769D01*
X94242402Y-62285229D01*
X94729572Y-62083935D01*
X95102625Y-61711532D01*
X95103261Y-61710000D01*
X95396492Y-61710000D01*
X95768468Y-62082625D01*
X96255285Y-62284769D01*
X96782402Y-62285229D01*
X97269572Y-62083935D01*
X97642625Y-61711532D01*
X97643261Y-61710000D01*
X97936492Y-61710000D01*
X98308468Y-62082625D01*
X98795285Y-62284769D01*
X99322402Y-62285229D01*
X99809572Y-62083935D01*
X100182625Y-61711532D01*
X100183261Y-61710000D01*
X100476492Y-61710000D01*
X100848468Y-62082625D01*
X101335285Y-62284769D01*
X101862402Y-62285229D01*
X102349572Y-62083935D01*
X102722625Y-61711532D01*
X102924769Y-61224715D01*
X102925229Y-60697598D01*
X102723935Y-60210428D01*
X102351532Y-59837375D01*
X101996341Y-59689887D01*
X102349572Y-59543935D01*
X102706923Y-59187206D01*
X110334754Y-59187206D01*
X110551240Y-59711143D01*
X110951749Y-60112351D01*
X111475307Y-60329752D01*
X112042206Y-60330246D01*
X112566143Y-60113760D01*
X112967351Y-59713251D01*
X113184752Y-59189693D01*
X113184754Y-59187206D01*
X114834754Y-59187206D01*
X115051240Y-59711143D01*
X115451749Y-60112351D01*
X115975307Y-60329752D01*
X116542206Y-60330246D01*
X117066143Y-60113760D01*
X117467351Y-59713251D01*
X117684752Y-59189693D01*
X117684754Y-59187206D01*
X125574754Y-59187206D01*
X125791240Y-59711143D01*
X126191749Y-60112351D01*
X126715307Y-60329752D01*
X127282206Y-60330246D01*
X127806143Y-60113760D01*
X128207351Y-59713251D01*
X128424752Y-59189693D01*
X128424754Y-59187206D01*
X130074754Y-59187206D01*
X130291240Y-59711143D01*
X130691749Y-60112351D01*
X131215307Y-60329752D01*
X131782206Y-60330246D01*
X132306143Y-60113760D01*
X132707351Y-59713251D01*
X132924752Y-59189693D01*
X132925246Y-58622794D01*
X132708760Y-58098857D01*
X132308251Y-57697649D01*
X131784693Y-57480248D01*
X131217794Y-57479754D01*
X130693857Y-57696240D01*
X130292649Y-58096749D01*
X130075248Y-58620307D01*
X130074754Y-59187206D01*
X128424754Y-59187206D01*
X128425246Y-58622794D01*
X128208760Y-58098857D01*
X127808251Y-57697649D01*
X127284693Y-57480248D01*
X126717794Y-57479754D01*
X126193857Y-57696240D01*
X125792649Y-58096749D01*
X125575248Y-58620307D01*
X125574754Y-59187206D01*
X117684754Y-59187206D01*
X117685246Y-58622794D01*
X117468760Y-58098857D01*
X117068251Y-57697649D01*
X116544693Y-57480248D01*
X115977794Y-57479754D01*
X115453857Y-57696240D01*
X115052649Y-58096749D01*
X114835248Y-58620307D01*
X114834754Y-59187206D01*
X113184754Y-59187206D01*
X113185246Y-58622794D01*
X112968760Y-58098857D01*
X112568251Y-57697649D01*
X112044693Y-57480248D01*
X111477794Y-57479754D01*
X110953857Y-57696240D01*
X110552649Y-58096749D01*
X110335248Y-58620307D01*
X110334754Y-59187206D01*
X102706923Y-59187206D01*
X102722625Y-59171532D01*
X102924769Y-58684715D01*
X102925229Y-58157598D01*
X102723935Y-57670428D01*
X102351532Y-57297375D01*
X101864715Y-57095231D01*
X101337598Y-57094771D01*
X100850428Y-57296065D01*
X100477375Y-57668468D01*
X100329887Y-58023659D01*
X100183935Y-57670428D01*
X99811532Y-57297375D01*
X99324715Y-57095231D01*
X98797598Y-57094771D01*
X98310428Y-57296065D01*
X97937375Y-57668468D01*
X97789887Y-58023659D01*
X97643935Y-57670428D01*
X97271532Y-57297375D01*
X96784715Y-57095231D01*
X96257598Y-57094771D01*
X95770428Y-57296065D01*
X95397375Y-57668468D01*
X95249887Y-58023659D01*
X95103935Y-57670428D01*
X94731532Y-57297375D01*
X94244715Y-57095231D01*
X93717598Y-57094771D01*
X93230428Y-57296065D01*
X92857375Y-57668468D01*
X92709887Y-58023659D01*
X92563935Y-57670428D01*
X92191532Y-57297375D01*
X91704715Y-57095231D01*
X91177598Y-57094771D01*
X90690428Y-57296065D01*
X90317375Y-57668468D01*
X90169887Y-58023659D01*
X90023935Y-57670428D01*
X89651532Y-57297375D01*
X89164715Y-57095231D01*
X88637598Y-57094771D01*
X88150428Y-57296065D01*
X87777375Y-57668468D01*
X87629887Y-58023659D01*
X87483935Y-57670428D01*
X87111532Y-57297375D01*
X86624715Y-57095231D01*
X86097598Y-57094771D01*
X85610428Y-57296065D01*
X85237375Y-57668468D01*
X85089887Y-58023659D01*
X84943935Y-57670428D01*
X84571532Y-57297375D01*
X84084715Y-57095231D01*
X83557598Y-57094771D01*
X83070428Y-57296065D01*
X82697375Y-57668468D01*
X82549887Y-58023659D01*
X82403935Y-57670428D01*
X82031532Y-57297375D01*
X81544715Y-57095231D01*
X81017598Y-57094771D01*
X80530428Y-57296065D01*
X80157375Y-57668468D01*
X80009887Y-58023659D01*
X79863935Y-57670428D01*
X79491532Y-57297375D01*
X79004715Y-57095231D01*
X78477598Y-57094771D01*
X77990428Y-57296065D01*
X77617375Y-57668468D01*
X77415231Y-58155285D01*
X77414771Y-58682402D01*
X71235000Y-58682402D01*
X71235000Y-56825660D01*
X72768503Y-55292157D01*
X72828429Y-55267396D01*
X73046630Y-55049575D01*
X73164865Y-54764833D01*
X73165134Y-54456519D01*
X73047396Y-54171571D01*
X72829575Y-53953370D01*
X72544833Y-53835135D01*
X72236519Y-53834866D01*
X71951571Y-53952604D01*
X71733370Y-54170425D01*
X71708130Y-54231210D01*
X69954670Y-55984670D01*
X69792090Y-56227987D01*
X69735000Y-56515000D01*
X69735000Y-60014340D01*
X69471497Y-60277843D01*
X69411571Y-60302604D01*
X69193370Y-60520425D01*
X69075135Y-60805167D01*
X69074866Y-61113481D01*
X53465000Y-61113481D01*
X53465000Y-60125000D01*
X58000000Y-60125000D01*
X58047037Y-60115813D01*
X58088388Y-60088388D01*
X60588388Y-57588388D01*
X60615152Y-57548632D01*
X60625000Y-57500000D01*
X60625000Y-52830000D01*
X132375000Y-52830000D01*
X132375000Y-57500000D01*
X132375000Y-57500000D01*
G37*
X132375000Y-57500000D02*
X132384187Y-57547037D01*
X132411612Y-57588388D01*
X134911612Y-60088388D01*
X134951368Y-60115152D01*
X135000000Y-60125000D01*
X139575000Y-60125000D01*
X139575000Y-110875000D01*
X135000000Y-110875000D01*
X134952963Y-110884187D01*
X134911612Y-110911612D01*
X132411612Y-113411612D01*
X132384848Y-113451368D01*
X132375000Y-113500000D01*
X132375000Y-117985000D01*
X60625000Y-117985000D01*
X60625000Y-115977481D01*
X102094866Y-115977481D01*
X102212604Y-116262429D01*
X102430425Y-116480630D01*
X102715167Y-116598865D01*
X103023481Y-116599134D01*
X103308429Y-116481396D01*
X103416012Y-116374000D01*
X113411000Y-116374000D01*
X113621476Y-116332134D01*
X113799909Y-116212909D01*
X114688909Y-115323909D01*
X114808134Y-115145476D01*
X114850000Y-114935000D01*
X114850000Y-114871396D01*
X115049572Y-114788935D01*
X115422625Y-114416532D01*
X115570113Y-114061341D01*
X115716065Y-114414572D01*
X116088468Y-114787625D01*
X116090000Y-114788261D01*
X116090000Y-114935000D01*
X116147090Y-115222013D01*
X116309670Y-115465330D01*
X118062843Y-117218503D01*
X118087604Y-117278429D01*
X118305425Y-117496630D01*
X118590167Y-117614865D01*
X118898481Y-117615134D01*
X118959310Y-117590000D01*
X127000000Y-117590000D01*
X127287013Y-117532910D01*
X127530330Y-117370330D01*
X130705330Y-114195330D01*
X130867910Y-113952013D01*
X130925000Y-113665000D01*
X130925000Y-109434715D01*
X130949865Y-109374833D01*
X130950134Y-109066519D01*
X130832396Y-108781571D01*
X130614575Y-108563370D01*
X130329833Y-108445135D01*
X130021519Y-108444866D01*
X129736571Y-108562604D01*
X129518370Y-108780425D01*
X129400135Y-109065167D01*
X129399866Y-109373481D01*
X129425000Y-109434310D01*
X129425000Y-113354340D01*
X126689340Y-116090000D01*
X119055660Y-116090000D01*
X117672155Y-114706495D01*
X117962625Y-114416532D01*
X118110113Y-114061341D01*
X118256065Y-114414572D01*
X118628468Y-114787625D01*
X119115285Y-114989769D01*
X119642402Y-114990229D01*
X120129572Y-114788935D01*
X120356259Y-114562642D01*
X121057714Y-114562642D01*
X121146288Y-114772455D01*
X121628988Y-114984241D01*
X122155992Y-114995186D01*
X122647068Y-114803622D01*
X122693712Y-114772455D01*
X122782286Y-114562642D01*
X121920000Y-113700355D01*
X121057714Y-114562642D01*
X120356259Y-114562642D01*
X120502625Y-114416532D01*
X120651274Y-114058545D01*
X120781378Y-114392068D01*
X120812545Y-114438712D01*
X121022358Y-114527286D01*
X121884645Y-113665000D01*
X121955355Y-113665000D01*
X122817642Y-114527286D01*
X123027455Y-114438712D01*
X123191527Y-114064762D01*
X123336065Y-114414572D01*
X123708468Y-114787625D01*
X124195285Y-114989769D01*
X124722402Y-114990229D01*
X125209572Y-114788935D01*
X125582625Y-114416532D01*
X125784769Y-113929715D01*
X125785229Y-113402598D01*
X125583935Y-112915428D01*
X125211532Y-112542375D01*
X124853545Y-112393726D01*
X125187068Y-112263622D01*
X125233712Y-112232455D01*
X125322286Y-112022642D01*
X124460000Y-111160355D01*
X123597714Y-112022642D01*
X123686288Y-112232455D01*
X124060238Y-112396527D01*
X123710428Y-112541065D01*
X123337375Y-112913468D01*
X123188726Y-113271455D01*
X123058622Y-112937932D01*
X123027455Y-112891288D01*
X122817642Y-112802714D01*
X121955355Y-113665000D01*
X121884645Y-113665000D01*
X121022358Y-112802714D01*
X120812545Y-112891288D01*
X120648473Y-113265238D01*
X120503935Y-112915428D01*
X120131532Y-112542375D01*
X119773545Y-112393726D01*
X120107068Y-112263622D01*
X120153712Y-112232455D01*
X120242286Y-112022642D01*
X121057714Y-112022642D01*
X121146288Y-112232455D01*
X121522859Y-112397677D01*
X121192932Y-112526378D01*
X121146288Y-112557545D01*
X121057714Y-112767358D01*
X121920000Y-113629645D01*
X122782286Y-112767358D01*
X122693712Y-112557545D01*
X122317141Y-112392323D01*
X122647068Y-112263622D01*
X122693712Y-112232455D01*
X122782286Y-112022642D01*
X121920000Y-111160355D01*
X121057714Y-112022642D01*
X120242286Y-112022642D01*
X119380000Y-111160355D01*
X118517714Y-112022642D01*
X118606288Y-112232455D01*
X118980238Y-112396527D01*
X118630428Y-112541065D01*
X118257375Y-112913468D01*
X118109887Y-113268659D01*
X117963935Y-112915428D01*
X117591532Y-112542375D01*
X117233545Y-112393726D01*
X117567068Y-112263622D01*
X117613712Y-112232455D01*
X117702286Y-112022642D01*
X116840000Y-111160355D01*
X115977714Y-112022642D01*
X116066288Y-112232455D01*
X116440238Y-112396527D01*
X116090428Y-112541065D01*
X115717375Y-112913468D01*
X115569887Y-113268659D01*
X115423935Y-112915428D01*
X115051532Y-112542375D01*
X114693545Y-112393726D01*
X115027068Y-112263622D01*
X115073712Y-112232455D01*
X115162286Y-112022642D01*
X114300000Y-111160355D01*
X113437714Y-112022642D01*
X113526288Y-112232455D01*
X113900238Y-112396527D01*
X113550428Y-112541065D01*
X113177375Y-112913468D01*
X113029887Y-113268659D01*
X112883935Y-112915428D01*
X112511532Y-112542375D01*
X112153545Y-112393726D01*
X112487068Y-112263622D01*
X112533712Y-112232455D01*
X112622286Y-112022642D01*
X111760000Y-111160355D01*
X110897714Y-112022642D01*
X110986288Y-112232455D01*
X111360238Y-112396527D01*
X111010428Y-112541065D01*
X110637375Y-112913468D01*
X110488726Y-113271455D01*
X110358622Y-112937932D01*
X110327455Y-112891288D01*
X110117642Y-112802714D01*
X109255355Y-113665000D01*
X110117642Y-114527286D01*
X110327455Y-114438712D01*
X110491527Y-114064762D01*
X110636065Y-114414572D01*
X111008468Y-114787625D01*
X111495285Y-114989769D01*
X112022402Y-114990229D01*
X112509572Y-114788935D01*
X112882625Y-114416532D01*
X113030113Y-114061341D01*
X113176065Y-114414572D01*
X113548468Y-114787625D01*
X113634029Y-114823153D01*
X113183182Y-115274000D01*
X103416019Y-115274000D01*
X103309575Y-115167370D01*
X103024833Y-115049135D01*
X102716519Y-115048866D01*
X102431571Y-115166604D01*
X102213370Y-115384425D01*
X102095135Y-115669167D01*
X102094866Y-115977481D01*
X60625000Y-115977481D01*
X60625000Y-114562642D01*
X68987714Y-114562642D01*
X69076288Y-114772455D01*
X69558988Y-114984241D01*
X70085992Y-114995186D01*
X70577068Y-114803622D01*
X70623712Y-114772455D01*
X70712286Y-114562642D01*
X71527714Y-114562642D01*
X71616288Y-114772455D01*
X72098988Y-114984241D01*
X72625992Y-114995186D01*
X73117068Y-114803622D01*
X73163712Y-114772455D01*
X73252286Y-114562642D01*
X74067714Y-114562642D01*
X74156288Y-114772455D01*
X74638988Y-114984241D01*
X75165992Y-114995186D01*
X75657068Y-114803622D01*
X75703712Y-114772455D01*
X75792286Y-114562642D01*
X76607714Y-114562642D01*
X76696288Y-114772455D01*
X77178988Y-114984241D01*
X77705992Y-114995186D01*
X78197068Y-114803622D01*
X78243712Y-114772455D01*
X78332286Y-114562642D01*
X79147714Y-114562642D01*
X79236288Y-114772455D01*
X79718988Y-114984241D01*
X80245992Y-114995186D01*
X80737068Y-114803622D01*
X80783712Y-114772455D01*
X80872286Y-114562642D01*
X80010000Y-113700355D01*
X79147714Y-114562642D01*
X78332286Y-114562642D01*
X77470000Y-113700355D01*
X76607714Y-114562642D01*
X75792286Y-114562642D01*
X74930000Y-113700355D01*
X74067714Y-114562642D01*
X73252286Y-114562642D01*
X72390000Y-113700355D01*
X71527714Y-114562642D01*
X70712286Y-114562642D01*
X69850000Y-113700355D01*
X68987714Y-114562642D01*
X60625000Y-114562642D01*
X60625000Y-113900992D01*
X68519814Y-113900992D01*
X68711378Y-114392068D01*
X68742545Y-114438712D01*
X68952358Y-114527286D01*
X69814645Y-113665000D01*
X69885355Y-113665000D01*
X70747642Y-114527286D01*
X70957455Y-114438712D01*
X71122677Y-114062141D01*
X71251378Y-114392068D01*
X71282545Y-114438712D01*
X71492358Y-114527286D01*
X72354645Y-113665000D01*
X72425355Y-113665000D01*
X73287642Y-114527286D01*
X73497455Y-114438712D01*
X73662677Y-114062141D01*
X73791378Y-114392068D01*
X73822545Y-114438712D01*
X74032358Y-114527286D01*
X74894645Y-113665000D01*
X74965355Y-113665000D01*
X75827642Y-114527286D01*
X76037455Y-114438712D01*
X76202677Y-114062141D01*
X76331378Y-114392068D01*
X76362545Y-114438712D01*
X76572358Y-114527286D01*
X77434645Y-113665000D01*
X77505355Y-113665000D01*
X78367642Y-114527286D01*
X78577455Y-114438712D01*
X78742677Y-114062141D01*
X78871378Y-114392068D01*
X78902545Y-114438712D01*
X79112358Y-114527286D01*
X79974645Y-113665000D01*
X80045355Y-113665000D01*
X80907642Y-114527286D01*
X81117455Y-114438712D01*
X81329241Y-113956012D01*
X81329835Y-113927402D01*
X100274771Y-113927402D01*
X100476065Y-114414572D01*
X100848468Y-114787625D01*
X101335285Y-114989769D01*
X101862402Y-114990229D01*
X102349572Y-114788935D01*
X102722625Y-114416532D01*
X102870113Y-114061341D01*
X103016065Y-114414572D01*
X103388468Y-114787625D01*
X103875285Y-114989769D01*
X104402402Y-114990229D01*
X104889572Y-114788935D01*
X105262625Y-114416532D01*
X105410113Y-114061341D01*
X105556065Y-114414572D01*
X105928468Y-114787625D01*
X106415285Y-114989769D01*
X106942402Y-114990229D01*
X107429572Y-114788935D01*
X107656259Y-114562642D01*
X108357714Y-114562642D01*
X108446288Y-114772455D01*
X108928988Y-114984241D01*
X109455992Y-114995186D01*
X109947068Y-114803622D01*
X109993712Y-114772455D01*
X110082286Y-114562642D01*
X109220000Y-113700355D01*
X108357714Y-114562642D01*
X107656259Y-114562642D01*
X107802625Y-114416532D01*
X107951274Y-114058545D01*
X108081378Y-114392068D01*
X108112545Y-114438712D01*
X108322358Y-114527286D01*
X109184645Y-113665000D01*
X108322358Y-112802714D01*
X108112545Y-112891288D01*
X107948473Y-113265238D01*
X107803935Y-112915428D01*
X107431532Y-112542375D01*
X107073545Y-112393726D01*
X107407068Y-112263622D01*
X107453712Y-112232455D01*
X107542286Y-112022642D01*
X108357714Y-112022642D01*
X108446288Y-112232455D01*
X108822859Y-112397677D01*
X108492932Y-112526378D01*
X108446288Y-112557545D01*
X108357714Y-112767358D01*
X109220000Y-113629645D01*
X110082286Y-112767358D01*
X109993712Y-112557545D01*
X109617141Y-112392323D01*
X109947068Y-112263622D01*
X109993712Y-112232455D01*
X110082286Y-112022642D01*
X109220000Y-111160355D01*
X108357714Y-112022642D01*
X107542286Y-112022642D01*
X106680000Y-111160355D01*
X105817714Y-112022642D01*
X105906288Y-112232455D01*
X106280238Y-112396527D01*
X105930428Y-112541065D01*
X105557375Y-112913468D01*
X105409887Y-113268659D01*
X105263935Y-112915428D01*
X104891532Y-112542375D01*
X104533545Y-112393726D01*
X104867068Y-112263622D01*
X104913712Y-112232455D01*
X105002286Y-112022642D01*
X104140000Y-111160355D01*
X103277714Y-112022642D01*
X103366288Y-112232455D01*
X103740238Y-112396527D01*
X103390428Y-112541065D01*
X103017375Y-112913468D01*
X102869887Y-113268659D01*
X102723935Y-112915428D01*
X102351532Y-112542375D01*
X101993545Y-112393726D01*
X102327068Y-112263622D01*
X102373712Y-112232455D01*
X102462286Y-112022642D01*
X101600000Y-111160355D01*
X100737714Y-112022642D01*
X100826288Y-112232455D01*
X101200238Y-112396527D01*
X100850428Y-112541065D01*
X100477375Y-112913468D01*
X100275231Y-113400285D01*
X100274771Y-113927402D01*
X81329835Y-113927402D01*
X81340186Y-113429008D01*
X81148622Y-112937932D01*
X81117455Y-112891288D01*
X80907642Y-112802714D01*
X80045355Y-113665000D01*
X79974645Y-113665000D01*
X79112358Y-112802714D01*
X78902545Y-112891288D01*
X78737323Y-113267859D01*
X78608622Y-112937932D01*
X78577455Y-112891288D01*
X78367642Y-112802714D01*
X77505355Y-113665000D01*
X77434645Y-113665000D01*
X76572358Y-112802714D01*
X76362545Y-112891288D01*
X76197323Y-113267859D01*
X76068622Y-112937932D01*
X76037455Y-112891288D01*
X75827642Y-112802714D01*
X74965355Y-113665000D01*
X74894645Y-113665000D01*
X74032358Y-112802714D01*
X73822545Y-112891288D01*
X73657323Y-113267859D01*
X73528622Y-112937932D01*
X73497455Y-112891288D01*
X73287642Y-112802714D01*
X72425355Y-113665000D01*
X72354645Y-113665000D01*
X71492358Y-112802714D01*
X71282545Y-112891288D01*
X71117323Y-113267859D01*
X70988622Y-112937932D01*
X70957455Y-112891288D01*
X70747642Y-112802714D01*
X69885355Y-113665000D01*
X69814645Y-113665000D01*
X68952358Y-112802714D01*
X68742545Y-112891288D01*
X68530759Y-113373988D01*
X68519814Y-113900992D01*
X60625000Y-113900992D01*
X60625000Y-113500000D01*
X60615813Y-113452963D01*
X60588388Y-113411612D01*
X59199418Y-112022642D01*
X68987714Y-112022642D01*
X69076288Y-112232455D01*
X69452859Y-112397677D01*
X69122932Y-112526378D01*
X69076288Y-112557545D01*
X68987714Y-112767358D01*
X69850000Y-113629645D01*
X70712286Y-112767358D01*
X70623712Y-112557545D01*
X70247141Y-112392323D01*
X70577068Y-112263622D01*
X70623712Y-112232455D01*
X70712286Y-112022642D01*
X69850000Y-111160355D01*
X68987714Y-112022642D01*
X59199418Y-112022642D01*
X58537768Y-111360992D01*
X68519814Y-111360992D01*
X68711378Y-111852068D01*
X68742545Y-111898712D01*
X68952358Y-111987286D01*
X69814645Y-111125000D01*
X68952358Y-110262714D01*
X68742545Y-110351288D01*
X68530759Y-110833988D01*
X68519814Y-111360992D01*
X58537768Y-111360992D01*
X58088388Y-110911612D01*
X58048632Y-110884848D01*
X58000000Y-110875000D01*
X53465000Y-110875000D01*
X53465000Y-110227358D01*
X68987714Y-110227358D01*
X69850000Y-111089645D01*
X70712286Y-110227358D01*
X70623712Y-110017545D01*
X70141012Y-109805759D01*
X69614008Y-109794814D01*
X69122932Y-109986378D01*
X69076288Y-110017545D01*
X68987714Y-110227358D01*
X53465000Y-110227358D01*
X53465000Y-105037642D01*
X55652714Y-105037642D01*
X55741288Y-105247455D01*
X56223988Y-105459241D01*
X56750992Y-105470186D01*
X57242068Y-105278622D01*
X57288712Y-105247455D01*
X57377286Y-105037642D01*
X56515000Y-104175355D01*
X55652714Y-105037642D01*
X53465000Y-105037642D01*
X53465000Y-104375992D01*
X55184814Y-104375992D01*
X55376378Y-104867068D01*
X55407545Y-104913712D01*
X55617358Y-105002286D01*
X56479645Y-104140000D01*
X55617358Y-103277714D01*
X55407545Y-103366288D01*
X55195759Y-103848988D01*
X55184814Y-104375992D01*
X53465000Y-104375992D01*
X53465000Y-102497642D01*
X55652714Y-102497642D01*
X55741288Y-102707455D01*
X56117859Y-102872677D01*
X55787932Y-103001378D01*
X55741288Y-103032545D01*
X55652714Y-103242358D01*
X56515000Y-104104645D01*
X57377286Y-103242358D01*
X57288712Y-103032545D01*
X56912141Y-102867323D01*
X57242068Y-102738622D01*
X57288712Y-102707455D01*
X57377286Y-102497642D01*
X56515000Y-101635355D01*
X55652714Y-102497642D01*
X53465000Y-102497642D01*
X53465000Y-101835992D01*
X55184814Y-101835992D01*
X55376378Y-102327068D01*
X55407545Y-102373712D01*
X55617358Y-102462286D01*
X56479645Y-101600000D01*
X55617358Y-100737714D01*
X55407545Y-100826288D01*
X55195759Y-101308988D01*
X55184814Y-101835992D01*
X53465000Y-101835992D01*
X53465000Y-99957642D01*
X55652714Y-99957642D01*
X55741288Y-100167455D01*
X56117859Y-100332677D01*
X55787932Y-100461378D01*
X55741288Y-100492545D01*
X55652714Y-100702358D01*
X56515000Y-101564645D01*
X57377286Y-100702358D01*
X57288712Y-100492545D01*
X56912141Y-100327323D01*
X57242068Y-100198622D01*
X57288712Y-100167455D01*
X57377286Y-99957642D01*
X56515000Y-99095355D01*
X55652714Y-99957642D01*
X53465000Y-99957642D01*
X53465000Y-99295992D01*
X55184814Y-99295992D01*
X55376378Y-99787068D01*
X55407545Y-99833712D01*
X55617358Y-99922286D01*
X56479645Y-99060000D01*
X55617358Y-98197714D01*
X55407545Y-98286288D01*
X55195759Y-98768988D01*
X55184814Y-99295992D01*
X53465000Y-99295992D01*
X53465000Y-97417642D01*
X55652714Y-97417642D01*
X55741288Y-97627455D01*
X56117859Y-97792677D01*
X55787932Y-97921378D01*
X55741288Y-97952545D01*
X55652714Y-98162358D01*
X56515000Y-99024645D01*
X57377286Y-98162358D01*
X57288712Y-97952545D01*
X56912141Y-97787323D01*
X57242068Y-97658622D01*
X57288712Y-97627455D01*
X57377286Y-97417642D01*
X56515000Y-96555355D01*
X55652714Y-97417642D01*
X53465000Y-97417642D01*
X53465000Y-96755992D01*
X55184814Y-96755992D01*
X55376378Y-97247068D01*
X55407545Y-97293712D01*
X55617358Y-97382286D01*
X56479645Y-96520000D01*
X55617358Y-95657714D01*
X55407545Y-95746288D01*
X55195759Y-96228988D01*
X55184814Y-96755992D01*
X53465000Y-96755992D01*
X53465000Y-94877642D01*
X55652714Y-94877642D01*
X55741288Y-95087455D01*
X56117859Y-95252677D01*
X55787932Y-95381378D01*
X55741288Y-95412545D01*
X55652714Y-95622358D01*
X56515000Y-96484645D01*
X57377286Y-95622358D01*
X57288712Y-95412545D01*
X56912141Y-95247323D01*
X57242068Y-95118622D01*
X57288712Y-95087455D01*
X57377286Y-94877642D01*
X56515000Y-94015355D01*
X55652714Y-94877642D01*
X53465000Y-94877642D01*
X53465000Y-94215992D01*
X55184814Y-94215992D01*
X55376378Y-94707068D01*
X55407545Y-94753712D01*
X55617358Y-94842286D01*
X56479645Y-93980000D01*
X56550355Y-93980000D01*
X57412642Y-94842286D01*
X57622455Y-94753712D01*
X57786527Y-94379762D01*
X57931065Y-94729572D01*
X58303468Y-95102625D01*
X58658659Y-95250113D01*
X58305428Y-95396065D01*
X57932375Y-95768468D01*
X57783726Y-96126455D01*
X57653622Y-95792932D01*
X57622455Y-95746288D01*
X57412642Y-95657714D01*
X56550355Y-96520000D01*
X57412642Y-97382286D01*
X57622455Y-97293712D01*
X57786527Y-96919762D01*
X57931065Y-97269572D01*
X58303468Y-97642625D01*
X58658659Y-97790113D01*
X58305428Y-97936065D01*
X57932375Y-98308468D01*
X57783726Y-98666455D01*
X57653622Y-98332932D01*
X57622455Y-98286288D01*
X57412642Y-98197714D01*
X56550355Y-99060000D01*
X57412642Y-99922286D01*
X57622455Y-99833712D01*
X57786527Y-99459762D01*
X57931065Y-99809572D01*
X58303468Y-100182625D01*
X58658659Y-100330113D01*
X58305428Y-100476065D01*
X57932375Y-100848468D01*
X57783726Y-101206455D01*
X57653622Y-100872932D01*
X57622455Y-100826288D01*
X57412642Y-100737714D01*
X56550355Y-101600000D01*
X57412642Y-102462286D01*
X57622455Y-102373712D01*
X57786527Y-101999762D01*
X57931065Y-102349572D01*
X58303468Y-102722625D01*
X58658659Y-102870113D01*
X58305428Y-103016065D01*
X57932375Y-103388468D01*
X57783726Y-103746455D01*
X57653622Y-103412932D01*
X57622455Y-103366288D01*
X57412642Y-103277714D01*
X56550355Y-104140000D01*
X57412642Y-105002286D01*
X57622455Y-104913712D01*
X57786527Y-104539762D01*
X57931065Y-104889572D01*
X58303468Y-105262625D01*
X58790285Y-105464769D01*
X59317402Y-105465229D01*
X59804572Y-105263935D01*
X60177625Y-104891532D01*
X60379769Y-104404715D01*
X60380229Y-103877598D01*
X60178935Y-103390428D01*
X59806532Y-103017375D01*
X59451341Y-102869887D01*
X59804572Y-102723935D01*
X60177625Y-102351532D01*
X60379769Y-101864715D01*
X60380229Y-101337598D01*
X60178935Y-100850428D01*
X59982332Y-100653481D01*
X69724866Y-100653481D01*
X69842604Y-100938429D01*
X69950000Y-101046012D01*
X69950000Y-105000000D01*
X69991866Y-105210476D01*
X70111091Y-105388909D01*
X74450000Y-109727818D01*
X74450000Y-109889680D01*
X74180428Y-110001065D01*
X73807375Y-110373468D01*
X73659887Y-110728659D01*
X73513935Y-110375428D01*
X73141532Y-110002375D01*
X72654715Y-109800231D01*
X72127598Y-109799771D01*
X71640428Y-110001065D01*
X71267375Y-110373468D01*
X71118726Y-110731455D01*
X70988622Y-110397932D01*
X70957455Y-110351288D01*
X70747642Y-110262714D01*
X69885355Y-111125000D01*
X70747642Y-111987286D01*
X70957455Y-111898712D01*
X71121527Y-111524762D01*
X71266065Y-111874572D01*
X71638468Y-112247625D01*
X71996455Y-112396274D01*
X71662932Y-112526378D01*
X71616288Y-112557545D01*
X71527714Y-112767358D01*
X72390000Y-113629645D01*
X73252286Y-112767358D01*
X73163712Y-112557545D01*
X72789762Y-112393473D01*
X73139572Y-112248935D01*
X73512625Y-111876532D01*
X73660113Y-111521341D01*
X73806065Y-111874572D01*
X74178468Y-112247625D01*
X74536455Y-112396274D01*
X74202932Y-112526378D01*
X74156288Y-112557545D01*
X74067714Y-112767358D01*
X74930000Y-113629645D01*
X75792286Y-112767358D01*
X75703712Y-112557545D01*
X75329762Y-112393473D01*
X75679572Y-112248935D01*
X76052625Y-111876532D01*
X76200113Y-111521341D01*
X76346065Y-111874572D01*
X76718468Y-112247625D01*
X77076455Y-112396274D01*
X76742932Y-112526378D01*
X76696288Y-112557545D01*
X76607714Y-112767358D01*
X77470000Y-113629645D01*
X78332286Y-112767358D01*
X78243712Y-112557545D01*
X77869762Y-112393473D01*
X78219572Y-112248935D01*
X78592625Y-111876532D01*
X78740113Y-111521341D01*
X78886065Y-111874572D01*
X79258468Y-112247625D01*
X79616455Y-112396274D01*
X79282932Y-112526378D01*
X79236288Y-112557545D01*
X79147714Y-112767358D01*
X80010000Y-113629645D01*
X80872286Y-112767358D01*
X80783712Y-112557545D01*
X80409762Y-112393473D01*
X80759572Y-112248935D01*
X81132625Y-111876532D01*
X81334769Y-111389715D01*
X81334794Y-111360992D01*
X100269814Y-111360992D01*
X100461378Y-111852068D01*
X100492545Y-111898712D01*
X100702358Y-111987286D01*
X101564645Y-111125000D01*
X101635355Y-111125000D01*
X102497642Y-111987286D01*
X102707455Y-111898712D01*
X102872677Y-111522141D01*
X103001378Y-111852068D01*
X103032545Y-111898712D01*
X103242358Y-111987286D01*
X104104645Y-111125000D01*
X104175355Y-111125000D01*
X105037642Y-111987286D01*
X105247455Y-111898712D01*
X105412677Y-111522141D01*
X105541378Y-111852068D01*
X105572545Y-111898712D01*
X105782358Y-111987286D01*
X106644645Y-111125000D01*
X106715355Y-111125000D01*
X107577642Y-111987286D01*
X107787455Y-111898712D01*
X107952677Y-111522141D01*
X108081378Y-111852068D01*
X108112545Y-111898712D01*
X108322358Y-111987286D01*
X109184645Y-111125000D01*
X109255355Y-111125000D01*
X110117642Y-111987286D01*
X110327455Y-111898712D01*
X110492677Y-111522141D01*
X110621378Y-111852068D01*
X110652545Y-111898712D01*
X110862358Y-111987286D01*
X111724645Y-111125000D01*
X111795355Y-111125000D01*
X112657642Y-111987286D01*
X112867455Y-111898712D01*
X113032677Y-111522141D01*
X113161378Y-111852068D01*
X113192545Y-111898712D01*
X113402358Y-111987286D01*
X114264645Y-111125000D01*
X114335355Y-111125000D01*
X115197642Y-111987286D01*
X115407455Y-111898712D01*
X115572677Y-111522141D01*
X115701378Y-111852068D01*
X115732545Y-111898712D01*
X115942358Y-111987286D01*
X116804645Y-111125000D01*
X116875355Y-111125000D01*
X117737642Y-111987286D01*
X117947455Y-111898712D01*
X118112677Y-111522141D01*
X118241378Y-111852068D01*
X118272545Y-111898712D01*
X118482358Y-111987286D01*
X119344645Y-111125000D01*
X119415355Y-111125000D01*
X120277642Y-111987286D01*
X120487455Y-111898712D01*
X120652677Y-111522141D01*
X120781378Y-111852068D01*
X120812545Y-111898712D01*
X121022358Y-111987286D01*
X121884645Y-111125000D01*
X121955355Y-111125000D01*
X122817642Y-111987286D01*
X123027455Y-111898712D01*
X123192677Y-111522141D01*
X123321378Y-111852068D01*
X123352545Y-111898712D01*
X123562358Y-111987286D01*
X124424645Y-111125000D01*
X124495355Y-111125000D01*
X125357642Y-111987286D01*
X125567455Y-111898712D01*
X125779241Y-111416012D01*
X125790186Y-110889008D01*
X125598622Y-110397932D01*
X125567455Y-110351288D01*
X125357642Y-110262714D01*
X124495355Y-111125000D01*
X124424645Y-111125000D01*
X123562358Y-110262714D01*
X123352545Y-110351288D01*
X123187323Y-110727859D01*
X123058622Y-110397932D01*
X123027455Y-110351288D01*
X122817642Y-110262714D01*
X121955355Y-111125000D01*
X121884645Y-111125000D01*
X121022358Y-110262714D01*
X120812545Y-110351288D01*
X120647323Y-110727859D01*
X120518622Y-110397932D01*
X120487455Y-110351288D01*
X120277642Y-110262714D01*
X119415355Y-111125000D01*
X119344645Y-111125000D01*
X118482358Y-110262714D01*
X118272545Y-110351288D01*
X118107323Y-110727859D01*
X117978622Y-110397932D01*
X117947455Y-110351288D01*
X117737642Y-110262714D01*
X116875355Y-111125000D01*
X116804645Y-111125000D01*
X115942358Y-110262714D01*
X115732545Y-110351288D01*
X115567323Y-110727859D01*
X115438622Y-110397932D01*
X115407455Y-110351288D01*
X115197642Y-110262714D01*
X114335355Y-111125000D01*
X114264645Y-111125000D01*
X113402358Y-110262714D01*
X113192545Y-110351288D01*
X113027323Y-110727859D01*
X112898622Y-110397932D01*
X112867455Y-110351288D01*
X112657642Y-110262714D01*
X111795355Y-111125000D01*
X111724645Y-111125000D01*
X110862358Y-110262714D01*
X110652545Y-110351288D01*
X110487323Y-110727859D01*
X110358622Y-110397932D01*
X110327455Y-110351288D01*
X110117642Y-110262714D01*
X109255355Y-111125000D01*
X109184645Y-111125000D01*
X108322358Y-110262714D01*
X108112545Y-110351288D01*
X107947323Y-110727859D01*
X107818622Y-110397932D01*
X107787455Y-110351288D01*
X107577642Y-110262714D01*
X106715355Y-111125000D01*
X106644645Y-111125000D01*
X105782358Y-110262714D01*
X105572545Y-110351288D01*
X105407323Y-110727859D01*
X105278622Y-110397932D01*
X105247455Y-110351288D01*
X105037642Y-110262714D01*
X104175355Y-111125000D01*
X104104645Y-111125000D01*
X103242358Y-110262714D01*
X103032545Y-110351288D01*
X102867323Y-110727859D01*
X102738622Y-110397932D01*
X102707455Y-110351288D01*
X102497642Y-110262714D01*
X101635355Y-111125000D01*
X101564645Y-111125000D01*
X100702358Y-110262714D01*
X100492545Y-110351288D01*
X100280759Y-110833988D01*
X100269814Y-111360992D01*
X81334794Y-111360992D01*
X81335229Y-110862598D01*
X81133935Y-110375428D01*
X80986123Y-110227358D01*
X100737714Y-110227358D01*
X101600000Y-111089645D01*
X102462286Y-110227358D01*
X103277714Y-110227358D01*
X104140000Y-111089645D01*
X105002286Y-110227358D01*
X105817714Y-110227358D01*
X106680000Y-111089645D01*
X107542286Y-110227358D01*
X108357714Y-110227358D01*
X109220000Y-111089645D01*
X110082286Y-110227358D01*
X110897714Y-110227358D01*
X111760000Y-111089645D01*
X112622286Y-110227358D01*
X113437714Y-110227358D01*
X114300000Y-111089645D01*
X115162286Y-110227358D01*
X115977714Y-110227358D01*
X116840000Y-111089645D01*
X117702286Y-110227358D01*
X118517714Y-110227358D01*
X119380000Y-111089645D01*
X120242286Y-110227358D01*
X121057714Y-110227358D01*
X121920000Y-111089645D01*
X122782286Y-110227358D01*
X123597714Y-110227358D01*
X124460000Y-111089645D01*
X125322286Y-110227358D01*
X125233712Y-110017545D01*
X124751012Y-109805759D01*
X124224008Y-109794814D01*
X123732932Y-109986378D01*
X123686288Y-110017545D01*
X123597714Y-110227358D01*
X122782286Y-110227358D01*
X122693712Y-110017545D01*
X122211012Y-109805759D01*
X121684008Y-109794814D01*
X121192932Y-109986378D01*
X121146288Y-110017545D01*
X121057714Y-110227358D01*
X120242286Y-110227358D01*
X120153712Y-110017545D01*
X119671012Y-109805759D01*
X119144008Y-109794814D01*
X118652932Y-109986378D01*
X118606288Y-110017545D01*
X118517714Y-110227358D01*
X117702286Y-110227358D01*
X117613712Y-110017545D01*
X117131012Y-109805759D01*
X116604008Y-109794814D01*
X116112932Y-109986378D01*
X116066288Y-110017545D01*
X115977714Y-110227358D01*
X115162286Y-110227358D01*
X115073712Y-110017545D01*
X114591012Y-109805759D01*
X114064008Y-109794814D01*
X113572932Y-109986378D01*
X113526288Y-110017545D01*
X113437714Y-110227358D01*
X112622286Y-110227358D01*
X112533712Y-110017545D01*
X112051012Y-109805759D01*
X111524008Y-109794814D01*
X111032932Y-109986378D01*
X110986288Y-110017545D01*
X110897714Y-110227358D01*
X110082286Y-110227358D01*
X109993712Y-110017545D01*
X109511012Y-109805759D01*
X108984008Y-109794814D01*
X108492932Y-109986378D01*
X108446288Y-110017545D01*
X108357714Y-110227358D01*
X107542286Y-110227358D01*
X107453712Y-110017545D01*
X106971012Y-109805759D01*
X106444008Y-109794814D01*
X105952932Y-109986378D01*
X105906288Y-110017545D01*
X105817714Y-110227358D01*
X105002286Y-110227358D01*
X104913712Y-110017545D01*
X104431012Y-109805759D01*
X103904008Y-109794814D01*
X103412932Y-109986378D01*
X103366288Y-110017545D01*
X103277714Y-110227358D01*
X102462286Y-110227358D01*
X102373712Y-110017545D01*
X101891012Y-109805759D01*
X101364008Y-109794814D01*
X100872932Y-109986378D01*
X100826288Y-110017545D01*
X100737714Y-110227358D01*
X80986123Y-110227358D01*
X80761532Y-110002375D01*
X80274715Y-109800231D01*
X79747598Y-109799771D01*
X79260428Y-110001065D01*
X78887375Y-110373468D01*
X78739887Y-110728659D01*
X78593935Y-110375428D01*
X78221532Y-110002375D01*
X77734715Y-109800231D01*
X77207598Y-109799771D01*
X76720428Y-110001065D01*
X76347375Y-110373468D01*
X76199887Y-110728659D01*
X76053935Y-110375428D01*
X75681532Y-110002375D01*
X75550000Y-109947758D01*
X75550000Y-109500000D01*
X75508134Y-109289524D01*
X75388909Y-109111091D01*
X72652569Y-106374751D01*
X80390604Y-106374751D01*
X80491349Y-106594955D01*
X81010183Y-106823400D01*
X81576945Y-106835907D01*
X82105351Y-106630571D01*
X82158651Y-106594955D01*
X82259396Y-106374751D01*
X86890604Y-106374751D01*
X86991349Y-106594955D01*
X87510183Y-106823400D01*
X88076945Y-106835907D01*
X88605351Y-106630571D01*
X88658651Y-106594955D01*
X88759396Y-106374751D01*
X87825000Y-105440355D01*
X86890604Y-106374751D01*
X82259396Y-106374751D01*
X81325000Y-105440355D01*
X80390604Y-106374751D01*
X72652569Y-106374751D01*
X71934763Y-105656945D01*
X79894093Y-105656945D01*
X80099429Y-106185351D01*
X80135045Y-106238651D01*
X80355249Y-106339396D01*
X81289645Y-105405000D01*
X81360355Y-105405000D01*
X82294751Y-106339396D01*
X82514955Y-106238651D01*
X82743400Y-105719817D01*
X82744787Y-105656945D01*
X86394093Y-105656945D01*
X86599429Y-106185351D01*
X86635045Y-106238651D01*
X86855249Y-106339396D01*
X87789645Y-105405000D01*
X87860355Y-105405000D01*
X88794751Y-106339396D01*
X89014955Y-106238651D01*
X89243400Y-105719817D01*
X89255907Y-105153055D01*
X89050571Y-104624649D01*
X89014955Y-104571349D01*
X88794751Y-104470604D01*
X87860355Y-105405000D01*
X87789645Y-105405000D01*
X86855249Y-104470604D01*
X86635045Y-104571349D01*
X86406600Y-105090183D01*
X86394093Y-105656945D01*
X82744787Y-105656945D01*
X82755907Y-105153055D01*
X82550571Y-104624649D01*
X82514955Y-104571349D01*
X82294751Y-104470604D01*
X81360355Y-105405000D01*
X81289645Y-105405000D01*
X80355249Y-104470604D01*
X80135045Y-104571349D01*
X79906600Y-105090183D01*
X79894093Y-105656945D01*
X71934763Y-105656945D01*
X71050000Y-104772182D01*
X71050000Y-104435249D01*
X80390604Y-104435249D01*
X81325000Y-105369645D01*
X82259396Y-104435249D01*
X86890604Y-104435249D01*
X87825000Y-105369645D01*
X88759396Y-104435249D01*
X88658651Y-104215045D01*
X88139817Y-103986600D01*
X87573055Y-103974093D01*
X87044649Y-104179429D01*
X86991349Y-104215045D01*
X86890604Y-104435249D01*
X82259396Y-104435249D01*
X82158651Y-104215045D01*
X81639817Y-103986600D01*
X81073055Y-103974093D01*
X80544649Y-104179429D01*
X80491349Y-104215045D01*
X80390604Y-104435249D01*
X71050000Y-104435249D01*
X71050000Y-103513402D01*
X130119771Y-103513402D01*
X130321065Y-104000572D01*
X130693468Y-104373625D01*
X131180285Y-104575769D01*
X131707402Y-104576229D01*
X132194572Y-104374935D01*
X132567625Y-104002532D01*
X132769769Y-103515715D01*
X132770229Y-102988598D01*
X132568935Y-102501428D01*
X132196532Y-102128375D01*
X131709715Y-101926231D01*
X131182598Y-101925771D01*
X130695428Y-102127065D01*
X130322375Y-102499468D01*
X130120231Y-102986285D01*
X130119771Y-103513402D01*
X71050000Y-103513402D01*
X71050000Y-101187206D01*
X79899754Y-101187206D01*
X80116240Y-101711143D01*
X80516749Y-102112351D01*
X81040307Y-102329752D01*
X81607206Y-102330246D01*
X82131143Y-102113760D01*
X82532351Y-101713251D01*
X82749752Y-101189693D01*
X82749754Y-101187206D01*
X86399754Y-101187206D01*
X86616240Y-101711143D01*
X87016749Y-102112351D01*
X87540307Y-102329752D01*
X88107206Y-102330246D01*
X88631143Y-102113760D01*
X89032351Y-101713251D01*
X89249752Y-101189693D01*
X89250246Y-100622794D01*
X89033760Y-100098857D01*
X88633251Y-99697649D01*
X88109693Y-99480248D01*
X87542794Y-99479754D01*
X87018857Y-99696240D01*
X86617649Y-100096749D01*
X86400248Y-100620307D01*
X86399754Y-101187206D01*
X82749754Y-101187206D01*
X82750246Y-100622794D01*
X82533760Y-100098857D01*
X82133251Y-99697649D01*
X81609693Y-99480248D01*
X81042794Y-99479754D01*
X80518857Y-99696240D01*
X80117649Y-100096749D01*
X79900248Y-100620307D01*
X79899754Y-101187206D01*
X71050000Y-101187206D01*
X71050000Y-101046019D01*
X71156630Y-100939575D01*
X71274865Y-100654833D01*
X71275134Y-100346519D01*
X71157396Y-100061571D01*
X70939575Y-99843370D01*
X70654833Y-99725135D01*
X70346519Y-99724866D01*
X70061571Y-99842604D01*
X69843370Y-100060425D01*
X69725135Y-100345167D01*
X69724866Y-100653481D01*
X59982332Y-100653481D01*
X59806532Y-100477375D01*
X59451341Y-100329887D01*
X59804572Y-100183935D01*
X60177625Y-99811532D01*
X60379769Y-99324715D01*
X60380229Y-98797598D01*
X60296898Y-98595920D01*
X62888909Y-96003909D01*
X63008134Y-95825476D01*
X63050001Y-95615000D01*
X63050000Y-95614995D01*
X63050000Y-89162402D01*
X83129771Y-89162402D01*
X83331065Y-89649572D01*
X83703468Y-90022625D01*
X84190285Y-90224769D01*
X84717402Y-90225229D01*
X85204572Y-90023935D01*
X85577625Y-89651532D01*
X85779769Y-89164715D01*
X85780229Y-88637598D01*
X85578935Y-88150428D01*
X85206532Y-87777375D01*
X84719715Y-87575231D01*
X84192598Y-87574771D01*
X83705428Y-87776065D01*
X83332375Y-88148468D01*
X83130231Y-88635285D01*
X83129771Y-89162402D01*
X63050000Y-89162402D01*
X63050000Y-85987402D01*
X83129771Y-85987402D01*
X83331065Y-86474572D01*
X83703468Y-86847625D01*
X84190285Y-87049769D01*
X84717402Y-87050229D01*
X85204572Y-86848935D01*
X85577625Y-86476532D01*
X85779769Y-85989715D01*
X85780229Y-85462598D01*
X85643320Y-85131250D01*
X87075000Y-85131250D01*
X87075000Y-85709538D01*
X87139702Y-85865743D01*
X87259257Y-85985298D01*
X87415462Y-86050000D01*
X88118750Y-86050000D01*
X88225000Y-85943750D01*
X88225000Y-85025000D01*
X88275000Y-85025000D01*
X88275000Y-85943750D01*
X88381250Y-86050000D01*
X89084538Y-86050000D01*
X89240743Y-85985298D01*
X89360298Y-85865743D01*
X89425000Y-85709538D01*
X89425000Y-85131250D01*
X89318750Y-85025000D01*
X88275000Y-85025000D01*
X88225000Y-85025000D01*
X87181250Y-85025000D01*
X87075000Y-85131250D01*
X85643320Y-85131250D01*
X85578935Y-84975428D01*
X85206532Y-84602375D01*
X84719715Y-84400231D01*
X84192598Y-84399771D01*
X83705428Y-84601065D01*
X83332375Y-84973468D01*
X83130231Y-85460285D01*
X83129771Y-85987402D01*
X63050000Y-85987402D01*
X63050000Y-84290462D01*
X87075000Y-84290462D01*
X87075000Y-84868750D01*
X87181250Y-84975000D01*
X88225000Y-84975000D01*
X88225000Y-84056250D01*
X88275000Y-84056250D01*
X88275000Y-84975000D01*
X89318750Y-84975000D01*
X89425000Y-84868750D01*
X89425000Y-84375000D01*
X89566674Y-84375000D01*
X89566674Y-85625000D01*
X89596309Y-85782496D01*
X89689389Y-85927146D01*
X89831412Y-86024186D01*
X90000000Y-86058326D01*
X90000000Y-90750000D01*
X90057090Y-91037013D01*
X90219670Y-91280330D01*
X92817843Y-93878503D01*
X92842604Y-93938429D01*
X93060425Y-94156630D01*
X93345167Y-94274865D01*
X93653481Y-94275134D01*
X93938429Y-94157396D01*
X94156630Y-93939575D01*
X94274865Y-93654833D01*
X94275134Y-93346519D01*
X94157396Y-93061571D01*
X93939575Y-92843370D01*
X93878790Y-92818130D01*
X93398062Y-92337402D01*
X94559771Y-92337402D01*
X94761065Y-92824572D01*
X95133468Y-93197625D01*
X95620285Y-93399769D01*
X96147402Y-93400229D01*
X96634572Y-93198935D01*
X97007625Y-92826532D01*
X97209769Y-92339715D01*
X97209771Y-92337402D01*
X97734771Y-92337402D01*
X97936065Y-92824572D01*
X98308468Y-93197625D01*
X98795285Y-93399769D01*
X99322402Y-93400229D01*
X99809572Y-93198935D01*
X100182625Y-92826532D01*
X100384769Y-92339715D01*
X100385229Y-91812598D01*
X100183935Y-91325428D01*
X99811532Y-90952375D01*
X99324715Y-90750231D01*
X98797598Y-90749771D01*
X98310428Y-90951065D01*
X97937375Y-91323468D01*
X97735231Y-91810285D01*
X97734771Y-92337402D01*
X97209771Y-92337402D01*
X97210229Y-91812598D01*
X97008935Y-91325428D01*
X96636532Y-90952375D01*
X96149715Y-90750231D01*
X95622598Y-90749771D01*
X95135428Y-90951065D01*
X94762375Y-91323468D01*
X94560231Y-91810285D01*
X94559771Y-92337402D01*
X93398062Y-92337402D01*
X91500000Y-90439340D01*
X91500000Y-89381250D01*
X95450000Y-89381250D01*
X95450000Y-90084538D01*
X95514702Y-90240743D01*
X95634257Y-90360298D01*
X95790462Y-90425000D01*
X96368750Y-90425000D01*
X96475000Y-90318750D01*
X96475000Y-89275000D01*
X96525000Y-89275000D01*
X96525000Y-90318750D01*
X96631250Y-90425000D01*
X97209538Y-90425000D01*
X97365743Y-90360298D01*
X97485298Y-90240743D01*
X97500000Y-90205249D01*
X97514702Y-90240743D01*
X97634257Y-90360298D01*
X97790462Y-90425000D01*
X98368750Y-90425000D01*
X98475000Y-90318750D01*
X98475000Y-89275000D01*
X98525000Y-89275000D01*
X98525000Y-90318750D01*
X98631250Y-90425000D01*
X99209538Y-90425000D01*
X99365743Y-90360298D01*
X99485298Y-90240743D01*
X99550000Y-90084538D01*
X99550000Y-89381250D01*
X99443750Y-89275000D01*
X98525000Y-89275000D01*
X98475000Y-89275000D01*
X97556250Y-89275000D01*
X97500000Y-89331250D01*
X97443750Y-89275000D01*
X96525000Y-89275000D01*
X96475000Y-89275000D01*
X95556250Y-89275000D01*
X95450000Y-89381250D01*
X91500000Y-89381250D01*
X91500000Y-88415462D01*
X95450000Y-88415462D01*
X95450000Y-89118750D01*
X95556250Y-89225000D01*
X96475000Y-89225000D01*
X96475000Y-88181250D01*
X96525000Y-88181250D01*
X96525000Y-89225000D01*
X97443750Y-89225000D01*
X97500000Y-89168750D01*
X97556250Y-89225000D01*
X98475000Y-89225000D01*
X98475000Y-88181250D01*
X98525000Y-88181250D01*
X98525000Y-89225000D01*
X99443750Y-89225000D01*
X99550000Y-89118750D01*
X99550000Y-88415462D01*
X99485298Y-88259257D01*
X99365743Y-88139702D01*
X99209538Y-88075000D01*
X98631250Y-88075000D01*
X98525000Y-88181250D01*
X98475000Y-88181250D01*
X98368750Y-88075000D01*
X97790462Y-88075000D01*
X97634257Y-88139702D01*
X97514702Y-88259257D01*
X97500000Y-88294751D01*
X97485298Y-88259257D01*
X97365743Y-88139702D01*
X97209538Y-88075000D01*
X96631250Y-88075000D01*
X96525000Y-88181250D01*
X96475000Y-88181250D01*
X96368750Y-88075000D01*
X95790462Y-88075000D01*
X95634257Y-88139702D01*
X95514702Y-88259257D01*
X95450000Y-88415462D01*
X91500000Y-88415462D01*
X91500000Y-86058326D01*
X91657496Y-86028691D01*
X91702082Y-86000000D01*
X95441674Y-86000000D01*
X95441674Y-87500000D01*
X95471309Y-87657496D01*
X95564389Y-87802146D01*
X95706412Y-87899186D01*
X95875000Y-87933326D01*
X97125000Y-87933326D01*
X97282496Y-87903691D01*
X97427146Y-87810611D01*
X97500630Y-87703063D01*
X97564389Y-87802146D01*
X97706412Y-87899186D01*
X97875000Y-87933326D01*
X99125000Y-87933326D01*
X99282496Y-87903691D01*
X99299666Y-87892642D01*
X130582714Y-87892642D01*
X130671288Y-88102455D01*
X131153988Y-88314241D01*
X131680992Y-88325186D01*
X132172068Y-88133622D01*
X132218712Y-88102455D01*
X132307286Y-87892642D01*
X131445000Y-87030355D01*
X130582714Y-87892642D01*
X99299666Y-87892642D01*
X99427146Y-87810611D01*
X99524186Y-87668588D01*
X99558326Y-87500000D01*
X99558326Y-86000000D01*
X99528691Y-85842504D01*
X99435611Y-85697854D01*
X99399774Y-85673368D01*
X99438429Y-85657396D01*
X99656630Y-85439575D01*
X99774865Y-85154833D01*
X99775134Y-84846519D01*
X99657396Y-84561571D01*
X99439575Y-84343370D01*
X99154833Y-84225135D01*
X98846519Y-84224866D01*
X98561571Y-84342604D01*
X98343370Y-84560425D01*
X98225135Y-84845167D01*
X98225002Y-84997180D01*
X98111091Y-85111091D01*
X97991866Y-85289524D01*
X97950000Y-85500000D01*
X97950000Y-85566674D01*
X97875000Y-85566674D01*
X97717504Y-85596309D01*
X97572854Y-85689389D01*
X97499370Y-85796937D01*
X97435611Y-85697854D01*
X97293588Y-85600814D01*
X97125000Y-85566674D01*
X95875000Y-85566674D01*
X95717504Y-85596309D01*
X95572854Y-85689389D01*
X95475814Y-85831412D01*
X95441674Y-86000000D01*
X91702082Y-86000000D01*
X91802146Y-85935611D01*
X91899186Y-85793588D01*
X91933326Y-85625000D01*
X91933326Y-85550000D01*
X92000000Y-85550000D01*
X92210476Y-85508134D01*
X92388909Y-85388909D01*
X92502815Y-85275003D01*
X92653481Y-85275134D01*
X92938429Y-85157396D01*
X93156630Y-84939575D01*
X93274865Y-84654833D01*
X93275134Y-84346519D01*
X93157396Y-84061571D01*
X92939575Y-83843370D01*
X92654833Y-83725135D01*
X92346519Y-83724866D01*
X92061571Y-83842604D01*
X91843370Y-84060425D01*
X91827385Y-84098921D01*
X91810611Y-84072854D01*
X91668588Y-83975814D01*
X91500000Y-83941674D01*
X90000000Y-83941674D01*
X89842504Y-83971309D01*
X89697854Y-84064389D01*
X89600814Y-84206412D01*
X89566674Y-84375000D01*
X89425000Y-84375000D01*
X89425000Y-84290462D01*
X89360298Y-84134257D01*
X89240743Y-84014702D01*
X89084538Y-83950000D01*
X88381250Y-83950000D01*
X88275000Y-84056250D01*
X88225000Y-84056250D01*
X88118750Y-83950000D01*
X87415462Y-83950000D01*
X87259257Y-84014702D01*
X87139702Y-84134257D01*
X87075000Y-84290462D01*
X63050000Y-84290462D01*
X63050000Y-83653481D01*
X100224866Y-83653481D01*
X100342604Y-83938429D01*
X100560425Y-84156630D01*
X100845167Y-84274865D01*
X101153481Y-84275134D01*
X101438429Y-84157396D01*
X101546012Y-84050000D01*
X101566674Y-84050000D01*
X101566674Y-84625000D01*
X101596309Y-84782496D01*
X101689389Y-84927146D01*
X101831412Y-85024186D01*
X102000000Y-85058326D01*
X102200000Y-85058326D01*
X102200000Y-85195674D01*
X102000000Y-85195674D01*
X101842504Y-85225309D01*
X101697854Y-85318389D01*
X101600814Y-85460412D01*
X101566674Y-85629000D01*
X101566674Y-86879000D01*
X101596309Y-87036496D01*
X101689389Y-87181146D01*
X101831412Y-87278186D01*
X102000000Y-87312326D01*
X103500000Y-87312326D01*
X103657496Y-87282691D01*
X103802146Y-87189611D01*
X103899186Y-87047588D01*
X103933326Y-86879000D01*
X103933326Y-86385250D01*
X104075000Y-86385250D01*
X104075000Y-86963538D01*
X104139702Y-87119743D01*
X104259257Y-87239298D01*
X104415462Y-87304000D01*
X105118750Y-87304000D01*
X105225000Y-87197750D01*
X105225000Y-86279000D01*
X105275000Y-86279000D01*
X105275000Y-87197750D01*
X105381250Y-87304000D01*
X106084538Y-87304000D01*
X106240743Y-87239298D01*
X106249049Y-87230992D01*
X130114814Y-87230992D01*
X130306378Y-87722068D01*
X130337545Y-87768712D01*
X130547358Y-87857286D01*
X131409645Y-86995000D01*
X130547358Y-86132714D01*
X130337545Y-86221288D01*
X130125759Y-86703988D01*
X130114814Y-87230992D01*
X106249049Y-87230992D01*
X106360298Y-87119743D01*
X106425000Y-86963538D01*
X106425000Y-86385250D01*
X106318750Y-86279000D01*
X105275000Y-86279000D01*
X105225000Y-86279000D01*
X104181250Y-86279000D01*
X104075000Y-86385250D01*
X103933326Y-86385250D01*
X103933326Y-85629000D01*
X103917420Y-85544462D01*
X104075000Y-85544462D01*
X104075000Y-86122750D01*
X104181250Y-86229000D01*
X105225000Y-86229000D01*
X105225000Y-85310250D01*
X105275000Y-85310250D01*
X105275000Y-86229000D01*
X106318750Y-86229000D01*
X106425000Y-86122750D01*
X106425000Y-85544462D01*
X106360298Y-85388257D01*
X106324683Y-85352642D01*
X130582714Y-85352642D01*
X130671288Y-85562455D01*
X131047859Y-85727677D01*
X130717932Y-85856378D01*
X130671288Y-85887545D01*
X130582714Y-86097358D01*
X131445000Y-86959645D01*
X132307286Y-86097358D01*
X132218712Y-85887545D01*
X131842141Y-85722323D01*
X132172068Y-85593622D01*
X132218712Y-85562455D01*
X132307286Y-85352642D01*
X131445000Y-84490355D01*
X130582714Y-85352642D01*
X106324683Y-85352642D01*
X106240743Y-85268702D01*
X106084538Y-85204000D01*
X105381250Y-85204000D01*
X105275000Y-85310250D01*
X105225000Y-85310250D01*
X105118750Y-85204000D01*
X104415462Y-85204000D01*
X104259257Y-85268702D01*
X104139702Y-85388257D01*
X104075000Y-85544462D01*
X103917420Y-85544462D01*
X103903691Y-85471504D01*
X103810611Y-85326854D01*
X103668588Y-85229814D01*
X103500000Y-85195674D01*
X103300000Y-85195674D01*
X103300000Y-85058326D01*
X103500000Y-85058326D01*
X103657496Y-85028691D01*
X103802146Y-84935611D01*
X103899186Y-84793588D01*
X103933326Y-84625000D01*
X103933326Y-84131250D01*
X104075000Y-84131250D01*
X104075000Y-84709538D01*
X104139702Y-84865743D01*
X104259257Y-84985298D01*
X104415462Y-85050000D01*
X105118750Y-85050000D01*
X105225000Y-84943750D01*
X105225000Y-84025000D01*
X105275000Y-84025000D01*
X105275000Y-84943750D01*
X105381250Y-85050000D01*
X106084538Y-85050000D01*
X106240743Y-84985298D01*
X106360298Y-84865743D01*
X106425000Y-84709538D01*
X106425000Y-84690992D01*
X130114814Y-84690992D01*
X130306378Y-85182068D01*
X130337545Y-85228712D01*
X130547358Y-85317286D01*
X131409645Y-84455000D01*
X130547358Y-83592714D01*
X130337545Y-83681288D01*
X130125759Y-84163988D01*
X130114814Y-84690992D01*
X106425000Y-84690992D01*
X106425000Y-84131250D01*
X106318750Y-84025000D01*
X105275000Y-84025000D01*
X105225000Y-84025000D01*
X104181250Y-84025000D01*
X104075000Y-84131250D01*
X103933326Y-84131250D01*
X103933326Y-83375000D01*
X103917420Y-83290462D01*
X104075000Y-83290462D01*
X104075000Y-83868750D01*
X104181250Y-83975000D01*
X105225000Y-83975000D01*
X105225000Y-83056250D01*
X105275000Y-83056250D01*
X105275000Y-83975000D01*
X106318750Y-83975000D01*
X106425000Y-83868750D01*
X106425000Y-83290462D01*
X106360298Y-83134257D01*
X106240743Y-83014702D01*
X106084538Y-82950000D01*
X105381250Y-82950000D01*
X105275000Y-83056250D01*
X105225000Y-83056250D01*
X105118750Y-82950000D01*
X104415462Y-82950000D01*
X104259257Y-83014702D01*
X104139702Y-83134257D01*
X104075000Y-83290462D01*
X103917420Y-83290462D01*
X103903691Y-83217504D01*
X103810611Y-83072854D01*
X103668588Y-82975814D01*
X103500000Y-82941674D01*
X102000000Y-82941674D01*
X101955751Y-82950000D01*
X101546019Y-82950000D01*
X101439575Y-82843370D01*
X101364996Y-82812402D01*
X114879771Y-82812402D01*
X115081065Y-83299572D01*
X115453468Y-83672625D01*
X115940285Y-83874769D01*
X116467402Y-83875229D01*
X116954572Y-83673935D01*
X117327625Y-83301532D01*
X117475113Y-82946341D01*
X117621065Y-83299572D01*
X117993468Y-83672625D01*
X118480285Y-83874769D01*
X119007402Y-83875229D01*
X119494572Y-83673935D01*
X119721259Y-83447642D01*
X120422714Y-83447642D01*
X120511288Y-83657455D01*
X120993988Y-83869241D01*
X121520992Y-83880186D01*
X122012068Y-83688622D01*
X122058712Y-83657455D01*
X122147286Y-83447642D01*
X121285000Y-82585355D01*
X120422714Y-83447642D01*
X119721259Y-83447642D01*
X119867625Y-83301532D01*
X120016274Y-82943545D01*
X120146378Y-83277068D01*
X120177545Y-83323712D01*
X120387358Y-83412286D01*
X121249645Y-82550000D01*
X121320355Y-82550000D01*
X122182642Y-83412286D01*
X122392455Y-83323712D01*
X122604241Y-82841012D01*
X122604830Y-82812642D01*
X130582714Y-82812642D01*
X130671288Y-83022455D01*
X131047859Y-83187677D01*
X130717932Y-83316378D01*
X130671288Y-83347545D01*
X130582714Y-83557358D01*
X131445000Y-84419645D01*
X132307286Y-83557358D01*
X132218712Y-83347545D01*
X131842141Y-83182323D01*
X132172068Y-83053622D01*
X132218712Y-83022455D01*
X132307286Y-82812642D01*
X131445000Y-81950355D01*
X130582714Y-82812642D01*
X122604830Y-82812642D01*
X122615186Y-82314008D01*
X122551596Y-82150992D01*
X130114814Y-82150992D01*
X130306378Y-82642068D01*
X130337545Y-82688712D01*
X130547358Y-82777286D01*
X131409645Y-81915000D01*
X130547358Y-81052714D01*
X130337545Y-81141288D01*
X130125759Y-81623988D01*
X130114814Y-82150992D01*
X122551596Y-82150992D01*
X122423622Y-81822932D01*
X122392455Y-81776288D01*
X122182642Y-81687714D01*
X121320355Y-82550000D01*
X121249645Y-82550000D01*
X120387358Y-81687714D01*
X120177545Y-81776288D01*
X120013473Y-82150238D01*
X119868935Y-81800428D01*
X119721123Y-81652358D01*
X120422714Y-81652358D01*
X121285000Y-82514645D01*
X122147286Y-81652358D01*
X122058712Y-81442545D01*
X121576012Y-81230759D01*
X121049008Y-81219814D01*
X120557932Y-81411378D01*
X120511288Y-81442545D01*
X120422714Y-81652358D01*
X119721123Y-81652358D01*
X119496532Y-81427375D01*
X119009715Y-81225231D01*
X118482598Y-81224771D01*
X117995428Y-81426065D01*
X117622375Y-81798468D01*
X117474887Y-82153659D01*
X117328935Y-81800428D01*
X116956532Y-81427375D01*
X116469715Y-81225231D01*
X115942598Y-81224771D01*
X115455428Y-81426065D01*
X115082375Y-81798468D01*
X114880231Y-82285285D01*
X114879771Y-82812402D01*
X101364996Y-82812402D01*
X101154833Y-82725135D01*
X100846519Y-82724866D01*
X100561571Y-82842604D01*
X100343370Y-83060425D01*
X100225135Y-83345167D01*
X100224866Y-83653481D01*
X63050000Y-83653481D01*
X63050000Y-82631250D01*
X86975000Y-82631250D01*
X86975000Y-83234538D01*
X87039702Y-83390743D01*
X87159257Y-83510298D01*
X87315462Y-83575000D01*
X88018750Y-83575000D01*
X88125000Y-83468750D01*
X88125000Y-82525000D01*
X88175000Y-82525000D01*
X88175000Y-83468750D01*
X88281250Y-83575000D01*
X88984538Y-83575000D01*
X89140743Y-83510298D01*
X89260298Y-83390743D01*
X89325000Y-83234538D01*
X89325000Y-82631250D01*
X89218750Y-82525000D01*
X88175000Y-82525000D01*
X88125000Y-82525000D01*
X87081250Y-82525000D01*
X86975000Y-82631250D01*
X63050000Y-82631250D01*
X63050000Y-81765462D01*
X86975000Y-81765462D01*
X86975000Y-82368750D01*
X87081250Y-82475000D01*
X88125000Y-82475000D01*
X88125000Y-81531250D01*
X88175000Y-81531250D01*
X88175000Y-82475000D01*
X89218750Y-82475000D01*
X89325000Y-82368750D01*
X89325000Y-81850000D01*
X89666674Y-81850000D01*
X89666674Y-83150000D01*
X89696309Y-83307496D01*
X89789389Y-83452146D01*
X89931412Y-83549186D01*
X90100000Y-83583326D01*
X91600000Y-83583326D01*
X91757496Y-83553691D01*
X91902146Y-83460611D01*
X91999186Y-83318588D01*
X92033326Y-83150000D01*
X92033326Y-83129484D01*
X92060425Y-83156630D01*
X92345167Y-83274865D01*
X92653481Y-83275134D01*
X92938429Y-83157396D01*
X93156630Y-82939575D01*
X93274865Y-82654833D01*
X93275134Y-82346519D01*
X93157396Y-82061571D01*
X92939575Y-81843370D01*
X92654833Y-81725135D01*
X92346519Y-81724866D01*
X92061571Y-81842604D01*
X92033326Y-81870800D01*
X92033326Y-81850000D01*
X92003691Y-81692504D01*
X91910611Y-81547854D01*
X91768588Y-81450814D01*
X91600000Y-81416674D01*
X90100000Y-81416674D01*
X89942504Y-81446309D01*
X89797854Y-81539389D01*
X89700814Y-81681412D01*
X89666674Y-81850000D01*
X89325000Y-81850000D01*
X89325000Y-81765462D01*
X89260298Y-81609257D01*
X89140743Y-81489702D01*
X88984538Y-81425000D01*
X88281250Y-81425000D01*
X88175000Y-81531250D01*
X88125000Y-81531250D01*
X88018750Y-81425000D01*
X87315462Y-81425000D01*
X87159257Y-81489702D01*
X87039702Y-81609257D01*
X86975000Y-81765462D01*
X63050000Y-81765462D01*
X63050000Y-80272642D01*
X130582714Y-80272642D01*
X130671288Y-80482455D01*
X131047859Y-80647677D01*
X130717932Y-80776378D01*
X130671288Y-80807545D01*
X130582714Y-81017358D01*
X131445000Y-81879645D01*
X132307286Y-81017358D01*
X132218712Y-80807545D01*
X131842141Y-80642323D01*
X132172068Y-80513622D01*
X132218712Y-80482455D01*
X132307286Y-80272642D01*
X131445000Y-79410355D01*
X130582714Y-80272642D01*
X63050000Y-80272642D01*
X63050000Y-79610992D01*
X130114814Y-79610992D01*
X130306378Y-80102068D01*
X130337545Y-80148712D01*
X130547358Y-80237286D01*
X131409645Y-79375000D01*
X130547358Y-78512714D01*
X130337545Y-78601288D01*
X130125759Y-79083988D01*
X130114814Y-79610992D01*
X63050000Y-79610992D01*
X63050000Y-78153481D01*
X64224866Y-78153481D01*
X64342604Y-78438429D01*
X64560425Y-78656630D01*
X64845167Y-78774865D01*
X65153481Y-78775134D01*
X65438429Y-78657396D01*
X65656630Y-78439575D01*
X65774865Y-78154833D01*
X65774998Y-78002820D01*
X69002815Y-74775003D01*
X69153481Y-74775134D01*
X69275078Y-74724891D01*
X69225135Y-74845167D01*
X69225002Y-74997181D01*
X66497185Y-77724997D01*
X66346519Y-77724866D01*
X66061571Y-77842604D01*
X65843370Y-78060425D01*
X65725135Y-78345167D01*
X65724866Y-78653481D01*
X65842604Y-78938429D01*
X66060425Y-79156630D01*
X66345167Y-79274865D01*
X66653481Y-79275134D01*
X66938429Y-79157396D01*
X67156630Y-78939575D01*
X67274865Y-78654833D01*
X67274998Y-78502820D01*
X67410416Y-78367402D01*
X71064771Y-78367402D01*
X71266065Y-78854572D01*
X71638468Y-79227625D01*
X72125285Y-79429769D01*
X72652402Y-79430229D01*
X73139572Y-79228935D01*
X73512625Y-78856532D01*
X73660113Y-78501341D01*
X73806065Y-78854572D01*
X74178468Y-79227625D01*
X74665285Y-79429769D01*
X75192402Y-79430229D01*
X75679572Y-79228935D01*
X76052625Y-78856532D01*
X76200113Y-78501341D01*
X76346065Y-78854572D01*
X76718468Y-79227625D01*
X77205285Y-79429769D01*
X77732402Y-79430229D01*
X78219572Y-79228935D01*
X78592625Y-78856532D01*
X78794769Y-78369715D01*
X78795229Y-77842598D01*
X78593935Y-77355428D01*
X78221532Y-76982375D01*
X77734715Y-76780231D01*
X77207598Y-76779771D01*
X76720428Y-76981065D01*
X76347375Y-77353468D01*
X76199887Y-77708659D01*
X76053935Y-77355428D01*
X75681532Y-76982375D01*
X75194715Y-76780231D01*
X74667598Y-76779771D01*
X74180428Y-76981065D01*
X73807375Y-77353468D01*
X73659887Y-77708659D01*
X73513935Y-77355428D01*
X73141532Y-76982375D01*
X72654715Y-76780231D01*
X72127598Y-76779771D01*
X71640428Y-76981065D01*
X71267375Y-77353468D01*
X71065231Y-77840285D01*
X71064771Y-78367402D01*
X67410416Y-78367402D01*
X70002815Y-75775003D01*
X70153481Y-75775134D01*
X70438429Y-75657396D01*
X70656630Y-75439575D01*
X70774865Y-75154833D01*
X70775134Y-74846519D01*
X70657396Y-74561571D01*
X70439575Y-74343370D01*
X70154833Y-74225135D01*
X69846519Y-74224866D01*
X69724922Y-74275109D01*
X69774865Y-74154833D01*
X69775000Y-74000000D01*
X91441674Y-74000000D01*
X91441674Y-75500000D01*
X91471309Y-75657496D01*
X91564389Y-75802146D01*
X91706412Y-75899186D01*
X91875000Y-75933326D01*
X91950000Y-75933326D01*
X91950000Y-75953981D01*
X91843370Y-76060425D01*
X91725135Y-76345167D01*
X91724866Y-76653481D01*
X91842604Y-76938429D01*
X92060425Y-77156630D01*
X92345167Y-77274865D01*
X92653481Y-77275134D01*
X92938429Y-77157396D01*
X92942350Y-77153481D01*
X100224866Y-77153481D01*
X100342604Y-77438429D01*
X100403984Y-77499916D01*
X100343370Y-77560425D01*
X100225135Y-77845167D01*
X100224866Y-78153481D01*
X100342604Y-78438429D01*
X100560425Y-78656630D01*
X100845167Y-78774865D01*
X101153481Y-78775134D01*
X101438429Y-78657396D01*
X101546012Y-78550000D01*
X101566674Y-78550000D01*
X101566674Y-78625000D01*
X101596309Y-78782496D01*
X101689389Y-78927146D01*
X101831412Y-79024186D01*
X102000000Y-79058326D01*
X103500000Y-79058326D01*
X103657496Y-79028691D01*
X103802146Y-78935611D01*
X103899186Y-78793588D01*
X103933326Y-78625000D01*
X103933326Y-78131250D01*
X104075000Y-78131250D01*
X104075000Y-78709538D01*
X104139702Y-78865743D01*
X104259257Y-78985298D01*
X104415462Y-79050000D01*
X105118750Y-79050000D01*
X105225000Y-78943750D01*
X105225000Y-78025000D01*
X105275000Y-78025000D01*
X105275000Y-78943750D01*
X105381250Y-79050000D01*
X106084538Y-79050000D01*
X106240743Y-78985298D01*
X106360298Y-78865743D01*
X106425000Y-78709538D01*
X106425000Y-78131250D01*
X106318750Y-78025000D01*
X105275000Y-78025000D01*
X105225000Y-78025000D01*
X104181250Y-78025000D01*
X104075000Y-78131250D01*
X103933326Y-78131250D01*
X103933326Y-77375000D01*
X103917420Y-77290462D01*
X104075000Y-77290462D01*
X104075000Y-77868750D01*
X104181250Y-77975000D01*
X105225000Y-77975000D01*
X105225000Y-77056250D01*
X105275000Y-77056250D01*
X105275000Y-77975000D01*
X106318750Y-77975000D01*
X106425000Y-77868750D01*
X106425000Y-77732642D01*
X130582714Y-77732642D01*
X130671288Y-77942455D01*
X131047859Y-78107677D01*
X130717932Y-78236378D01*
X130671288Y-78267545D01*
X130582714Y-78477358D01*
X131445000Y-79339645D01*
X132307286Y-78477358D01*
X132218712Y-78267545D01*
X131842141Y-78102323D01*
X132172068Y-77973622D01*
X132218712Y-77942455D01*
X132307286Y-77732642D01*
X131445000Y-76870355D01*
X130582714Y-77732642D01*
X106425000Y-77732642D01*
X106425000Y-77290462D01*
X106360298Y-77134257D01*
X106297033Y-77070992D01*
X130114814Y-77070992D01*
X130306378Y-77562068D01*
X130337545Y-77608712D01*
X130547358Y-77697286D01*
X131409645Y-76835000D01*
X130547358Y-75972714D01*
X130337545Y-76061288D01*
X130125759Y-76543988D01*
X130114814Y-77070992D01*
X106297033Y-77070992D01*
X106240743Y-77014702D01*
X106084538Y-76950000D01*
X105381250Y-76950000D01*
X105275000Y-77056250D01*
X105225000Y-77056250D01*
X105118750Y-76950000D01*
X104415462Y-76950000D01*
X104259257Y-77014702D01*
X104139702Y-77134257D01*
X104075000Y-77290462D01*
X103917420Y-77290462D01*
X103903691Y-77217504D01*
X103810611Y-77072854D01*
X103668588Y-76975814D01*
X103500000Y-76941674D01*
X102000000Y-76941674D01*
X101842504Y-76971309D01*
X101774987Y-77014755D01*
X101774998Y-77002820D01*
X101974630Y-76803188D01*
X102000000Y-76808326D01*
X103500000Y-76808326D01*
X103657496Y-76778691D01*
X103802146Y-76685611D01*
X103899186Y-76543588D01*
X103933326Y-76375000D01*
X103933326Y-75881250D01*
X104075000Y-75881250D01*
X104075000Y-76459538D01*
X104139702Y-76615743D01*
X104259257Y-76735298D01*
X104415462Y-76800000D01*
X105118750Y-76800000D01*
X105225000Y-76693750D01*
X105225000Y-75775000D01*
X105275000Y-75775000D01*
X105275000Y-76693750D01*
X105381250Y-76800000D01*
X106084538Y-76800000D01*
X106240743Y-76735298D01*
X106360298Y-76615743D01*
X106425000Y-76459538D01*
X106425000Y-75881250D01*
X106318750Y-75775000D01*
X105275000Y-75775000D01*
X105225000Y-75775000D01*
X104181250Y-75775000D01*
X104075000Y-75881250D01*
X103933326Y-75881250D01*
X103933326Y-75125000D01*
X103917420Y-75040462D01*
X104075000Y-75040462D01*
X104075000Y-75618750D01*
X104181250Y-75725000D01*
X105225000Y-75725000D01*
X105225000Y-74806250D01*
X105275000Y-74806250D01*
X105275000Y-75725000D01*
X106318750Y-75725000D01*
X106425000Y-75618750D01*
X106425000Y-75192642D01*
X130582714Y-75192642D01*
X130671288Y-75402455D01*
X131047859Y-75567677D01*
X130717932Y-75696378D01*
X130671288Y-75727545D01*
X130582714Y-75937358D01*
X131445000Y-76799645D01*
X132307286Y-75937358D01*
X132218712Y-75727545D01*
X131842141Y-75562323D01*
X132172068Y-75433622D01*
X132218712Y-75402455D01*
X132307286Y-75192642D01*
X131445000Y-74330355D01*
X130582714Y-75192642D01*
X106425000Y-75192642D01*
X106425000Y-75040462D01*
X106360298Y-74884257D01*
X106240743Y-74764702D01*
X106084538Y-74700000D01*
X105381250Y-74700000D01*
X105275000Y-74806250D01*
X105225000Y-74806250D01*
X105118750Y-74700000D01*
X104415462Y-74700000D01*
X104259257Y-74764702D01*
X104139702Y-74884257D01*
X104075000Y-75040462D01*
X103917420Y-75040462D01*
X103903691Y-74967504D01*
X103810611Y-74822854D01*
X103668588Y-74725814D01*
X103500000Y-74691674D01*
X103500000Y-74530992D01*
X130114814Y-74530992D01*
X130306378Y-75022068D01*
X130337545Y-75068712D01*
X130547358Y-75157286D01*
X131409645Y-74295000D01*
X131480355Y-74295000D01*
X132342642Y-75157286D01*
X132552455Y-75068712D01*
X132716527Y-74694762D01*
X132861065Y-75044572D01*
X133233468Y-75417625D01*
X133588659Y-75565113D01*
X133235428Y-75711065D01*
X132862375Y-76083468D01*
X132713726Y-76441455D01*
X132583622Y-76107932D01*
X132552455Y-76061288D01*
X132342642Y-75972714D01*
X131480355Y-76835000D01*
X132342642Y-77697286D01*
X132552455Y-77608712D01*
X132716527Y-77234762D01*
X132861065Y-77584572D01*
X133233468Y-77957625D01*
X133588659Y-78105113D01*
X133235428Y-78251065D01*
X132862375Y-78623468D01*
X132713726Y-78981455D01*
X132583622Y-78647932D01*
X132552455Y-78601288D01*
X132342642Y-78512714D01*
X131480355Y-79375000D01*
X132342642Y-80237286D01*
X132552455Y-80148712D01*
X132716527Y-79774762D01*
X132861065Y-80124572D01*
X133233468Y-80497625D01*
X133588659Y-80645113D01*
X133235428Y-80791065D01*
X132862375Y-81163468D01*
X132713726Y-81521455D01*
X132583622Y-81187932D01*
X132552455Y-81141288D01*
X132342642Y-81052714D01*
X131480355Y-81915000D01*
X132342642Y-82777286D01*
X132552455Y-82688712D01*
X132716527Y-82314762D01*
X132861065Y-82664572D01*
X133233468Y-83037625D01*
X133588659Y-83185113D01*
X133235428Y-83331065D01*
X132862375Y-83703468D01*
X132713726Y-84061455D01*
X132583622Y-83727932D01*
X132552455Y-83681288D01*
X132342642Y-83592714D01*
X131480355Y-84455000D01*
X132342642Y-85317286D01*
X132552455Y-85228712D01*
X132716527Y-84854762D01*
X132861065Y-85204572D01*
X133233468Y-85577625D01*
X133588659Y-85725113D01*
X133235428Y-85871065D01*
X132862375Y-86243468D01*
X132713726Y-86601455D01*
X132583622Y-86267932D01*
X132552455Y-86221288D01*
X132342642Y-86132714D01*
X131480355Y-86995000D01*
X132342642Y-87857286D01*
X132552455Y-87768712D01*
X132716527Y-87394762D01*
X132861065Y-87744572D01*
X133233468Y-88117625D01*
X133720285Y-88319769D01*
X134247402Y-88320229D01*
X134734572Y-88118935D01*
X135107625Y-87746532D01*
X135309769Y-87259715D01*
X135310229Y-86732598D01*
X135108935Y-86245428D01*
X134736532Y-85872375D01*
X134381341Y-85724887D01*
X134734572Y-85578935D01*
X135107625Y-85206532D01*
X135309769Y-84719715D01*
X135310229Y-84192598D01*
X135108935Y-83705428D01*
X134736532Y-83332375D01*
X134381341Y-83184887D01*
X134734572Y-83038935D01*
X135107625Y-82666532D01*
X135309769Y-82179715D01*
X135310229Y-81652598D01*
X135108935Y-81165428D01*
X134736532Y-80792375D01*
X134381341Y-80644887D01*
X134734572Y-80498935D01*
X135107625Y-80126532D01*
X135309769Y-79639715D01*
X135310229Y-79112598D01*
X135108935Y-78625428D01*
X134736532Y-78252375D01*
X134381341Y-78104887D01*
X134734572Y-77958935D01*
X135107625Y-77586532D01*
X135309769Y-77099715D01*
X135310229Y-76572598D01*
X135108935Y-76085428D01*
X134736532Y-75712375D01*
X134381341Y-75564887D01*
X134734572Y-75418935D01*
X135107625Y-75046532D01*
X135309769Y-74559715D01*
X135310229Y-74032598D01*
X135108935Y-73545428D01*
X134736532Y-73172375D01*
X134249715Y-72970231D01*
X133722598Y-72969771D01*
X133235428Y-73171065D01*
X132862375Y-73543468D01*
X132713726Y-73901455D01*
X132583622Y-73567932D01*
X132552455Y-73521288D01*
X132342642Y-73432714D01*
X131480355Y-74295000D01*
X131409645Y-74295000D01*
X130547358Y-73432714D01*
X130337545Y-73521288D01*
X130125759Y-74003988D01*
X130114814Y-74530992D01*
X103500000Y-74530992D01*
X103500000Y-74302000D01*
X103442910Y-74014987D01*
X103280330Y-73771670D01*
X103171157Y-73662497D01*
X103146396Y-73602571D01*
X102941541Y-73397358D01*
X130582714Y-73397358D01*
X131445000Y-74259645D01*
X132307286Y-73397358D01*
X132218712Y-73187545D01*
X131736012Y-72975759D01*
X131209008Y-72964814D01*
X130717932Y-73156378D01*
X130671288Y-73187545D01*
X130582714Y-73397358D01*
X102941541Y-73397358D01*
X102928575Y-73384370D01*
X102643833Y-73266135D01*
X102335519Y-73265866D01*
X102050571Y-73383604D01*
X101832370Y-73601425D01*
X101714135Y-73886167D01*
X101713866Y-74194481D01*
X101831604Y-74479429D01*
X102000000Y-74648119D01*
X102000000Y-74691674D01*
X101842504Y-74721309D01*
X101697854Y-74814389D01*
X101600814Y-74956412D01*
X101566674Y-75125000D01*
X101566674Y-75736466D01*
X101539524Y-75741866D01*
X101361091Y-75861091D01*
X100997185Y-76224997D01*
X100846519Y-76224866D01*
X100561571Y-76342604D01*
X100343370Y-76560425D01*
X100225135Y-76845167D01*
X100224866Y-77153481D01*
X92942350Y-77153481D01*
X93156630Y-76939575D01*
X93274865Y-76654833D01*
X93275134Y-76346519D01*
X93157396Y-76061571D01*
X93050000Y-75953988D01*
X93050000Y-75933326D01*
X93125000Y-75933326D01*
X93282496Y-75903691D01*
X93427146Y-75810611D01*
X93524186Y-75668588D01*
X93558326Y-75500000D01*
X93558326Y-74000000D01*
X93528691Y-73842504D01*
X93435611Y-73697854D01*
X93293588Y-73600814D01*
X93125000Y-73566674D01*
X91875000Y-73566674D01*
X91717504Y-73596309D01*
X91572854Y-73689389D01*
X91475814Y-73831412D01*
X91441674Y-74000000D01*
X69775000Y-74000000D01*
X69775134Y-73846519D01*
X69657396Y-73561571D01*
X69439575Y-73343370D01*
X69154833Y-73225135D01*
X68846519Y-73224866D01*
X68561571Y-73342604D01*
X68343370Y-73560425D01*
X68225135Y-73845167D01*
X68225002Y-73997180D01*
X64997185Y-77224997D01*
X64846519Y-77224866D01*
X64561571Y-77342604D01*
X64343370Y-77560425D01*
X64225135Y-77845167D01*
X64224866Y-78153481D01*
X63050000Y-78153481D01*
X63050000Y-78046019D01*
X63156630Y-77939575D01*
X63274865Y-77654833D01*
X63275134Y-77346519D01*
X63157396Y-77061571D01*
X62939575Y-76843370D01*
X62654833Y-76725135D01*
X62346519Y-76724866D01*
X62272000Y-76755657D01*
X62272000Y-76111019D01*
X62378630Y-76004575D01*
X62496865Y-75719833D01*
X62497134Y-75411519D01*
X62379396Y-75126571D01*
X62161575Y-74908370D01*
X61876833Y-74790135D01*
X61568519Y-74789866D01*
X61283571Y-74907604D01*
X61065370Y-75125425D01*
X60947135Y-75410167D01*
X60946866Y-75718481D01*
X61064604Y-76003429D01*
X61172000Y-76111012D01*
X61172000Y-94260182D01*
X59920570Y-95511612D01*
X59806532Y-95397375D01*
X59451341Y-95249887D01*
X59804572Y-95103935D01*
X60177625Y-94731532D01*
X60379769Y-94244715D01*
X60380229Y-93717598D01*
X60178935Y-93230428D01*
X59806532Y-92857375D01*
X59319715Y-92655231D01*
X58792598Y-92654771D01*
X58305428Y-92856065D01*
X57932375Y-93228468D01*
X57783726Y-93586455D01*
X57653622Y-93252932D01*
X57622455Y-93206288D01*
X57412642Y-93117714D01*
X56550355Y-93980000D01*
X56479645Y-93980000D01*
X55617358Y-93117714D01*
X55407545Y-93206288D01*
X55195759Y-93688988D01*
X55184814Y-94215992D01*
X53465000Y-94215992D01*
X53465000Y-93082358D01*
X55652714Y-93082358D01*
X56515000Y-93944645D01*
X57377286Y-93082358D01*
X57288712Y-92872545D01*
X56806012Y-92660759D01*
X56279008Y-92649814D01*
X55787932Y-92841378D01*
X55741288Y-92872545D01*
X55652714Y-93082358D01*
X53465000Y-93082358D01*
X53465000Y-82812642D01*
X55652714Y-82812642D01*
X55741288Y-83022455D01*
X56223988Y-83234241D01*
X56750992Y-83245186D01*
X57242068Y-83053622D01*
X57288712Y-83022455D01*
X57377286Y-82812642D01*
X56515000Y-81950355D01*
X55652714Y-82812642D01*
X53465000Y-82812642D01*
X53465000Y-82150992D01*
X55184814Y-82150992D01*
X55376378Y-82642068D01*
X55407545Y-82688712D01*
X55617358Y-82777286D01*
X56479645Y-81915000D01*
X55617358Y-81052714D01*
X55407545Y-81141288D01*
X55195759Y-81623988D01*
X55184814Y-82150992D01*
X53465000Y-82150992D01*
X53465000Y-80272642D01*
X55652714Y-80272642D01*
X55741288Y-80482455D01*
X56117859Y-80647677D01*
X55787932Y-80776378D01*
X55741288Y-80807545D01*
X55652714Y-81017358D01*
X56515000Y-81879645D01*
X57377286Y-81017358D01*
X57288712Y-80807545D01*
X56912141Y-80642323D01*
X57242068Y-80513622D01*
X57288712Y-80482455D01*
X57377286Y-80272642D01*
X56515000Y-79410355D01*
X55652714Y-80272642D01*
X53465000Y-80272642D01*
X53465000Y-79610992D01*
X55184814Y-79610992D01*
X55376378Y-80102068D01*
X55407545Y-80148712D01*
X55617358Y-80237286D01*
X56479645Y-79375000D01*
X55617358Y-78512714D01*
X55407545Y-78601288D01*
X55195759Y-79083988D01*
X55184814Y-79610992D01*
X53465000Y-79610992D01*
X53465000Y-77732642D01*
X55652714Y-77732642D01*
X55741288Y-77942455D01*
X56117859Y-78107677D01*
X55787932Y-78236378D01*
X55741288Y-78267545D01*
X55652714Y-78477358D01*
X56515000Y-79339645D01*
X57377286Y-78477358D01*
X57288712Y-78267545D01*
X56912141Y-78102323D01*
X57242068Y-77973622D01*
X57288712Y-77942455D01*
X57377286Y-77732642D01*
X56515000Y-76870355D01*
X55652714Y-77732642D01*
X53465000Y-77732642D01*
X53465000Y-77070992D01*
X55184814Y-77070992D01*
X55376378Y-77562068D01*
X55407545Y-77608712D01*
X55617358Y-77697286D01*
X56479645Y-76835000D01*
X55617358Y-75972714D01*
X55407545Y-76061288D01*
X55195759Y-76543988D01*
X55184814Y-77070992D01*
X53465000Y-77070992D01*
X53465000Y-75192642D01*
X55652714Y-75192642D01*
X55741288Y-75402455D01*
X56117859Y-75567677D01*
X55787932Y-75696378D01*
X55741288Y-75727545D01*
X55652714Y-75937358D01*
X56515000Y-76799645D01*
X57377286Y-75937358D01*
X57288712Y-75727545D01*
X56912141Y-75562323D01*
X57242068Y-75433622D01*
X57288712Y-75402455D01*
X57377286Y-75192642D01*
X56515000Y-74330355D01*
X55652714Y-75192642D01*
X53465000Y-75192642D01*
X53465000Y-74530992D01*
X55184814Y-74530992D01*
X55376378Y-75022068D01*
X55407545Y-75068712D01*
X55617358Y-75157286D01*
X56479645Y-74295000D01*
X55617358Y-73432714D01*
X55407545Y-73521288D01*
X55195759Y-74003988D01*
X55184814Y-74530992D01*
X53465000Y-74530992D01*
X53465000Y-72652642D01*
X55652714Y-72652642D01*
X55741288Y-72862455D01*
X56117859Y-73027677D01*
X55787932Y-73156378D01*
X55741288Y-73187545D01*
X55652714Y-73397358D01*
X56515000Y-74259645D01*
X57377286Y-73397358D01*
X57288712Y-73187545D01*
X56912141Y-73022323D01*
X57242068Y-72893622D01*
X57288712Y-72862455D01*
X57377286Y-72652642D01*
X56515000Y-71790355D01*
X55652714Y-72652642D01*
X53465000Y-72652642D01*
X53465000Y-71990992D01*
X55184814Y-71990992D01*
X55376378Y-72482068D01*
X55407545Y-72528712D01*
X55617358Y-72617286D01*
X56479645Y-71755000D01*
X56550355Y-71755000D01*
X57412642Y-72617286D01*
X57622455Y-72528712D01*
X57786527Y-72154762D01*
X57931065Y-72504572D01*
X58303468Y-72877625D01*
X58658659Y-73025113D01*
X58305428Y-73171065D01*
X57932375Y-73543468D01*
X57783726Y-73901455D01*
X57653622Y-73567932D01*
X57622455Y-73521288D01*
X57412642Y-73432714D01*
X56550355Y-74295000D01*
X57412642Y-75157286D01*
X57622455Y-75068712D01*
X57786527Y-74694762D01*
X57931065Y-75044572D01*
X58303468Y-75417625D01*
X58658659Y-75565113D01*
X58305428Y-75711065D01*
X57932375Y-76083468D01*
X57783726Y-76441455D01*
X57653622Y-76107932D01*
X57622455Y-76061288D01*
X57412642Y-75972714D01*
X56550355Y-76835000D01*
X57412642Y-77697286D01*
X57622455Y-77608712D01*
X57786527Y-77234762D01*
X57931065Y-77584572D01*
X58303468Y-77957625D01*
X58658659Y-78105113D01*
X58305428Y-78251065D01*
X57932375Y-78623468D01*
X57783726Y-78981455D01*
X57653622Y-78647932D01*
X57622455Y-78601288D01*
X57412642Y-78512714D01*
X56550355Y-79375000D01*
X57412642Y-80237286D01*
X57622455Y-80148712D01*
X57786527Y-79774762D01*
X57931065Y-80124572D01*
X58303468Y-80497625D01*
X58658659Y-80645113D01*
X58305428Y-80791065D01*
X57932375Y-81163468D01*
X57783726Y-81521455D01*
X57653622Y-81187932D01*
X57622455Y-81141288D01*
X57412642Y-81052714D01*
X56550355Y-81915000D01*
X57412642Y-82777286D01*
X57622455Y-82688712D01*
X57786527Y-82314762D01*
X57931065Y-82664572D01*
X58303468Y-83037625D01*
X58790285Y-83239769D01*
X59317402Y-83240229D01*
X59804572Y-83038935D01*
X60177625Y-82666532D01*
X60379769Y-82179715D01*
X60380229Y-81652598D01*
X60178935Y-81165428D01*
X59806532Y-80792375D01*
X59451341Y-80644887D01*
X59804572Y-80498935D01*
X60177625Y-80126532D01*
X60379769Y-79639715D01*
X60380229Y-79112598D01*
X60178935Y-78625428D01*
X59806532Y-78252375D01*
X59451341Y-78104887D01*
X59804572Y-77958935D01*
X60177625Y-77586532D01*
X60379769Y-77099715D01*
X60380229Y-76572598D01*
X60178935Y-76085428D01*
X59806532Y-75712375D01*
X59451341Y-75564887D01*
X59804572Y-75418935D01*
X60177625Y-75046532D01*
X60379769Y-74559715D01*
X60380229Y-74032598D01*
X60178935Y-73545428D01*
X59806532Y-73172375D01*
X59451341Y-73024887D01*
X59804572Y-72878935D01*
X60177625Y-72506532D01*
X60229646Y-72381250D01*
X91450000Y-72381250D01*
X91450000Y-73084538D01*
X91514702Y-73240743D01*
X91634257Y-73360298D01*
X91790462Y-73425000D01*
X92368750Y-73425000D01*
X92475000Y-73318750D01*
X92475000Y-72275000D01*
X92525000Y-72275000D01*
X92525000Y-73318750D01*
X92631250Y-73425000D01*
X93209538Y-73425000D01*
X93365743Y-73360298D01*
X93485298Y-73240743D01*
X93550000Y-73084538D01*
X93550000Y-72381250D01*
X93443750Y-72275000D01*
X92525000Y-72275000D01*
X92475000Y-72275000D01*
X91556250Y-72275000D01*
X91450000Y-72381250D01*
X60229646Y-72381250D01*
X60379769Y-72019715D01*
X60380229Y-71492598D01*
X60334797Y-71382642D01*
X72162714Y-71382642D01*
X72251288Y-71592455D01*
X72733988Y-71804241D01*
X73260992Y-71815186D01*
X73752068Y-71623622D01*
X73798712Y-71592455D01*
X73887286Y-71382642D01*
X73025000Y-70520355D01*
X72162714Y-71382642D01*
X60334797Y-71382642D01*
X60178935Y-71005428D01*
X59894995Y-70720992D01*
X71694814Y-70720992D01*
X71886378Y-71212068D01*
X71917545Y-71258712D01*
X72127358Y-71347286D01*
X72989645Y-70485000D01*
X73060355Y-70485000D01*
X73922642Y-71347286D01*
X74132455Y-71258712D01*
X74296527Y-70884762D01*
X74441065Y-71234572D01*
X74813468Y-71607625D01*
X75300285Y-71809769D01*
X75827402Y-71810229D01*
X76314572Y-71608935D01*
X76687625Y-71236532D01*
X76835113Y-70881341D01*
X76981065Y-71234572D01*
X77353468Y-71607625D01*
X77840285Y-71809769D01*
X78367402Y-71810229D01*
X78854572Y-71608935D01*
X79227625Y-71236532D01*
X79375113Y-70881341D01*
X79521065Y-71234572D01*
X79893468Y-71607625D01*
X80380285Y-71809769D01*
X80907402Y-71810229D01*
X81394572Y-71608935D01*
X81588382Y-71415462D01*
X91450000Y-71415462D01*
X91450000Y-72118750D01*
X91556250Y-72225000D01*
X92475000Y-72225000D01*
X92475000Y-71181250D01*
X92525000Y-71181250D01*
X92525000Y-72225000D01*
X93443750Y-72225000D01*
X93550000Y-72118750D01*
X93550000Y-71415462D01*
X93485298Y-71259257D01*
X93365743Y-71139702D01*
X93209538Y-71075000D01*
X92631250Y-71075000D01*
X92525000Y-71181250D01*
X92475000Y-71181250D01*
X92368750Y-71075000D01*
X91790462Y-71075000D01*
X91634257Y-71139702D01*
X91514702Y-71259257D01*
X91450000Y-71415462D01*
X81588382Y-71415462D01*
X81767625Y-71236532D01*
X81969769Y-70749715D01*
X81970229Y-70222598D01*
X81768935Y-69735428D01*
X81396532Y-69362375D01*
X80909715Y-69160231D01*
X80382598Y-69159771D01*
X79895428Y-69361065D01*
X79522375Y-69733468D01*
X79374887Y-70088659D01*
X79228935Y-69735428D01*
X78856532Y-69362375D01*
X78369715Y-69160231D01*
X77842598Y-69159771D01*
X77355428Y-69361065D01*
X76982375Y-69733468D01*
X76834887Y-70088659D01*
X76688935Y-69735428D01*
X76316532Y-69362375D01*
X75829715Y-69160231D01*
X75302598Y-69159771D01*
X74815428Y-69361065D01*
X74442375Y-69733468D01*
X74293726Y-70091455D01*
X74163622Y-69757932D01*
X74132455Y-69711288D01*
X73922642Y-69622714D01*
X73060355Y-70485000D01*
X72989645Y-70485000D01*
X72127358Y-69622714D01*
X71917545Y-69711288D01*
X71705759Y-70193988D01*
X71694814Y-70720992D01*
X59894995Y-70720992D01*
X59806532Y-70632375D01*
X59319715Y-70430231D01*
X58792598Y-70429771D01*
X58305428Y-70631065D01*
X57932375Y-71003468D01*
X57783726Y-71361455D01*
X57653622Y-71027932D01*
X57622455Y-70981288D01*
X57412642Y-70892714D01*
X56550355Y-71755000D01*
X56479645Y-71755000D01*
X55617358Y-70892714D01*
X55407545Y-70981288D01*
X55195759Y-71463988D01*
X55184814Y-71990992D01*
X53465000Y-71990992D01*
X53465000Y-70857358D01*
X55652714Y-70857358D01*
X56515000Y-71719645D01*
X57377286Y-70857358D01*
X57288712Y-70647545D01*
X56806012Y-70435759D01*
X56279008Y-70424814D01*
X55787932Y-70616378D01*
X55741288Y-70647545D01*
X55652714Y-70857358D01*
X53465000Y-70857358D01*
X53465000Y-69587358D01*
X72162714Y-69587358D01*
X73025000Y-70449645D01*
X73887286Y-69587358D01*
X73798712Y-69377545D01*
X73316012Y-69165759D01*
X72789008Y-69154814D01*
X72297932Y-69346378D01*
X72251288Y-69377545D01*
X72162714Y-69587358D01*
X53465000Y-69587358D01*
X53465000Y-66955481D01*
X96252866Y-66955481D01*
X96370604Y-67240429D01*
X96588425Y-67458630D01*
X96873167Y-67576865D01*
X97181481Y-67577134D01*
X97466429Y-67459396D01*
X97684630Y-67241575D01*
X97802865Y-66956833D01*
X97802998Y-66804820D01*
X98178909Y-66428909D01*
X98298134Y-66250476D01*
X98340001Y-66040000D01*
X98340000Y-66039995D01*
X98340000Y-65687206D01*
X110334754Y-65687206D01*
X110551240Y-66211143D01*
X110951749Y-66612351D01*
X111475307Y-66829752D01*
X112042206Y-66830246D01*
X112566143Y-66613760D01*
X112967351Y-66213251D01*
X113184752Y-65689693D01*
X113184754Y-65687206D01*
X114834754Y-65687206D01*
X115051240Y-66211143D01*
X115451749Y-66612351D01*
X115975307Y-66829752D01*
X116542206Y-66830246D01*
X117066143Y-66613760D01*
X117467351Y-66213251D01*
X117684752Y-65689693D01*
X117685246Y-65122794D01*
X117468760Y-64598857D01*
X117068251Y-64197649D01*
X116544693Y-63980248D01*
X115977794Y-63979754D01*
X115453857Y-64196240D01*
X115052649Y-64596749D01*
X114835248Y-65120307D01*
X114834754Y-65687206D01*
X113184754Y-65687206D01*
X113185246Y-65122794D01*
X113112917Y-64947743D01*
X114445660Y-63615000D01*
X124149340Y-63615000D01*
X125598544Y-65064204D01*
X125575248Y-65120307D01*
X125574754Y-65687206D01*
X125791240Y-66211143D01*
X126191749Y-66612351D01*
X126715307Y-66829752D01*
X127282206Y-66830246D01*
X127806143Y-66613760D01*
X128207351Y-66213251D01*
X128424752Y-65689693D01*
X128424754Y-65687206D01*
X130074754Y-65687206D01*
X130291240Y-66211143D01*
X130691749Y-66612351D01*
X131215307Y-66829752D01*
X131782206Y-66830246D01*
X132306143Y-66613760D01*
X132707351Y-66213251D01*
X132924752Y-65689693D01*
X132925246Y-65122794D01*
X132708760Y-64598857D01*
X132308251Y-64197649D01*
X131784693Y-63980248D01*
X131217794Y-63979754D01*
X130693857Y-64196240D01*
X130292649Y-64596749D01*
X130075248Y-65120307D01*
X130074754Y-65687206D01*
X128424754Y-65687206D01*
X128425246Y-65122794D01*
X128208760Y-64598857D01*
X127808251Y-64197649D01*
X127284693Y-63980248D01*
X126717794Y-63979754D01*
X126659500Y-64003840D01*
X124990330Y-62334670D01*
X124747013Y-62172090D01*
X124460000Y-62115000D01*
X114135000Y-62115000D01*
X113847987Y-62172090D01*
X113671245Y-62290186D01*
X113604670Y-62334670D01*
X111959167Y-63980173D01*
X111477794Y-63979754D01*
X110953857Y-64196240D01*
X110552649Y-64596749D01*
X110335248Y-65120307D01*
X110334754Y-65687206D01*
X98340000Y-65687206D01*
X98340000Y-63665019D01*
X98446630Y-63558575D01*
X98564865Y-63273833D01*
X98565134Y-62965519D01*
X98447396Y-62680571D01*
X98229575Y-62462370D01*
X97944833Y-62344135D01*
X97636519Y-62343866D01*
X97351571Y-62461604D01*
X97133370Y-62679425D01*
X97015135Y-62964167D01*
X97014866Y-63272481D01*
X97132604Y-63557429D01*
X97240000Y-63665012D01*
X97240000Y-65812182D01*
X97025185Y-66026997D01*
X96874519Y-66026866D01*
X96589571Y-66144604D01*
X96371370Y-66362425D01*
X96253135Y-66647167D01*
X96252866Y-66955481D01*
X53465000Y-66955481D01*
X53465000Y-61857642D01*
X77877714Y-61857642D01*
X77966288Y-62067455D01*
X78448988Y-62279241D01*
X78975992Y-62290186D01*
X79467068Y-62098622D01*
X79513712Y-62067455D01*
X79602286Y-61857642D01*
X80417714Y-61857642D01*
X80506288Y-62067455D01*
X80988988Y-62279241D01*
X81515992Y-62290186D01*
X82007068Y-62098622D01*
X82053712Y-62067455D01*
X82142286Y-61857642D01*
X81280000Y-60995355D01*
X80417714Y-61857642D01*
X79602286Y-61857642D01*
X78740000Y-60995355D01*
X77877714Y-61857642D01*
X53465000Y-61857642D01*
X53465000Y-61113481D01*
X69074866Y-61113481D01*
X69192604Y-61398429D01*
X69410425Y-61616630D01*
X69695167Y-61734865D01*
X70003481Y-61735134D01*
X70288429Y-61617396D01*
X70506630Y-61399575D01*
X70531870Y-61338790D01*
X70674668Y-61195992D01*
X77409814Y-61195992D01*
X77601378Y-61687068D01*
X77632545Y-61733712D01*
X77842358Y-61822286D01*
X78704645Y-60960000D01*
X78775355Y-60960000D01*
X79637642Y-61822286D01*
X79847455Y-61733712D01*
X80012677Y-61357141D01*
X80141378Y-61687068D01*
X80172545Y-61733712D01*
X80382358Y-61822286D01*
X81244645Y-60960000D01*
X81315355Y-60960000D01*
X82177642Y-61822286D01*
X82387455Y-61733712D01*
X82552677Y-61357141D01*
X82681378Y-61687068D01*
X82712545Y-61733712D01*
X82922358Y-61822286D01*
X83784645Y-60960000D01*
X82922358Y-60097714D01*
X82712545Y-60186288D01*
X82547323Y-60562859D01*
X82418622Y-60232932D01*
X82387455Y-60186288D01*
X82177642Y-60097714D01*
X81315355Y-60960000D01*
X81244645Y-60960000D01*
X80382358Y-60097714D01*
X80172545Y-60186288D01*
X80007323Y-60562859D01*
X79878622Y-60232932D01*
X79847455Y-60186288D01*
X79637642Y-60097714D01*
X78775355Y-60960000D01*
X78704645Y-60960000D01*
X77842358Y-60097714D01*
X77632545Y-60186288D01*
X77420759Y-60668988D01*
X77409814Y-61195992D01*
X70674668Y-61195992D01*
X71015330Y-60855330D01*
X71177910Y-60612013D01*
X71235000Y-60325000D01*
X71235000Y-58682402D01*
X77414771Y-58682402D01*
X77616065Y-59169572D01*
X77988468Y-59542625D01*
X78346455Y-59691274D01*
X78012932Y-59821378D01*
X77966288Y-59852545D01*
X77877714Y-60062358D01*
X78740000Y-60924645D01*
X79602286Y-60062358D01*
X79513712Y-59852545D01*
X79139762Y-59688473D01*
X79489572Y-59543935D01*
X79862625Y-59171532D01*
X80010113Y-58816341D01*
X80156065Y-59169572D01*
X80528468Y-59542625D01*
X80886455Y-59691274D01*
X80552932Y-59821378D01*
X80506288Y-59852545D01*
X80417714Y-60062358D01*
X81280000Y-60924645D01*
X82142286Y-60062358D01*
X82053712Y-59852545D01*
X81679762Y-59688473D01*
X82029572Y-59543935D01*
X82402625Y-59171532D01*
X82550113Y-58816341D01*
X82696065Y-59169572D01*
X83068468Y-59542625D01*
X83426455Y-59691274D01*
X83092932Y-59821378D01*
X83046288Y-59852545D01*
X82957714Y-60062358D01*
X83820000Y-60924645D01*
X83834142Y-60910502D01*
X83869498Y-60945858D01*
X83855355Y-60960000D01*
X83869498Y-60974142D01*
X83834142Y-61009498D01*
X83820000Y-60995355D01*
X82957714Y-61857642D01*
X83046288Y-62067455D01*
X83528988Y-62279241D01*
X84055992Y-62290186D01*
X84540000Y-62101379D01*
X84540000Y-62484000D01*
X84581866Y-62694476D01*
X84701091Y-62872909D01*
X86600997Y-64772815D01*
X86600866Y-64923481D01*
X86718604Y-65208429D01*
X86936425Y-65426630D01*
X87221167Y-65544865D01*
X87529481Y-65545134D01*
X87814429Y-65427396D01*
X88032630Y-65209575D01*
X88150865Y-64924833D01*
X88151134Y-64616519D01*
X88033396Y-64331571D01*
X87815575Y-64113370D01*
X87530833Y-63995135D01*
X87378820Y-63995002D01*
X85640000Y-62256182D01*
X85640000Y-62091021D01*
X86068988Y-62279241D01*
X86595992Y-62290186D01*
X87087068Y-62098622D01*
X87133712Y-62067455D01*
X87222286Y-61857642D01*
X86360000Y-60995355D01*
X86345858Y-61009498D01*
X86310502Y-60974142D01*
X86324645Y-60960000D01*
X86395355Y-60960000D01*
X87257642Y-61822286D01*
X87467455Y-61733712D01*
X87632677Y-61357141D01*
X87761378Y-61687068D01*
X87792545Y-61733712D01*
X88002358Y-61822286D01*
X88864645Y-60960000D01*
X88002358Y-60097714D01*
X87792545Y-60186288D01*
X87627323Y-60562859D01*
X87498622Y-60232932D01*
X87467455Y-60186288D01*
X87257642Y-60097714D01*
X86395355Y-60960000D01*
X86324645Y-60960000D01*
X86310502Y-60945858D01*
X86345858Y-60910502D01*
X86360000Y-60924645D01*
X87222286Y-60062358D01*
X87133712Y-59852545D01*
X86759762Y-59688473D01*
X87109572Y-59543935D01*
X87482625Y-59171532D01*
X87630113Y-58816341D01*
X87776065Y-59169572D01*
X88148468Y-59542625D01*
X88506455Y-59691274D01*
X88172932Y-59821378D01*
X88126288Y-59852545D01*
X88037714Y-60062358D01*
X88900000Y-60924645D01*
X88914142Y-60910502D01*
X88949498Y-60945858D01*
X88935355Y-60960000D01*
X88949498Y-60974142D01*
X88914142Y-61009498D01*
X88900000Y-60995355D01*
X88037714Y-61857642D01*
X88126288Y-62067455D01*
X88608988Y-62279241D01*
X89135992Y-62290186D01*
X89620000Y-62101379D01*
X89620000Y-63500000D01*
X89661866Y-63710476D01*
X89776000Y-63881289D01*
X89775866Y-64034481D01*
X89893604Y-64319429D01*
X90111425Y-64537630D01*
X90396167Y-64655865D01*
X90704481Y-64656134D01*
X90989429Y-64538396D01*
X91207630Y-64320575D01*
X91325865Y-64035833D01*
X91326134Y-63727519D01*
X91208396Y-63442571D01*
X90990575Y-63224370D01*
X90720000Y-63112018D01*
X90720000Y-62095718D01*
X91175285Y-62284769D01*
X91702402Y-62285229D01*
X92189572Y-62083935D01*
X92562625Y-61711532D01*
X92563261Y-61710000D01*
X92856492Y-61710000D01*
X93228468Y-62082625D01*
X93715285Y-62284769D01*
X94242402Y-62285229D01*
X94729572Y-62083935D01*
X95102625Y-61711532D01*
X95103261Y-61710000D01*
X95396492Y-61710000D01*
X95768468Y-62082625D01*
X96255285Y-62284769D01*
X96782402Y-62285229D01*
X97269572Y-62083935D01*
X97642625Y-61711532D01*
X97643261Y-61710000D01*
X97936492Y-61710000D01*
X98308468Y-62082625D01*
X98795285Y-62284769D01*
X99322402Y-62285229D01*
X99809572Y-62083935D01*
X100182625Y-61711532D01*
X100183261Y-61710000D01*
X100476492Y-61710000D01*
X100848468Y-62082625D01*
X101335285Y-62284769D01*
X101862402Y-62285229D01*
X102349572Y-62083935D01*
X102722625Y-61711532D01*
X102924769Y-61224715D01*
X102925229Y-60697598D01*
X102723935Y-60210428D01*
X102351532Y-59837375D01*
X101996341Y-59689887D01*
X102349572Y-59543935D01*
X102706923Y-59187206D01*
X110334754Y-59187206D01*
X110551240Y-59711143D01*
X110951749Y-60112351D01*
X111475307Y-60329752D01*
X112042206Y-60330246D01*
X112566143Y-60113760D01*
X112967351Y-59713251D01*
X113184752Y-59189693D01*
X113184754Y-59187206D01*
X114834754Y-59187206D01*
X115051240Y-59711143D01*
X115451749Y-60112351D01*
X115975307Y-60329752D01*
X116542206Y-60330246D01*
X117066143Y-60113760D01*
X117467351Y-59713251D01*
X117684752Y-59189693D01*
X117684754Y-59187206D01*
X125574754Y-59187206D01*
X125791240Y-59711143D01*
X126191749Y-60112351D01*
X126715307Y-60329752D01*
X127282206Y-60330246D01*
X127806143Y-60113760D01*
X128207351Y-59713251D01*
X128424752Y-59189693D01*
X128424754Y-59187206D01*
X130074754Y-59187206D01*
X130291240Y-59711143D01*
X130691749Y-60112351D01*
X131215307Y-60329752D01*
X131782206Y-60330246D01*
X132306143Y-60113760D01*
X132707351Y-59713251D01*
X132924752Y-59189693D01*
X132925246Y-58622794D01*
X132708760Y-58098857D01*
X132308251Y-57697649D01*
X131784693Y-57480248D01*
X131217794Y-57479754D01*
X130693857Y-57696240D01*
X130292649Y-58096749D01*
X130075248Y-58620307D01*
X130074754Y-59187206D01*
X128424754Y-59187206D01*
X128425246Y-58622794D01*
X128208760Y-58098857D01*
X127808251Y-57697649D01*
X127284693Y-57480248D01*
X126717794Y-57479754D01*
X126193857Y-57696240D01*
X125792649Y-58096749D01*
X125575248Y-58620307D01*
X125574754Y-59187206D01*
X117684754Y-59187206D01*
X117685246Y-58622794D01*
X117468760Y-58098857D01*
X117068251Y-57697649D01*
X116544693Y-57480248D01*
X115977794Y-57479754D01*
X115453857Y-57696240D01*
X115052649Y-58096749D01*
X114835248Y-58620307D01*
X114834754Y-59187206D01*
X113184754Y-59187206D01*
X113185246Y-58622794D01*
X112968760Y-58098857D01*
X112568251Y-57697649D01*
X112044693Y-57480248D01*
X111477794Y-57479754D01*
X110953857Y-57696240D01*
X110552649Y-58096749D01*
X110335248Y-58620307D01*
X110334754Y-59187206D01*
X102706923Y-59187206D01*
X102722625Y-59171532D01*
X102924769Y-58684715D01*
X102925229Y-58157598D01*
X102723935Y-57670428D01*
X102351532Y-57297375D01*
X101864715Y-57095231D01*
X101337598Y-57094771D01*
X100850428Y-57296065D01*
X100477375Y-57668468D01*
X100329887Y-58023659D01*
X100183935Y-57670428D01*
X99811532Y-57297375D01*
X99324715Y-57095231D01*
X98797598Y-57094771D01*
X98310428Y-57296065D01*
X97937375Y-57668468D01*
X97789887Y-58023659D01*
X97643935Y-57670428D01*
X97271532Y-57297375D01*
X96784715Y-57095231D01*
X96257598Y-57094771D01*
X95770428Y-57296065D01*
X95397375Y-57668468D01*
X95249887Y-58023659D01*
X95103935Y-57670428D01*
X94731532Y-57297375D01*
X94244715Y-57095231D01*
X93717598Y-57094771D01*
X93230428Y-57296065D01*
X92857375Y-57668468D01*
X92709887Y-58023659D01*
X92563935Y-57670428D01*
X92191532Y-57297375D01*
X91704715Y-57095231D01*
X91177598Y-57094771D01*
X90690428Y-57296065D01*
X90317375Y-57668468D01*
X90169887Y-58023659D01*
X90023935Y-57670428D01*
X89651532Y-57297375D01*
X89164715Y-57095231D01*
X88637598Y-57094771D01*
X88150428Y-57296065D01*
X87777375Y-57668468D01*
X87629887Y-58023659D01*
X87483935Y-57670428D01*
X87111532Y-57297375D01*
X86624715Y-57095231D01*
X86097598Y-57094771D01*
X85610428Y-57296065D01*
X85237375Y-57668468D01*
X85089887Y-58023659D01*
X84943935Y-57670428D01*
X84571532Y-57297375D01*
X84084715Y-57095231D01*
X83557598Y-57094771D01*
X83070428Y-57296065D01*
X82697375Y-57668468D01*
X82549887Y-58023659D01*
X82403935Y-57670428D01*
X82031532Y-57297375D01*
X81544715Y-57095231D01*
X81017598Y-57094771D01*
X80530428Y-57296065D01*
X80157375Y-57668468D01*
X80009887Y-58023659D01*
X79863935Y-57670428D01*
X79491532Y-57297375D01*
X79004715Y-57095231D01*
X78477598Y-57094771D01*
X77990428Y-57296065D01*
X77617375Y-57668468D01*
X77415231Y-58155285D01*
X77414771Y-58682402D01*
X71235000Y-58682402D01*
X71235000Y-56825660D01*
X72768503Y-55292157D01*
X72828429Y-55267396D01*
X73046630Y-55049575D01*
X73164865Y-54764833D01*
X73165134Y-54456519D01*
X73047396Y-54171571D01*
X72829575Y-53953370D01*
X72544833Y-53835135D01*
X72236519Y-53834866D01*
X71951571Y-53952604D01*
X71733370Y-54170425D01*
X71708130Y-54231210D01*
X69954670Y-55984670D01*
X69792090Y-56227987D01*
X69735000Y-56515000D01*
X69735000Y-60014340D01*
X69471497Y-60277843D01*
X69411571Y-60302604D01*
X69193370Y-60520425D01*
X69075135Y-60805167D01*
X69074866Y-61113481D01*
X53465000Y-61113481D01*
X53465000Y-60125000D01*
X58000000Y-60125000D01*
X58047037Y-60115813D01*
X58088388Y-60088388D01*
X60588388Y-57588388D01*
X60615152Y-57548632D01*
X60625000Y-57500000D01*
X60625000Y-52830000D01*
X132375000Y-52830000D01*
X132375000Y-57500000D01*
M02*
