M48
;DRILL file {KiCad 4.0.7} date 05/24/18 16:37:44
;FORMAT={-:-/ absolute / metric / decimal}
FMAT,2
METRIC,TZ
T1C0.400
T2C0.900
T3C1.100
%
G90
G05
M71
T1
X61.722Y-75.565
X62.5Y-77.5
X65.Y-78.
X66.5Y-78.5
X69.Y-74.
X69.723Y-62.738
X69.85Y-60.96
X70.Y-75.
X70.5Y-100.5
X72.39Y-54.61
X73.Y-91.
X77.47Y-92.075
X87.376Y-64.77
X90.17Y-97.155
X90.551Y-63.881
X92.5Y-76.5
X92.5Y-82.5
X92.5Y-83.5
X92.5Y-84.5
X93.5Y-93.5
X94.Y-76.5
X95.885Y-105.41
X97.028Y-66.802
X97.79Y-63.119
X98.Y-85.
X99.Y-85.
X99.06Y-105.41
X101.Y-77.
X101.Y-78.
X101.Y-83.5
X102.489Y-74.041
X102.87Y-115.824
X104.Y-77.
X104.013Y-85.153
X108.077Y-87.249
X115.57Y-89.535
X118.618Y-89.535
X118.745Y-116.84
X119.253Y-105.918
X119.38Y-60.96
X122.936Y-92.456
X125.984Y-88.392
X127.Y-107.315
X127.635Y-95.885
X130.175Y-109.22
X130.81Y-95.885
X134.62Y-60.96
T2
X56.515Y-71.755
X56.515Y-74.295
X56.515Y-76.835
X56.515Y-79.375
X56.515Y-81.915
X56.515Y-93.98
X56.515Y-96.52
X56.515Y-99.06
X56.515Y-101.6
X56.515Y-104.14
X59.055Y-71.755
X59.055Y-74.295
X59.055Y-76.835
X59.055Y-79.375
X59.055Y-81.915
X59.055Y-93.98
X59.055Y-96.52
X59.055Y-99.06
X59.055Y-101.6
X59.055Y-104.14
X69.85Y-111.125
X69.85Y-113.665
X72.39Y-78.105
X72.39Y-111.125
X72.39Y-113.665
X73.025Y-70.485
X74.93Y-78.105
X74.93Y-111.125
X74.93Y-113.665
X75.565Y-70.485
X77.47Y-78.105
X77.47Y-111.125
X77.47Y-113.665
X78.105Y-70.485
X78.74Y-58.42
X78.74Y-60.96
X80.01Y-111.125
X80.01Y-113.665
X80.645Y-70.485
X81.28Y-58.42
X81.28Y-60.96
X83.82Y-58.42
X83.82Y-60.96
X84.455Y-85.725
X84.455Y-88.9
X86.36Y-58.42
X86.36Y-60.96
X88.9Y-58.42
X88.9Y-60.96
X91.44Y-58.42
X91.44Y-60.96
X93.98Y-58.42
X93.98Y-60.96
X95.885Y-92.075
X96.52Y-58.42
X96.52Y-60.96
X99.06Y-58.42
X99.06Y-60.96
X99.06Y-92.075
X101.6Y-58.42
X101.6Y-60.96
X101.6Y-111.125
X101.6Y-113.665
X104.14Y-111.125
X104.14Y-113.665
X106.68Y-111.125
X106.68Y-113.665
X109.22Y-111.125
X109.22Y-113.665
X111.76Y-111.125
X111.76Y-113.665
X114.3Y-111.125
X114.3Y-113.665
X116.205Y-82.55
X116.84Y-111.125
X116.84Y-113.665
X118.745Y-82.55
X119.38Y-111.125
X119.38Y-113.665
X121.285Y-82.55
X121.92Y-111.125
X121.92Y-113.665
X124.46Y-111.125
X124.46Y-113.665
X131.445Y-74.295
X131.445Y-76.835
X131.445Y-79.375
X131.445Y-81.915
X131.445Y-84.455
X131.445Y-86.995
X131.445Y-103.251
X133.985Y-74.295
X133.985Y-76.835
X133.985Y-79.375
X133.985Y-81.915
X133.985Y-84.455
X133.985Y-86.995
T3
X81.325Y-100.905
X81.325Y-105.405
X87.825Y-100.905
X87.825Y-105.405
X111.76Y-58.905
X111.76Y-65.405
X116.26Y-58.905
X116.26Y-65.405
X127.Y-58.905
X127.Y-65.405
X131.5Y-58.905
X131.5Y-65.405
T0
M30
