G04 #@! TF.FileFunction,Copper,L1,Top,Signal*
%FSLAX46Y46*%
G04 Gerber Fmt 4.6, Leading zero omitted, Abs format (unit mm)*
G04 Created by KiCad (PCBNEW 4.0.7) date 05/24/18 15:50:37*
%MOMM*%
%LPD*%
G01*
G04 APERTURE LIST*
%ADD10C,0.100000*%
%ADD11C,2.000000*%
%ADD12R,0.900000X0.800000*%
%ADD13R,1.250000X1.500000*%
%ADD14R,1.500000X1.250000*%
%ADD15R,1.000000X1.000000*%
%ADD16R,1.500000X1.300000*%
%ADD17R,1.300000X1.500000*%
%ADD18C,1.800000*%
%ADD19R,1.060000X0.650000*%
%ADD20R,1.220000X0.650000*%
%ADD21R,0.250000X1.000000*%
%ADD22R,1.000000X0.250000*%
%ADD23R,2.250000X1.800000*%
%ADD24C,0.700000*%
%ADD25C,0.650000*%
%ADD26C,0.250000*%
G04 APERTURE END LIST*
D10*
D11*
X81325000Y-105405000D03*
X81325000Y-100905000D03*
X87825000Y-105405000D03*
X87825000Y-100905000D03*
D12*
X68215000Y-57470000D03*
X68215000Y-59370000D03*
X70215000Y-58420000D03*
D13*
X123825000Y-59670000D03*
X123825000Y-57170000D03*
X77825000Y-102155000D03*
X77825000Y-104655000D03*
X127000000Y-103250000D03*
X127000000Y-105750000D03*
X108585000Y-59670000D03*
X108585000Y-57170000D03*
X130810000Y-91460000D03*
X130810000Y-93960000D03*
X127635000Y-91460000D03*
X127635000Y-93960000D03*
D14*
X121813000Y-88392000D03*
X124313000Y-88392000D03*
D13*
X118618000Y-93452000D03*
X118618000Y-90952000D03*
X115570000Y-93452000D03*
X115570000Y-90952000D03*
X77470000Y-94000000D03*
X77470000Y-96500000D03*
X90170000Y-95230000D03*
X90170000Y-92730000D03*
D15*
X86975000Y-70485000D03*
X84475000Y-70485000D03*
X109748000Y-93599000D03*
X112248000Y-93599000D03*
D16*
X109775000Y-87249000D03*
X112475000Y-87249000D03*
D17*
X95885000Y-103585000D03*
X95885000Y-100885000D03*
X99060000Y-103585000D03*
X99060000Y-100885000D03*
D16*
X72945000Y-88900000D03*
X75645000Y-88900000D03*
X72945000Y-85725000D03*
X75645000Y-85725000D03*
D18*
X75565000Y-70485000D03*
X73025000Y-70485000D03*
X78105000Y-70485000D03*
X80645000Y-70485000D03*
X124460000Y-111125000D03*
X124460000Y-113665000D03*
X121920000Y-111125000D03*
X121920000Y-113665000D03*
X119380000Y-111125000D03*
X119380000Y-113665000D03*
X116840000Y-111125000D03*
X116840000Y-113665000D03*
X114300000Y-111125000D03*
X114300000Y-113665000D03*
X111760000Y-111125000D03*
X111760000Y-113665000D03*
X109220000Y-111125000D03*
X109220000Y-113665000D03*
X106680000Y-111125000D03*
X106680000Y-113665000D03*
X104140000Y-111125000D03*
X104140000Y-113665000D03*
X101600000Y-111125000D03*
X101600000Y-113665000D03*
X88900000Y-60960000D03*
X86360000Y-60960000D03*
X83820000Y-60960000D03*
X83820000Y-58420000D03*
X86360000Y-58420000D03*
X88900000Y-58420000D03*
X81280000Y-58420000D03*
X81280000Y-60960000D03*
X78740000Y-60960000D03*
X78740000Y-58420000D03*
X91440000Y-58420000D03*
X91440000Y-60960000D03*
X93980000Y-60960000D03*
X93980000Y-58420000D03*
X101600000Y-58420000D03*
X99060000Y-58420000D03*
X96520000Y-58420000D03*
X96520000Y-60960000D03*
X99060000Y-60960000D03*
X101600000Y-60960000D03*
X95885000Y-92075000D03*
X99060000Y-92075000D03*
X84455000Y-88900000D03*
X84455000Y-85725000D03*
X56515000Y-93980000D03*
X59055000Y-93980000D03*
X59055000Y-104140000D03*
X56515000Y-104140000D03*
X59055000Y-101600000D03*
X56515000Y-101600000D03*
X59055000Y-99060000D03*
X56515000Y-99060000D03*
X59055000Y-96520000D03*
X56515000Y-96520000D03*
X131445000Y-79375000D03*
X131445000Y-76835000D03*
X131445000Y-74295000D03*
X133985000Y-74295000D03*
X133985000Y-76835000D03*
X133985000Y-79375000D03*
X133985000Y-86995000D03*
X133985000Y-84455000D03*
X133985000Y-81915000D03*
X131445000Y-81915000D03*
X131445000Y-84455000D03*
X131445000Y-86995000D03*
X56515000Y-71755000D03*
X59055000Y-71755000D03*
X59055000Y-81915000D03*
X56515000Y-81915000D03*
X59055000Y-79375000D03*
X56515000Y-79375000D03*
X59055000Y-76835000D03*
X56515000Y-76835000D03*
X59055000Y-74295000D03*
X56515000Y-74295000D03*
X69850000Y-113665000D03*
X69850000Y-111125000D03*
X80010000Y-111125000D03*
X80010000Y-113665000D03*
X77470000Y-111125000D03*
X77470000Y-113665000D03*
X74930000Y-111125000D03*
X74930000Y-113665000D03*
X72390000Y-111125000D03*
X72390000Y-113665000D03*
X77470000Y-78105000D03*
X74930000Y-78105000D03*
X72390000Y-78105000D03*
X121285000Y-82550000D03*
X118745000Y-82550000D03*
X116205000Y-82550000D03*
D12*
X68310000Y-64704000D03*
X68310000Y-62804000D03*
X66310000Y-63754000D03*
D16*
X131525000Y-68580000D03*
X128825000Y-68580000D03*
X127150000Y-99500000D03*
X129850000Y-99500000D03*
X123350000Y-99500000D03*
X120650000Y-99500000D03*
D17*
X117500000Y-103150000D03*
X117500000Y-105850000D03*
X123825000Y-65485000D03*
X123825000Y-62785000D03*
X134620000Y-65485000D03*
X134620000Y-62785000D03*
X91325000Y-103755000D03*
X91325000Y-101055000D03*
D16*
X116285000Y-68580000D03*
X113585000Y-68580000D03*
D17*
X108585000Y-65485000D03*
X108585000Y-62785000D03*
X119380000Y-65485000D03*
X119380000Y-62785000D03*
D16*
X109775000Y-90424000D03*
X112475000Y-90424000D03*
D17*
X95885000Y-95170000D03*
X95885000Y-97870000D03*
X99060000Y-95170000D03*
X99060000Y-97870000D03*
D16*
X81360000Y-88900000D03*
X78660000Y-88900000D03*
X81360000Y-85725000D03*
X78660000Y-85725000D03*
X71040000Y-64770000D03*
X73740000Y-64770000D03*
D17*
X64770000Y-57705000D03*
X64770000Y-60405000D03*
X73660000Y-58340000D03*
X73660000Y-61040000D03*
D11*
X131500000Y-65405000D03*
X127000000Y-65405000D03*
X131500000Y-58905000D03*
X127000000Y-58905000D03*
X116260000Y-65405000D03*
X111760000Y-65405000D03*
X116260000Y-58905000D03*
X111760000Y-58905000D03*
D19*
X123255000Y-105065000D03*
X123255000Y-104115000D03*
X123255000Y-103165000D03*
X121055000Y-103165000D03*
X121055000Y-105065000D03*
D20*
X124373000Y-93406000D03*
X124373000Y-92456000D03*
X124373000Y-91506000D03*
X121753000Y-91506000D03*
X121753000Y-93406000D03*
D21*
X93020000Y-86456000D03*
X93520000Y-86456000D03*
X94020000Y-86456000D03*
X94520000Y-86456000D03*
X95020000Y-86456000D03*
X95520000Y-86456000D03*
X96020000Y-86456000D03*
X96520000Y-86456000D03*
X97020000Y-86456000D03*
X97520000Y-86456000D03*
X98020000Y-86456000D03*
X98520000Y-86456000D03*
X99020000Y-86456000D03*
X99520000Y-86456000D03*
X100020000Y-86456000D03*
X100520000Y-86456000D03*
D22*
X102470000Y-84506000D03*
X102470000Y-84006000D03*
X102470000Y-83506000D03*
X102470000Y-83006000D03*
X102470000Y-82506000D03*
X102470000Y-82006000D03*
X102470000Y-81506000D03*
X102470000Y-81006000D03*
X102470000Y-80506000D03*
X102470000Y-80006000D03*
X102470000Y-79506000D03*
X102470000Y-79006000D03*
X102470000Y-78506000D03*
X102470000Y-78006000D03*
X102470000Y-77506000D03*
X102470000Y-77006000D03*
D21*
X100520000Y-75056000D03*
X100020000Y-75056000D03*
X99520000Y-75056000D03*
X99020000Y-75056000D03*
X98520000Y-75056000D03*
X98020000Y-75056000D03*
X97520000Y-75056000D03*
X97020000Y-75056000D03*
X96520000Y-75056000D03*
X96020000Y-75056000D03*
X95520000Y-75056000D03*
X95020000Y-75056000D03*
X94520000Y-75056000D03*
X94020000Y-75056000D03*
X93520000Y-75056000D03*
X93020000Y-75056000D03*
D22*
X91070000Y-77006000D03*
X91070000Y-77506000D03*
X91070000Y-78006000D03*
X91070000Y-78506000D03*
X91070000Y-79006000D03*
X91070000Y-79506000D03*
X91070000Y-80006000D03*
X91070000Y-80506000D03*
X91070000Y-81006000D03*
X91070000Y-81506000D03*
X91070000Y-82006000D03*
X91070000Y-82506000D03*
X91070000Y-83006000D03*
X91070000Y-83506000D03*
X91070000Y-84006000D03*
X91070000Y-84506000D03*
D23*
X81395000Y-96315000D03*
X86245000Y-96315000D03*
X86245000Y-92915000D03*
X81395000Y-92915000D03*
D18*
X131445000Y-103251000D03*
D24*
X108077000Y-87249000D03*
X118618000Y-89535000D03*
X69723000Y-62738000D03*
X115570000Y-89535000D03*
X125984000Y-88392000D03*
X122936000Y-92456000D03*
X130810000Y-95885000D03*
X127635000Y-95885000D03*
X73000000Y-91000000D03*
X134620000Y-60960000D03*
X119380000Y-60960000D03*
X77470000Y-92075000D03*
X90170000Y-97155000D03*
X127000000Y-107315000D03*
X119253000Y-105918000D03*
X99060000Y-105410000D03*
X95885000Y-105410000D03*
X92500000Y-83500000D03*
X98000000Y-85000000D03*
X104013000Y-85153500D03*
X104000000Y-77000000D03*
X94000000Y-76500000D03*
X118745000Y-116840000D03*
X130175000Y-109220000D03*
X69850000Y-60960000D03*
X72390000Y-54610000D03*
X102489000Y-74041000D03*
X93500000Y-93500000D03*
X92500000Y-76500000D03*
X101000000Y-83500000D03*
X101000000Y-77000000D03*
X92500000Y-84500000D03*
X99000000Y-85000000D03*
X101000000Y-78000000D03*
X102870000Y-115824000D03*
X87376000Y-64770000D03*
X90551000Y-63881000D03*
X97790000Y-63119000D03*
X97028000Y-66802000D03*
X66500000Y-78500000D03*
X70000000Y-75000000D03*
X62500000Y-77500000D03*
X61722000Y-75565000D03*
X65000000Y-78000000D03*
X69000000Y-74000000D03*
X70500000Y-100500000D03*
X92500000Y-82500000D03*
D25*
X123825000Y-59670000D02*
X123825000Y-62785000D01*
X134620000Y-65485000D02*
X131580000Y-65485000D01*
D26*
X131580000Y-65485000D02*
X131500000Y-65405000D01*
D25*
X131500000Y-65405000D02*
X131500000Y-68555000D01*
D26*
X131500000Y-68555000D02*
X131525000Y-68580000D01*
D25*
X131500000Y-58905000D02*
X131500000Y-65405000D01*
X123825000Y-57170000D02*
X129765000Y-57170000D01*
X129765000Y-57170000D02*
X131500000Y-58905000D01*
D26*
X96020000Y-86456000D02*
X96020000Y-88980000D01*
X92000000Y-100380000D02*
X91325000Y-101055000D01*
X92000000Y-93000000D02*
X92000000Y-100380000D01*
X96020000Y-88980000D02*
X92000000Y-93000000D01*
D25*
X87825000Y-100905000D02*
X81325000Y-100905000D01*
D26*
X91825000Y-100555000D02*
X91325000Y-101055000D01*
D25*
X87825000Y-100905000D02*
X91175000Y-100905000D01*
D26*
X91175000Y-100905000D02*
X91325000Y-101055000D01*
D25*
X81325000Y-100905000D02*
X79075000Y-100905000D01*
X79075000Y-100905000D02*
X77825000Y-102155000D01*
X109775000Y-87249000D02*
X108077000Y-87249000D01*
X118618000Y-90952000D02*
X118618000Y-89535000D01*
X68310000Y-62804000D02*
X69657000Y-62804000D01*
D26*
X69657000Y-62804000D02*
X69723000Y-62738000D01*
D25*
X115570000Y-90952000D02*
X115570000Y-89535000D01*
D26*
X115570000Y-90952000D02*
X115570000Y-89535000D01*
D25*
X124313000Y-88392000D02*
X125984000Y-88392000D01*
X124373000Y-92456000D02*
X122936000Y-92456000D01*
X130810000Y-93960000D02*
X130810000Y-95885000D01*
X127635000Y-93960000D02*
X127635000Y-95885000D01*
X72945000Y-88900000D02*
X72945000Y-90945000D01*
D26*
X72945000Y-90945000D02*
X73000000Y-91000000D01*
D25*
X72945000Y-85725000D02*
X72945000Y-88900000D01*
X134620000Y-62785000D02*
X134620000Y-60960000D01*
X119380000Y-62785000D02*
X119380000Y-60960000D01*
X77470000Y-94000000D02*
X77470000Y-92075000D01*
X90170000Y-95230000D02*
X90170000Y-97155000D01*
X127000000Y-105750000D02*
X127000000Y-107315000D01*
X121055000Y-105065000D02*
X120106000Y-105065000D01*
D26*
X119185000Y-105850000D02*
X119253000Y-105918000D01*
D25*
X119185000Y-105850000D02*
X117500000Y-105850000D01*
X120106000Y-105065000D02*
X119253000Y-105918000D01*
X99060000Y-103585000D02*
X99060000Y-105410000D01*
X95885000Y-103585000D02*
X95885000Y-105410000D01*
X81325000Y-105405000D02*
X87825000Y-105405000D01*
X81325000Y-105405000D02*
X78575000Y-105405000D01*
X78575000Y-105405000D02*
X77825000Y-104655000D01*
D26*
X91070000Y-84006000D02*
X91994000Y-84006000D01*
X91994000Y-84006000D02*
X92500000Y-83500000D01*
X98520000Y-86456000D02*
X98520000Y-85520000D01*
X98520000Y-85520000D02*
X98000000Y-85000000D01*
X102470000Y-84006000D02*
X103437000Y-84006000D01*
X104013000Y-84582000D02*
X104013000Y-85153500D01*
X103437000Y-84006000D02*
X104013000Y-84582000D01*
X102470000Y-77506000D02*
X103494000Y-77506000D01*
X103494000Y-77506000D02*
X104000000Y-77000000D01*
X93520000Y-75056000D02*
X93520000Y-76020000D01*
X93520000Y-76020000D02*
X94000000Y-76500000D01*
D25*
X73660000Y-61040000D02*
X78660000Y-61040000D01*
D26*
X78660000Y-61040000D02*
X78740000Y-60960000D01*
D25*
X127000000Y-103250000D02*
X131444000Y-103250000D01*
X131444000Y-103250000D02*
X131445000Y-103251000D01*
X105410000Y-116840000D02*
X104140000Y-115570000D01*
X109220000Y-116840000D02*
X105410000Y-116840000D01*
X109220000Y-116840000D02*
X118745000Y-116840000D01*
X104140000Y-113665000D02*
X104140000Y-115570000D01*
X127000000Y-103250000D02*
X128650000Y-103250000D01*
X128650000Y-103250000D02*
X130175000Y-104775000D01*
X130175000Y-104775000D02*
X130175000Y-109220000D01*
D26*
X104013000Y-113792000D02*
X104140000Y-113665000D01*
D25*
X127000000Y-103250000D02*
X123340000Y-103250000D01*
D26*
X123340000Y-103250000D02*
X123255000Y-103165000D01*
D25*
X127150000Y-99500000D02*
X127150000Y-103100000D01*
D26*
X127150000Y-103100000D02*
X127000000Y-103250000D01*
D25*
X123350000Y-99500000D02*
X127150000Y-99500000D01*
X108585000Y-59670000D02*
X108585000Y-62785000D01*
X116260000Y-65405000D02*
X119300000Y-65405000D01*
D26*
X119300000Y-65405000D02*
X119380000Y-65485000D01*
D25*
X108585000Y-57170000D02*
X114525000Y-57170000D01*
X114525000Y-57170000D02*
X116260000Y-58905000D01*
X116260000Y-65405000D02*
X116260000Y-58905000D01*
X116285000Y-68580000D02*
X116285000Y-65430000D01*
D26*
X116285000Y-65430000D02*
X116260000Y-65405000D01*
D25*
X111760000Y-114760000D02*
X111760000Y-113665000D01*
X125500000Y-115500000D02*
X112500000Y-115500000D01*
X112500000Y-115500000D02*
X111760000Y-114760000D01*
D26*
X124460000Y-113665000D02*
X124460000Y-114460000D01*
D25*
X124460000Y-114460000D02*
X125500000Y-115500000D01*
X133985000Y-89985000D02*
X133985000Y-108015000D01*
X133985000Y-108015000D02*
X126500000Y-115500000D01*
X126500000Y-115500000D02*
X125500000Y-115500000D01*
X133985000Y-86995000D02*
X133985000Y-89985000D01*
X132500000Y-91470000D02*
X130820000Y-91470000D01*
X133985000Y-89985000D02*
X132500000Y-91470000D01*
D26*
X130820000Y-91470000D02*
X130810000Y-91460000D01*
D25*
X69850000Y-60960000D02*
X68707000Y-60960000D01*
X68707000Y-60960000D02*
X68215000Y-60468000D01*
X68215000Y-60468000D02*
X68215000Y-59370000D01*
X133985000Y-86995000D02*
X135890000Y-86995000D01*
X131445000Y-54610000D02*
X72390000Y-54610000D01*
X137795000Y-60960000D02*
X131445000Y-54610000D01*
X137795000Y-85090000D02*
X137795000Y-60960000D01*
X135890000Y-86995000D02*
X137795000Y-85090000D01*
X124373000Y-93406000D02*
X125161000Y-93406000D01*
X125730000Y-92837000D02*
X125730000Y-91506000D01*
X125161000Y-93406000D02*
X125730000Y-92837000D01*
X124373000Y-91506000D02*
X125730000Y-91506000D01*
X125730000Y-91506000D02*
X127589000Y-91506000D01*
D26*
X127589000Y-91506000D02*
X127635000Y-91460000D01*
D25*
X130810000Y-91460000D02*
X127635000Y-91460000D01*
D26*
X133985000Y-86995000D02*
X133985000Y-87630000D01*
D25*
X102489000Y-74041000D02*
X102470000Y-74041000D01*
X102470000Y-74041000D02*
X102489000Y-74041000D01*
X102489000Y-74041000D02*
X102470000Y-74041000D01*
X101600000Y-60960000D02*
X102470000Y-61830000D01*
X102470000Y-61830000D02*
X102470000Y-74041000D01*
X99000000Y-85000000D02*
X99000000Y-84000000D01*
X99000000Y-84000000D02*
X99500000Y-83500000D01*
X92500000Y-84500000D02*
X92919000Y-84500000D01*
X96500000Y-80919000D02*
X96500000Y-80500000D01*
X92919000Y-84500000D02*
X96500000Y-80919000D01*
X109775000Y-90424000D02*
X109775000Y-93572000D01*
X109775000Y-93572000D02*
X109748000Y-93599000D01*
X129850000Y-99500000D02*
X129850000Y-98354000D01*
X109748000Y-95651000D02*
X109748000Y-93599000D01*
X111379000Y-97282000D02*
X109748000Y-95651000D01*
X128778000Y-97282000D02*
X111379000Y-97282000D01*
X129850000Y-98354000D02*
X128778000Y-97282000D01*
X96500000Y-80500000D02*
X93000000Y-77000000D01*
X93000000Y-77000000D02*
X92500000Y-76500000D01*
X91325000Y-103755000D02*
X91325000Y-106175000D01*
X86375000Y-111125000D02*
X80010000Y-111125000D01*
X91325000Y-106175000D02*
X86375000Y-111125000D01*
X92500000Y-103500000D02*
X91580000Y-103500000D01*
X93500000Y-102500000D02*
X92500000Y-103500000D01*
X93500000Y-102000000D02*
X93500000Y-102500000D01*
X93500000Y-93500000D02*
X93500000Y-102000000D01*
D26*
X91580000Y-103500000D02*
X91325000Y-103755000D01*
X109748000Y-93599000D02*
X109599000Y-93599000D01*
D25*
X109599000Y-93599000D02*
X101000000Y-85000000D01*
X101000000Y-85000000D02*
X101000000Y-83500000D01*
D26*
X93020000Y-86456000D02*
X93020000Y-85020000D01*
X93020000Y-85020000D02*
X92500000Y-84500000D01*
X93020000Y-75056000D02*
X93020000Y-75980000D01*
X93020000Y-75980000D02*
X92500000Y-76500000D01*
X93020000Y-75056000D02*
X91546000Y-75056000D01*
X91546000Y-75056000D02*
X86975000Y-70485000D01*
D25*
X108585000Y-65485000D02*
X105711000Y-65485000D01*
X105711000Y-65485000D02*
X102470000Y-68726000D01*
D26*
X102470000Y-68726000D02*
X102470000Y-61830000D01*
D25*
X96500000Y-80500000D02*
X100000000Y-77000000D01*
X100000000Y-77000000D02*
X101000000Y-77000000D01*
X101000000Y-83500000D02*
X99500000Y-83500000D01*
X99500000Y-83500000D02*
X96500000Y-80500000D01*
D26*
X109775000Y-93572000D02*
X109748000Y-93599000D01*
X102470000Y-83506000D02*
X101006000Y-83506000D01*
X101006000Y-83506000D02*
X101000000Y-83500000D01*
D25*
X127000000Y-58905000D02*
X127000000Y-65405000D01*
X123825000Y-65485000D02*
X126920000Y-65485000D01*
D26*
X126920000Y-65485000D02*
X127000000Y-65405000D01*
D25*
X108585000Y-65485000D02*
X111680000Y-65485000D01*
D26*
X111680000Y-65485000D02*
X111760000Y-65405000D01*
D25*
X111760000Y-65405000D02*
X111760000Y-58905000D01*
D26*
X102470000Y-77006000D02*
X101500000Y-77006000D01*
X101006000Y-77006000D02*
X101000000Y-77000000D01*
X101500000Y-77006000D02*
X101006000Y-77006000D01*
X91070000Y-84506000D02*
X92494000Y-84506000D01*
X92494000Y-84506000D02*
X92500000Y-84500000D01*
X99020000Y-86456000D02*
X99020000Y-85020000D01*
X99020000Y-85020000D02*
X99000000Y-85000000D01*
D25*
X121753000Y-91506000D02*
X121753000Y-88452000D01*
D26*
X121753000Y-88452000D02*
X121813000Y-88392000D01*
D25*
X115570000Y-93452000D02*
X118618000Y-93452000D01*
X121753000Y-93406000D02*
X118664000Y-93406000D01*
D26*
X118664000Y-93406000D02*
X118618000Y-93452000D01*
D25*
X112248000Y-93599000D02*
X115423000Y-93599000D01*
D26*
X115423000Y-93599000D02*
X115570000Y-93452000D01*
X115423000Y-93599000D02*
X115570000Y-93452000D01*
X118664000Y-93406000D02*
X118618000Y-93452000D01*
X102470000Y-78006000D02*
X101006000Y-78006000D01*
X101006000Y-78006000D02*
X101000000Y-78000000D01*
X95020000Y-86456000D02*
X95020000Y-87980000D01*
X83500000Y-94210000D02*
X81395000Y-96315000D01*
X83500000Y-92500000D02*
X83500000Y-94210000D01*
X85500000Y-90500000D02*
X83500000Y-92500000D01*
X92500000Y-90500000D02*
X85500000Y-90500000D01*
X95020000Y-87980000D02*
X92500000Y-90500000D01*
X77470000Y-96500000D02*
X81210000Y-96500000D01*
X81210000Y-96500000D02*
X81395000Y-96315000D01*
X81337000Y-96373000D02*
X81395000Y-96315000D01*
X95520000Y-86456000D02*
X95520000Y-88480000D01*
X88000000Y-91000000D02*
X86245000Y-92755000D01*
X93000000Y-91000000D02*
X88000000Y-91000000D01*
X95520000Y-88480000D02*
X93000000Y-91000000D01*
X86245000Y-92755000D02*
X86245000Y-92915000D01*
X90170000Y-92730000D02*
X86430000Y-92730000D01*
X86430000Y-92730000D02*
X86245000Y-92915000D01*
X86303000Y-92857000D02*
X86245000Y-92915000D01*
X84475000Y-70485000D02*
X80645000Y-70485000D01*
D25*
X112475000Y-89789000D02*
X112475000Y-87249000D01*
X95885000Y-97870000D02*
X95885000Y-100885000D01*
X99060000Y-97870000D02*
X99060000Y-100885000D01*
X75645000Y-88900000D02*
X78660000Y-88900000D01*
X78660000Y-85725000D02*
X75645000Y-85725000D01*
D26*
X91070000Y-77006000D02*
X90341000Y-77006000D01*
X75565000Y-71755000D02*
X75565000Y-70485000D01*
X76200000Y-72390000D02*
X75565000Y-71755000D01*
X85725000Y-72390000D02*
X76200000Y-72390000D01*
X90341000Y-77006000D02*
X85725000Y-72390000D01*
X94020000Y-75056000D02*
X94020000Y-73700000D01*
X78105000Y-69215000D02*
X78105000Y-70485000D01*
X78740000Y-68580000D02*
X78105000Y-69215000D01*
X88900000Y-68580000D02*
X78740000Y-68580000D01*
X94020000Y-73700000D02*
X88900000Y-68580000D01*
X98020000Y-86456000D02*
X98020000Y-87733000D01*
X102870000Y-112395000D02*
X102870000Y-108712000D01*
X102870000Y-112395000D02*
X101600000Y-113665000D01*
X102870000Y-92583000D02*
X102870000Y-108712000D01*
X98020000Y-87733000D02*
X102870000Y-92583000D01*
X100020000Y-86456000D02*
X100020000Y-87955000D01*
X107950000Y-112395000D02*
X106680000Y-113665000D01*
X107950000Y-95885000D02*
X107950000Y-112395000D01*
X100020000Y-87955000D02*
X107950000Y-95885000D01*
X97520000Y-88122000D02*
X101600000Y-92202000D01*
X101600000Y-92202000D02*
X101600000Y-107188000D01*
X101600000Y-107188000D02*
X99187000Y-109601000D01*
X99187000Y-109601000D02*
X99187000Y-114427000D01*
X99187000Y-114427000D02*
X100584000Y-115824000D01*
X100584000Y-115824000D02*
X102870000Y-115824000D01*
X97520000Y-86456000D02*
X97520000Y-88122000D01*
X100520000Y-86456000D02*
X100520000Y-87566000D01*
X118110000Y-112395000D02*
X119380000Y-113665000D01*
X118110000Y-110109000D02*
X118110000Y-112395000D01*
X116586000Y-108585000D02*
X118110000Y-110109000D01*
X111633000Y-108585000D02*
X116586000Y-108585000D01*
X108712000Y-105664000D02*
X111633000Y-108585000D01*
X108712000Y-95758000D02*
X108712000Y-105664000D01*
X100520000Y-87566000D02*
X108712000Y-95758000D01*
X95020000Y-75056000D02*
X95020000Y-71144000D01*
X88646000Y-64770000D02*
X87376000Y-64770000D01*
X95020000Y-71144000D02*
X88646000Y-64770000D01*
X91440000Y-58420000D02*
X91440000Y-56560000D01*
X91440000Y-56560000D02*
X91500000Y-56500000D01*
X83820000Y-58420000D02*
X83820000Y-57180000D01*
X99000000Y-57000000D02*
X99000000Y-58360000D01*
X98500000Y-56500000D02*
X99000000Y-57000000D01*
X98000000Y-56500000D02*
X98500000Y-56500000D01*
X91500000Y-56500000D02*
X98000000Y-56500000D01*
X84500000Y-56500000D02*
X91500000Y-56500000D01*
X83820000Y-57180000D02*
X84500000Y-56500000D01*
X99000000Y-58360000D02*
X99060000Y-58420000D01*
X99020000Y-75056000D02*
X99020000Y-67270000D01*
X87630000Y-59690000D02*
X86360000Y-58420000D01*
X87630000Y-62103000D02*
X87630000Y-59690000D01*
X88519000Y-62992000D02*
X87630000Y-62103000D01*
X94742000Y-62992000D02*
X88519000Y-62992000D01*
X99020000Y-67270000D02*
X94742000Y-62992000D01*
X96020000Y-75056000D02*
X96020000Y-69350000D01*
X96020000Y-69350000D02*
X90551000Y-63881000D01*
X95520000Y-75056000D02*
X95520000Y-70120000D01*
X82550000Y-59690000D02*
X81280000Y-58420000D01*
X82550000Y-62230000D02*
X82550000Y-59690000D01*
X84201000Y-63881000D02*
X82550000Y-62230000D01*
X89281000Y-63881000D02*
X84201000Y-63881000D01*
X95520000Y-70120000D02*
X89281000Y-63881000D01*
D25*
X73660000Y-58340000D02*
X78660000Y-58340000D01*
D26*
X78660000Y-58340000D02*
X78740000Y-58420000D01*
D25*
X70215000Y-58420000D02*
X73580000Y-58420000D01*
D26*
X73580000Y-58420000D02*
X73660000Y-58340000D01*
X99520000Y-75056000D02*
X99520000Y-66373000D01*
X95250000Y-59690000D02*
X93980000Y-58420000D01*
X95250000Y-62103000D02*
X95250000Y-59690000D01*
X99520000Y-66373000D02*
X95250000Y-62103000D01*
X100020000Y-75056000D02*
X100020000Y-62286000D01*
X100330000Y-59690000D02*
X101600000Y-58420000D01*
X100330000Y-61976000D02*
X100330000Y-59690000D01*
X100020000Y-62286000D02*
X100330000Y-61976000D01*
X96520000Y-75056000D02*
X96520000Y-67310000D01*
X97790000Y-59690000D02*
X96520000Y-58420000D01*
X97790000Y-63119000D02*
X97790000Y-59690000D01*
X96520000Y-67310000D02*
X97028000Y-66802000D01*
D25*
X95885000Y-92075000D02*
X95885000Y-95170000D01*
D26*
X95885000Y-92075000D02*
X95885000Y-90170000D01*
X96520000Y-89535000D02*
X96520000Y-86456000D01*
X95885000Y-90170000D02*
X96520000Y-89535000D01*
D25*
X99060000Y-92075000D02*
X99060000Y-95170000D01*
D26*
X97020000Y-86456000D02*
X97020000Y-90035000D01*
X97020000Y-90035000D02*
X99060000Y-92075000D01*
D25*
X81360000Y-88900000D02*
X84455000Y-88900000D01*
D26*
X93520000Y-86456000D02*
X93520000Y-87480000D01*
X92100000Y-88900000D02*
X84455000Y-88900000D01*
X93520000Y-87480000D02*
X92100000Y-88900000D01*
D25*
X81360000Y-85725000D02*
X84455000Y-85725000D01*
D26*
X91070000Y-83506000D02*
X89494000Y-83506000D01*
X87275000Y-85725000D02*
X84455000Y-85725000D01*
X89494000Y-83506000D02*
X87275000Y-85725000D01*
X59055000Y-71755000D02*
X59055000Y-69500000D01*
X59055000Y-69500000D02*
X59000000Y-69500000D01*
X91070000Y-77506000D02*
X89506000Y-77506000D01*
X59055000Y-92555000D02*
X59055000Y-93980000D01*
X58000000Y-91500000D02*
X59055000Y-92555000D01*
X56000000Y-91500000D02*
X58000000Y-91500000D01*
X54500000Y-90000000D02*
X56000000Y-91500000D01*
X54500000Y-70500000D02*
X54500000Y-90000000D01*
X55500000Y-69500000D02*
X54500000Y-70500000D01*
X68000000Y-69500000D02*
X59000000Y-69500000D01*
X59000000Y-69500000D02*
X55500000Y-69500000D01*
X71500000Y-73000000D02*
X68000000Y-69500000D01*
X85000000Y-73000000D02*
X71500000Y-73000000D01*
X89506000Y-77506000D02*
X85000000Y-73000000D01*
X91070000Y-79006000D02*
X83006000Y-79006000D01*
X60900000Y-101600000D02*
X59055000Y-101600000D01*
X66000000Y-96500000D02*
X60900000Y-101600000D01*
X66000000Y-79000000D02*
X66000000Y-96500000D01*
X66500000Y-78500000D02*
X66000000Y-79000000D01*
X79000000Y-75000000D02*
X70000000Y-75000000D01*
X83006000Y-79006000D02*
X79000000Y-75000000D01*
X62500000Y-76500000D02*
X62500000Y-77500000D01*
X74930000Y-78105000D02*
X74930000Y-77430000D01*
X74930000Y-77430000D02*
X74000000Y-76500000D01*
X74000000Y-76500000D02*
X62500000Y-76500000D01*
X62500000Y-76500000D02*
X59390000Y-76500000D01*
X59390000Y-76500000D02*
X59055000Y-76835000D01*
X61722000Y-74295000D02*
X61722000Y-75565000D01*
X61500000Y-74295000D02*
X61595000Y-74295000D01*
X91070000Y-80006000D02*
X82506000Y-80006000D01*
X82506000Y-80006000D02*
X78500000Y-76000000D01*
X78500000Y-76000000D02*
X66500000Y-76000000D01*
X66500000Y-76000000D02*
X64795000Y-74295000D01*
X64795000Y-74295000D02*
X61722000Y-74295000D01*
X61722000Y-74295000D02*
X61595000Y-74295000D01*
X61595000Y-74295000D02*
X59055000Y-74295000D01*
X59795000Y-74295000D02*
X59055000Y-74295000D01*
X105664000Y-80006000D02*
X110748000Y-80006000D01*
X127635000Y-72517000D02*
X129921000Y-72517000D01*
X122301000Y-77851000D02*
X127635000Y-72517000D01*
X112903000Y-77851000D02*
X122301000Y-77851000D01*
X110748000Y-80006000D02*
X112903000Y-77851000D01*
X102470000Y-80006000D02*
X105664000Y-80006000D01*
X105664000Y-80006000D02*
X106176000Y-80006000D01*
X132207000Y-72517000D02*
X133985000Y-74295000D01*
X129921000Y-72517000D02*
X132207000Y-72517000D01*
X106426000Y-80506000D02*
X111264000Y-80506000D01*
X125730000Y-75565000D02*
X131445000Y-75565000D01*
X122809000Y-78486000D02*
X125730000Y-75565000D01*
X113284000Y-78486000D02*
X122809000Y-78486000D01*
X111264000Y-80506000D02*
X113284000Y-78486000D01*
X102470000Y-80506000D02*
X106426000Y-80506000D01*
X106426000Y-80506000D02*
X106692000Y-80506000D01*
X132715000Y-75565000D02*
X133985000Y-76835000D01*
X131445000Y-75565000D02*
X132715000Y-75565000D01*
X130048000Y-75565000D02*
X131445000Y-75565000D01*
X107315000Y-81006000D02*
X111780000Y-81006000D01*
X124079000Y-78105000D02*
X131064000Y-78105000D01*
X123952000Y-78232000D02*
X124079000Y-78105000D01*
X123063000Y-79121000D02*
X123952000Y-78232000D01*
X113665000Y-79121000D02*
X123063000Y-79121000D01*
X111780000Y-81006000D02*
X113665000Y-79121000D01*
X102470000Y-81006000D02*
X107315000Y-81006000D01*
X107315000Y-81006000D02*
X107335000Y-81006000D01*
X132715000Y-78105000D02*
X133985000Y-79375000D01*
X131064000Y-78105000D02*
X132715000Y-78105000D01*
X129667000Y-78105000D02*
X131064000Y-78105000D01*
X108585000Y-82006000D02*
X112812000Y-82006000D01*
X125222000Y-83185000D02*
X130302000Y-83185000D01*
X122428000Y-80391000D02*
X125222000Y-83185000D01*
X114427000Y-80391000D02*
X122428000Y-80391000D01*
X112812000Y-82006000D02*
X114427000Y-80391000D01*
X102470000Y-82006000D02*
X108585000Y-82006000D01*
X108585000Y-82006000D02*
X108621000Y-82006000D01*
X132588000Y-83185000D02*
X133858000Y-84455000D01*
X130302000Y-83185000D02*
X132588000Y-83185000D01*
X129921000Y-83185000D02*
X130302000Y-83185000D01*
X133858000Y-84455000D02*
X133985000Y-84455000D01*
X107823000Y-81506000D02*
X112296000Y-81506000D01*
X123952000Y-80645000D02*
X131318000Y-80645000D01*
X123063000Y-79756000D02*
X123952000Y-80645000D01*
X114046000Y-79756000D02*
X123063000Y-79756000D01*
X112296000Y-81506000D02*
X114046000Y-79756000D01*
X102470000Y-81506000D02*
X107823000Y-81506000D01*
X107823000Y-81506000D02*
X107978000Y-81506000D01*
X132715000Y-80645000D02*
X133985000Y-81915000D01*
X131318000Y-80645000D02*
X132715000Y-80645000D01*
X129921000Y-80645000D02*
X131318000Y-80645000D01*
X91070000Y-78506000D02*
X83506000Y-78506000D01*
X63625000Y-79375000D02*
X59055000Y-79375000D01*
X65000000Y-78000000D02*
X63625000Y-79375000D01*
X79000000Y-74000000D02*
X69000000Y-74000000D01*
X83506000Y-78506000D02*
X79000000Y-74000000D01*
X91070000Y-82006000D02*
X70994000Y-82006000D01*
X77470000Y-109470000D02*
X77470000Y-111125000D01*
X69500000Y-101500000D02*
X77470000Y-109470000D01*
X69500000Y-83500000D02*
X69500000Y-101500000D01*
X70994000Y-82006000D02*
X69500000Y-83500000D01*
X91070000Y-83006000D02*
X71494000Y-83006000D01*
X70500000Y-84000000D02*
X70500000Y-100500000D01*
X71494000Y-83006000D02*
X70500000Y-84000000D01*
X91070000Y-81506000D02*
X70494000Y-81506000D01*
X72390000Y-109390000D02*
X72390000Y-111125000D01*
X68500000Y-105500000D02*
X72390000Y-109390000D01*
X68500000Y-83500000D02*
X68500000Y-105500000D01*
X70494000Y-81506000D02*
X68500000Y-83500000D01*
X91070000Y-81006000D02*
X80506000Y-81006000D01*
X73500000Y-80000000D02*
X72390000Y-78890000D01*
X79500000Y-80000000D02*
X73500000Y-80000000D01*
X80506000Y-81006000D02*
X79500000Y-80000000D01*
X72390000Y-78890000D02*
X72390000Y-78105000D01*
X91070000Y-80506000D02*
X82006000Y-80506000D01*
X79605000Y-78105000D02*
X77470000Y-78105000D01*
X82006000Y-80506000D02*
X79605000Y-78105000D01*
X102470000Y-82506000D02*
X116161000Y-82506000D01*
X116161000Y-82506000D02*
X116205000Y-82550000D01*
X102470000Y-83006000D02*
X114006000Y-83006000D01*
X118000000Y-84000000D02*
X118745000Y-83255000D01*
X115000000Y-84000000D02*
X118000000Y-84000000D01*
X114006000Y-83006000D02*
X115000000Y-84000000D01*
X118745000Y-83255000D02*
X118745000Y-82550000D01*
D25*
X71040000Y-64770000D02*
X68376000Y-64770000D01*
D26*
X68376000Y-64770000D02*
X68310000Y-64704000D01*
X66310000Y-63754000D02*
X66294000Y-63754000D01*
D25*
X66294000Y-63754000D02*
X64770000Y-62230000D01*
X64770000Y-62230000D02*
X64770000Y-60405000D01*
X68215000Y-57470000D02*
X65005000Y-57470000D01*
D26*
X65005000Y-57470000D02*
X64770000Y-57705000D01*
X102470000Y-79006000D02*
X106244000Y-79006000D01*
X126905000Y-70500000D02*
X128825000Y-68580000D01*
X114750000Y-70500000D02*
X126905000Y-70500000D01*
X106244000Y-79006000D02*
X114750000Y-70500000D01*
D25*
X121055000Y-103165000D02*
X121055000Y-101370000D01*
X120650000Y-100965000D02*
X120650000Y-99500000D01*
X121055000Y-101370000D02*
X120650000Y-100965000D01*
X117500000Y-103150000D02*
X121040000Y-103150000D01*
D26*
X121040000Y-103150000D02*
X121055000Y-103165000D01*
X102470000Y-78506000D02*
X105744000Y-78506000D01*
X113585000Y-70665000D02*
X113585000Y-68580000D01*
X105744000Y-78506000D02*
X113585000Y-70665000D01*
X91070000Y-82506000D02*
X92494000Y-82506000D01*
X92494000Y-82506000D02*
X92500000Y-82500000D01*
X94520000Y-75056000D02*
X94520000Y-72168000D01*
X85217000Y-64770000D02*
X73740000Y-64770000D01*
X86360000Y-65913000D02*
X85217000Y-64770000D01*
X88265000Y-65913000D02*
X86360000Y-65913000D01*
X94520000Y-72168000D02*
X88265000Y-65913000D01*
M02*
